<svg width="70" height="13" viewBox="0 0 70 13" fill="none" xmlns="http://www.w3.org/2000/svg">
<path d="M21.8927 9C21.8238 9 21.7674 8.97807 21.7235 8.93422C21.6797 8.89037 21.6578 8.83399 21.6578 8.76509V2.65735C21.6578 2.58845 21.6797 2.53207 21.7235 2.48822C21.7674 2.44437 21.8238 2.42244 21.8927 2.42244H26.2057C26.2746 2.42244 26.331 2.44437 26.3748 2.48822C26.4249 2.53207 26.45 2.58845 26.45 2.65735V3.6064C26.45 3.67531 26.4249 3.73169 26.3748 3.77554C26.331 3.81939 26.2746 3.84131 26.2057 3.84131H23.3115V5.2226H26.0177C26.0866 5.2226 26.143 5.24766 26.1869 5.29777C26.237 5.34162 26.262 5.398 26.262 5.46691V6.40656C26.262 6.46921 26.237 6.52558 26.1869 6.5757C26.143 6.61955 26.0866 6.64148 26.0177 6.64148H23.3115V8.76509C23.3115 8.83399 23.2896 8.89037 23.2458 8.93422C23.2019 8.97807 23.1455 9 23.0766 9H21.8927ZM27.5061 9C27.4372 9 27.3808 8.97807 27.337 8.93422C27.2931 8.89037 27.2712 8.83399 27.2712 8.76509V4.34873C27.2712 4.28608 27.2931 4.23284 27.337 4.18899C27.3808 4.13887 27.4372 4.11381 27.5061 4.11381H28.5867C28.6556 4.11381 28.712 4.13887 28.7559 4.18899C28.7997 4.23284 28.8216 4.28608 28.8216 4.34873V4.72459C28.9908 4.53039 29.1912 4.38005 29.423 4.27355C29.6611 4.16706 29.9273 4.11381 30.2217 4.11381H30.6352C30.6978 4.11381 30.7511 4.13574 30.7949 4.17959C30.845 4.22344 30.8701 4.27982 30.8701 4.34873V5.31657C30.8701 5.37921 30.845 5.43559 30.7949 5.4857C30.7511 5.52955 30.6978 5.55148 30.6352 5.55148H29.7237C29.4669 5.55148 29.2664 5.62352 29.1223 5.7676C28.9845 5.90541 28.9156 6.10274 28.9156 6.35958V8.76509C28.9156 8.83399 28.8906 8.89037 28.8404 8.93422C28.7966 8.97807 28.7402 9 28.6713 9H27.5061ZM33.813 9.09397C33.2868 9.09397 32.8421 9.0094 32.4787 8.84026C32.1217 8.67112 31.846 8.42994 31.6518 8.11673C31.4639 7.79725 31.3574 7.41825 31.3323 6.97975C31.3261 6.85446 31.323 6.71352 31.323 6.55691C31.323 6.39403 31.3261 6.25309 31.3323 6.13406C31.3574 5.6893 31.4702 5.3103 31.6706 4.99709C31.8711 4.68387 32.1498 4.44269 32.5069 4.27355C32.8702 4.10442 33.3056 4.01985 33.813 4.01985C34.3267 4.01985 34.7621 4.10442 35.1191 4.27355C35.4825 4.44269 35.7644 4.68387 35.9648 4.99709C36.1653 5.3103 36.278 5.6893 36.3031 6.13406C36.3094 6.25309 36.3125 6.39403 36.3125 6.55691C36.3125 6.71352 36.3094 6.85446 36.3031 6.97975C36.278 7.41825 36.1684 7.79725 35.9742 8.11673C35.7863 8.42994 35.5107 8.67112 35.1473 8.84026C34.7903 9.0094 34.3455 9.09397 33.813 9.09397ZM33.813 7.94759C34.0949 7.94759 34.2985 7.86302 34.4238 7.69388C34.5554 7.52475 34.6305 7.27104 34.6493 6.93277C34.6556 6.8388 34.6587 6.71352 34.6587 6.55691C34.6587 6.4003 34.6556 6.27501 34.6493 6.18105C34.6305 5.84904 34.5554 5.59846 34.4238 5.42932C34.2985 5.25392 34.0949 5.16622 33.813 5.16622C33.5374 5.16622 33.3338 5.25392 33.2023 5.42932C33.0707 5.59846 32.9987 5.84904 32.9861 6.18105C32.9799 6.27501 32.9767 6.4003 32.9767 6.55691C32.9767 6.71352 32.9799 6.8388 32.9861 6.93277C32.9987 7.27104 33.0707 7.52475 33.2023 7.69388C33.3338 7.86302 33.5374 7.94759 33.813 7.94759ZM37.4716 9C37.4027 9 37.3463 8.97807 37.3024 8.93422C37.2586 8.89037 37.2367 8.83399 37.2367 8.76509V4.34873C37.2367 4.27982 37.2586 4.22344 37.3024 4.17959C37.3463 4.13574 37.4027 4.11381 37.4716 4.11381H38.5522C38.6211 4.11381 38.6775 4.13574 38.7213 4.17959C38.7652 4.22344 38.7871 4.27982 38.7871 4.34873V4.70579C38.95 4.5116 39.1629 4.34873 39.426 4.21717C39.6892 4.08562 39.9992 4.01985 40.3563 4.01985C40.7196 4.01985 41.0391 4.10128 41.3147 4.26416C41.5966 4.42703 41.8159 4.66821 41.9725 4.98769C42.1354 5.30091 42.2168 5.68616 42.2168 6.14346V8.76509C42.2168 8.83399 42.1918 8.89037 42.1416 8.93422C42.0978 8.97807 42.0445 9 41.9819 9H40.7979C40.7353 9 40.6789 8.97807 40.6288 8.93422C40.585 8.89037 40.563 8.83399 40.563 8.76509V6.19984C40.563 5.90541 40.491 5.6799 40.3469 5.52329C40.2091 5.36042 40.0024 5.27898 39.7267 5.27898C39.4699 5.27898 39.2632 5.36042 39.1066 5.52329C38.9562 5.6799 38.8811 5.90541 38.8811 6.19984V8.76509C38.8811 8.83399 38.856 8.89037 38.8059 8.93422C38.762 8.97807 38.7088 9 38.6461 9H37.4716ZM45.7191 9C45.3182 9 44.9705 8.93736 44.6761 8.81207C44.3879 8.68052 44.1655 8.48006 44.0089 8.21069C43.8523 7.93506 43.774 7.58113 43.774 7.14889V5.34476H43.0411C42.9722 5.34476 42.9126 5.32283 42.8625 5.27898C42.8187 5.23513 42.7968 5.17875 42.7968 5.10984V4.34873C42.7968 4.27982 42.8187 4.22344 42.8625 4.17959C42.9126 4.13574 42.9722 4.11381 43.0411 4.11381H43.774V2.56339C43.774 2.49448 43.7959 2.4381 43.8398 2.39425C43.8899 2.3504 43.9463 2.32848 44.0089 2.32848H45.0989C45.1678 2.32848 45.2242 2.3504 45.268 2.39425C45.3119 2.4381 45.3338 2.49448 45.3338 2.56339V4.11381H46.5084C46.5773 4.11381 46.6337 4.13574 46.6775 4.17959C46.7214 4.22344 46.7433 4.27982 46.7433 4.34873V5.10984C46.7433 5.17875 46.7214 5.23513 46.6775 5.27898C46.6337 5.32283 46.5773 5.34476 46.5084 5.34476H45.3338V7.01734C45.3338 7.23032 45.3745 7.39946 45.456 7.52475C45.5374 7.65003 45.6752 7.71268 45.8694 7.71268H46.5929C46.6619 7.71268 46.7182 7.7346 46.7621 7.77845C46.8059 7.8223 46.8279 7.87868 46.8279 7.94759V8.76509C46.8279 8.83399 46.8059 8.89037 46.7621 8.93422C46.7182 8.97807 46.6619 9 46.5929 9H45.7191ZM47.7853 6.85759C47.7164 6.85759 47.66 6.83567 47.6161 6.79182C47.5723 6.74797 47.5504 6.69159 47.5504 6.62268V5.73941C47.5504 5.6705 47.5723 5.61412 47.6161 5.57027C47.66 5.52642 47.7164 5.5045 47.7853 5.5045H50.7264C50.7953 5.5045 50.8517 5.52642 50.8955 5.57027C50.9394 5.61412 50.9613 5.6705 50.9613 5.73941V6.62268C50.9613 6.69159 50.9394 6.74797 50.8955 6.79182C50.8517 6.83567 50.7953 6.85759 50.7264 6.85759H47.7853ZM52.3579 9C52.289 9 52.2326 8.97807 52.1888 8.93422C52.1449 8.89037 52.123 8.83399 52.123 8.76509V2.65735C52.123 2.58845 52.1449 2.53207 52.1888 2.48822C52.2326 2.44437 52.289 2.42244 52.3579 2.42244H56.7461C56.815 2.42244 56.8714 2.44437 56.9152 2.48822C56.9591 2.53207 56.981 2.58845 56.981 2.65735V3.54063C56.981 3.60953 56.9591 3.66591 56.9152 3.70976C56.8714 3.75361 56.815 3.77554 56.7461 3.77554H53.7486V5.04407H56.5394C56.6083 5.04407 56.6647 5.06913 56.7085 5.11924C56.7524 5.16309 56.7743 5.21947 56.7743 5.28838V6.10587C56.7743 6.16852 56.7524 6.2249 56.7085 6.27501C56.6647 6.31886 56.6083 6.34079 56.5394 6.34079H53.7486V7.6469H56.8213C56.8902 7.6469 56.9466 7.66883 56.9904 7.71268C57.0343 7.75653 57.0562 7.81291 57.0562 7.88181V8.76509C57.0562 8.83399 57.0343 8.89037 56.9904 8.93422C56.9466 8.97807 56.8902 9 56.8213 9H52.3579ZM58.2559 9C58.1869 9 58.1306 8.97807 58.0867 8.93422C58.0429 8.89037 58.0209 8.83399 58.0209 8.76509V4.34873C58.0209 4.27982 58.0429 4.22344 58.0867 4.17959C58.1306 4.13574 58.1869 4.11381 58.2559 4.11381H59.3365C59.4054 4.11381 59.4617 4.13574 59.5056 4.17959C59.5494 4.22344 59.5714 4.27982 59.5714 4.34873V4.70579C59.7342 4.5116 59.9472 4.34873 60.2103 4.21717C60.4734 4.08562 60.7835 4.01985 61.1406 4.01985C61.5039 4.01985 61.8234 4.10128 62.099 4.26416C62.3809 4.42703 62.6002 4.66821 62.7568 4.98769C62.9197 5.30091 63.0011 5.68616 63.0011 6.14346V8.76509C63.0011 8.83399 62.976 8.89037 62.9259 8.93422C62.8821 8.97807 62.8288 9 62.7662 9H61.5822C61.5196 9 61.4632 8.97807 61.4131 8.93422C61.3692 8.89037 61.3473 8.83399 61.3473 8.76509V6.19984C61.3473 5.90541 61.2753 5.6799 61.1312 5.52329C60.9934 5.36042 60.7866 5.27898 60.511 5.27898C60.2542 5.27898 60.0475 5.36042 59.8908 5.52329C59.7405 5.6799 59.6653 5.90541 59.6653 6.19984V8.76509C59.6653 8.83399 59.6403 8.89037 59.5902 8.93422C59.5463 8.97807 59.4931 9 59.4304 9H58.2559ZM65.8727 9.09397C65.572 9.09397 65.2995 9.04698 65.0552 8.95302C64.8171 8.85279 64.6104 8.70871 64.435 8.52078C64.2659 8.32658 64.1343 8.0948 64.0404 7.82544C63.9464 7.5498 63.8931 7.23659 63.8806 6.88578C63.8744 6.7605 63.8712 6.65087 63.8712 6.55691C63.8712 6.45668 63.8744 6.34705 63.8806 6.22803C63.8931 5.88975 63.9464 5.58593 64.0404 5.31657C64.1343 5.0472 64.2659 4.81542 64.435 4.62122C64.6041 4.42703 64.8109 4.27982 65.0552 4.17959C65.2995 4.07309 65.572 4.01985 65.8727 4.01985C66.1859 4.01985 66.4553 4.07309 66.6808 4.17959C66.9063 4.27982 67.0974 4.41137 67.254 4.57424V2.56339C67.254 2.49448 67.2759 2.4381 67.3197 2.39425C67.3636 2.3504 67.42 2.32848 67.4889 2.32848H68.6353C68.6979 2.32848 68.7511 2.3504 68.795 2.39425C68.8451 2.4381 68.8702 2.49448 68.8702 2.56339V8.76509C68.8702 8.83399 68.8451 8.89037 68.795 8.93422C68.7511 8.97807 68.6979 9 68.6353 9H67.5734C67.5045 9 67.4482 8.97807 67.4043 8.93422C67.3605 8.89037 67.3385 8.83399 67.3385 8.76509V8.4644C67.1882 8.64606 66.994 8.79641 66.756 8.91543C66.5179 9.03445 66.2235 9.09397 65.8727 9.09397ZM66.3801 7.83483C66.5931 7.83483 66.7591 7.79098 66.8781 7.70328C67.0034 7.60932 67.0942 7.49029 67.1506 7.34621C67.2132 7.20213 67.2477 7.04553 67.254 6.87639C67.2602 6.7511 67.2634 6.63208 67.2634 6.51932C67.2634 6.40656 67.2602 6.29067 67.254 6.17165C67.2477 6.01504 67.2132 5.87096 67.1506 5.73941C67.088 5.60159 66.994 5.49197 66.8687 5.41053C66.7434 5.32283 66.5805 5.27898 66.3801 5.27898C66.1734 5.27898 66.0074 5.32283 65.8821 5.41053C65.7631 5.49823 65.6785 5.61726 65.6284 5.7676C65.5783 5.91794 65.5469 6.08395 65.5344 6.26561C65.5156 6.45981 65.5156 6.654 65.5344 6.8482C65.5469 7.02986 65.5783 7.19587 65.6284 7.34621C65.6785 7.49656 65.7631 7.61558 65.8821 7.70328C66.0074 7.79098 66.1734 7.83483 66.3801 7.83483Z" fill="#0B132A"/>
<path fill-rule="evenodd" clip-rule="evenodd" d="M9.82837 2H3C2.44772 2 2 2.44772 2 3V10C2 10.5523 2.44772 11 3 11H10C10.5523 11 11 10.5523 11 10V3.6568L12.7819 1.8749C12.9225 2.22234 13 2.60213 13 3V10C13 11.6569 11.6569 13 10 13H3C1.34315 13 0 11.6569 0 10V3C0 1.34315 1.34315 0 3 0H10C10.5273 0 11.0228 0.136046 11.4534 0.374952L9.82837 2Z" fill="#F53838"/>
</svg>
