<svg width="80" height="80" viewBox="0 0 80 80" fill="none" xmlns="http://www.w3.org/2000/svg">
<rect width="80" height="80" rx="40" fill="#040422"/>
<path fill-rule="evenodd" clip-rule="evenodd" d="M49.7996 22.0108L49.7942 22.0161L49.7954 22.194H49.9719L49.9773 22.1886L49.9826 22.194L49.988 22.1994L49.9826 22.2048L49.9896 32.2078L52.4604 32.2042L52.4546 23.7945L52.5065 23.7945V23.7422H52.5584L52.6419 23.6581V23.6185H52.6813L52.6937 23.6059L52.6936 23.5662L52.7333 23.566L54.0955 22.194H54.1068L54.2814 22.018L58.7581 22.0054L58.7634 22L58.7688 22.0054L58.7741 22.0108L58.7688 22.0162L58.7694 22.194H58.9466L58.9519 22.1886L58.9573 22.194L58.9626 22.1994L58.9573 22.2048L58.9697 32.3903L58.975 32.3957L57.4326 33.9493L57.4327 33.9908H57.3915L57.3861 33.9962L57.3808 33.9908V34.0431H57.3271L57.233 34.1379V34.1794H57.1918L57.1865 34.1848L57.1811 34.1794L57.1812 34.2317L54.4783 34.2354L54.4823 40.1281L58.7581 40.1162L58.7634 40.1107L58.7688 40.1161L58.7741 40.1215L58.7688 40.1269L58.7694 40.3053L58.9465 40.3048L58.9519 40.2993L58.9573 40.3047L58.9626 40.3101L58.9573 40.3155L58.9697 43.6993L58.975 43.7047L57.4325 45.2572L57.4327 45.2984L57.3915 45.2985L57.3861 45.3039L57.3808 45.2985L57.3811 45.3508L57.0067 45.3533L57.0063 45.301L56.9544 45.3012L56.9429 42.1467L54.4773 42.1536L54.4834 43.7002L54.4878 43.7047L54.4834 43.7091L54.5004 48.0424L58.7581 48.0305L58.7634 48.0251L58.7688 48.0305L58.7741 48.0359L58.7688 48.0413L58.7694 48.2191L58.9465 48.2179L58.9519 48.2125L58.9573 48.2179L58.9626 48.2233L58.9573 48.2286L58.9947 56.151L59 56.1565L57.4575 57.7103L57.4576 57.7513L57.4165 57.7515L57.4111 57.7569L57.4057 57.7515L57.4061 57.8038L57.3278 57.8044L57.233 57.9V57.9414H57.1918L57.1865 57.9468L57.1811 57.9414L57.1812 57.9937L52.6938 58L52.6937 57.9477H52.6419V57.8057L52.5381 57.8064L52.5378 57.7541L52.4859 57.7546L52.4546 54.36L52.5065 54.3595L52.5062 54.3072L52.5588 54.3068L54.0955 52.7603L54.4592 52.7566L54.4646 52.7511L54.47 52.7565L54.4753 52.7619L54.4701 52.7672L54.4995 55.9697L56.971 55.9662L56.9431 50.0611L52.6939 50.073L52.6937 50.0207H52.6419V49.885L52.5381 49.8857L52.5378 49.8334L52.4859 49.8336L52.4681 45.3012H52.4672L52.4555 42.1467L49.9841 42.1536L49.9952 56.1523L50.0005 56.1577L48.458 57.7114V57.7528H48.4169L48.4116 57.7582L48.4061 57.7528L48.4062 57.8051H48.3525L48.2583 57.9V57.9414H48.2172L48.2118 57.9468L48.2065 57.9414L48.2065 57.9937L43.7068 58V57.9937L39.2132 58L39.2132 57.9477H39.1613V57.8056L39.0513 57.8064L39.051 57.7541L38.9991 57.7545L38.974 54.3599L39.0259 54.3595L39.0256 54.3072L39.0782 54.3068L40.615 52.7591L40.9786 52.7566L40.9841 52.7511L40.9894 52.7565L40.9948 52.7619L40.9895 52.7672L41.013 55.9697L43.5014 55.9662L43.4689 50.0734L39.2132 50.0793L39.2132 50.027H39.1613V49.8844H39.051V49.8321L38.9991 49.8323L38.974 41.9053L39.0259 41.9052V41.8529H39.0779L39.1613 41.769V41.7292L39.2008 41.7291L39.2132 41.7167L39.213 41.6768L39.253 41.6767L40.615 40.3059H40.625L40.8009 40.1287L43.4732 40.1213L43.4676 24.036L40.9927 24.0429L41.0143 36.0049L41.0197 36.0103L39.4772 37.564L39.4773 37.6052L39.4361 37.6053L39.4307 37.6108L39.4254 37.6054V37.6577H39.051V37.6054L38.9991 37.6055L38.9745 24.036L36.4909 24.043L36.5021 40.3048L36.5074 40.3101L36.4897 40.328L36.5021 43.6993L36.5074 43.7047L34.9649 45.2572L34.965 45.2984L34.9238 45.2985L34.9185 45.3039L34.9131 45.2985L34.9135 45.3508L34.539 45.3533L34.5387 45.301L34.4868 45.3012L34.4752 42.1467L32.0053 42.1536L32.0145 48.0491L36.2917 48.0431L36.297 48.0376L36.3024 48.043L36.3077 48.0484L36.3024 48.0538V48.2317L36.4789 48.2305L36.4843 48.225L36.4897 48.2304L36.495 48.2358L36.4897 48.2411L36.5271 56.1511L36.5325 56.1565L34.9898 57.7103L34.99 57.7513L34.9489 57.7515L34.9435 57.7569L34.9381 57.7515L34.9385 57.8038L34.8603 57.8044L34.7654 57.9V57.9414H34.7242L34.7188 57.9468L34.7135 57.9414L34.7136 57.9937L30.2262 58V57.9477H30.1743V57.8055L30.0517 57.8064L30.0514 57.7541L29.9995 57.7543L29.9871 54.3597L30.0389 54.3595L30.0386 54.3072L30.0912 54.3068L31.6279 52.7591L31.9916 52.7578L31.997 52.7524L32.0024 52.7578L32.0077 52.7631L32.0024 52.7685L32.0141 55.9697L34.5034 55.9662L34.4755 50.0734L30.2262 50.0793V50.027H30.1743V49.8844H30.0514V49.8321L29.9995 49.8322L29.9871 41.9052L30.0389 41.9052H29.9995L29.9872 24.036L27.5157 24.0429L27.5213 40.3048L27.5267 40.3101L27.5204 40.3164L27.5213 40.3173L27.5267 40.3227L27.5213 40.3281L27.5151 45.7172L27.5204 45.7226L25.978 47.2761L25.978 47.3177H25.9368L25.9315 47.323L25.9261 47.3176L25.9261 47.37H25.5516V47.3176H25.4998L25.5057 42.1467L23.0168 42.1536L23.0276 55.9697L25.504 55.9663L25.4998 52.1896H25.5516V52.1372H25.6036L27.1406 50.589H27.5044L27.5097 50.5836L27.5151 50.589L27.5204 50.5944L27.5151 50.5998L27.5213 56.1524L27.5267 56.1577L25.9842 57.7114L25.9842 57.7528L25.9431 57.7528L25.9377 57.7582L25.9346 57.7551L25.9323 57.7573L25.9323 57.8051H25.8849L25.7908 57.9V57.9414H25.7496L25.7442 57.9468L25.7389 57.9414L25.7389 57.9937L21.2517 58L21.2516 57.9477H21.1997V57.8051H21.0644V57.7528L21.0125 57.7529L21 41.9052L21.0125 41.9052L21 23.7945L21.0519 23.7945V23.7422H21.1038L22.6408 22.194H23.0046L23.01 22.1886L23.0153 22.194L23.0207 22.1994L23.0153 22.2048L23.0222 32.2078L25.5027 32.2042L25.4998 23.7945L25.5516 23.7945V23.7422H25.6036L25.687 23.6581V23.6185H25.7264L25.7388 23.6059L25.7387 23.5662L25.7784 23.566L27.1406 22.194H27.152L27.3266 22.018L31.8031 22.0054L31.8085 22L31.8138 22.0054L31.8192 22.0108L31.8139 22.0161V22.018L36.2905 22.0054L36.2958 22L36.3012 22.0054L36.3065 22.0108L36.3013 22.0161V22.018L40.7902 22.0054L40.7955 22L40.8009 22.0054L40.8062 22.0108L40.8009 22.0161V22.018L45.2837 22.0054L45.289 22L45.2944 22.0054L45.2997 22.0108L45.2945 22.0161V22.0305L49.7834 22.0055L49.7889 22L49.7942 22.0054L49.7996 22.0108ZM47.9676 42.1467L47.9784 55.9663L45.5256 55.9697L45.483 48.2411L45.4883 48.2358L45.4829 48.2304L45.4776 48.225L45.4722 48.2305L45.2957 48.2317V48.0538L45.301 48.0484L45.2957 48.043L45.2903 48.0376L45.285 48.0431L41.0137 48.0491L40.9953 42.1536L43.468 42.1467L43.4739 45.2999L43.5258 45.2998V45.3521H43.9002V45.2998L43.9055 45.3052L43.9109 45.2997H43.9521L43.952 45.2583L45.4945 43.7047L45.4891 43.6993L45.4863 42.1536L47.9676 42.1467ZM52.4619 34.232L52.4659 40.1212L49.995 40.1281L49.991 34.2354L52.4619 34.232ZM34.4745 24.036L34.4856 40.1212L32.0147 40.1281L32.0037 24.0429L34.4745 24.036ZM23.0277 40.1281L25.5054 40.1212L25.5034 34.232L23.0236 34.2355L23.0277 40.1281ZM45.489 40.1281L47.9786 40.1212L47.9745 34.232L45.4871 34.2355L45.489 40.1281ZM47.9676 24.0367L47.9732 32.2042L45.4863 32.2078L45.4836 24.0506L47.9676 24.0367ZM56.9423 24.036L54.4713 24.0429L54.4769 32.2078L56.9523 32.2042L56.9423 24.036Z" fill="#79F3F9"/>
</svg>
