<svg width="172" height="159" viewBox="0 0 172 159" fill="none" xmlns="http://www.w3.org/2000/svg">
<path d="M149.5 151.5C163 149.326 154.5 121 151 112.5L145.192 115.056C140.749 117.01 136.073 118.383 131.279 119.14L129 119.5L130.916 133.045L96.7881 141.035L92.0001 154.317C95.4104 153.737 121.777 155.964 149.5 151.5Z" fill="url(#paint0_linear_792_7)"/>
<path d="M49.4796 85.0311C54.7449 81.3747 75.5498 74.7886 84.6867 71.9526L94.3537 73.0072C100.444 74.5172 112.65 77.6862 119 79C133.5 82 143 96.5 155.5 122L150.92 124.283C145.711 126.88 139.97 128.232 134.15 128.232H131.5C125.5 128 125 127.5 127 135.5L54.9869 158.136L51.75 128.232L37.1906 129.792L24.8923 120.368C40.2918 93.7319 42.8981 89.6015 49.4796 85.0311Z" fill="url(#paint1_linear_792_7)"/>
<path d="M29.2527 153.745C6.85122 150.905 21.421 128.2 25.3928 120.702C30.1967 124.746 36.1288 127.213 42.3835 127.769L50.1032 128.455L46.9421 135.747L81.07 143.737L85.8579 157.019C82.4476 156.439 57.1101 157.277 29.2527 153.745Z" fill="url(#paint2_linear_792_7)"/>
<ellipse cx="88.9069" cy="80.6482" rx="12.2025" ry="8.69561" fill="#CF0606"/>
<path d="M78.9084 80.181L80.6142 63.1974H97.2202L99.1277 80.181C98.461 82.1811 95.3133 86.2385 89.4842 86.2385C82.0551 86.2385 79.3847 82.1811 78.9084 80.181Z" fill="url(#paint3_linear_792_7)"/>
<mask id="mask0_792_7" style="mask-type:alpha" maskUnits="userSpaceOnUse" x="78" y="63" width="22" height="24">
<path d="M78.9084 80.181L80.6142 63.1974H97.2202L99.1312 80.2154C98.4645 82.2155 95.3061 86.239 89.4771 86.239C82.0479 86.239 79.3847 82.1811 78.9084 80.181Z" fill="url(#paint4_linear_792_7)"/>
</mask>
<g mask="url(#mask0_792_7)">
<path opacity="0.1" d="M103.205 63.8473C88.1894 82.4255 79.7987 67.4879 75.4646 65.2471L78.4428 52.6876L96.2218 50.5647L103.205 63.8473Z" fill="black"/>
</g>
<path d="M88.6187 70.0152C70.7102 70.0152 67.6307 44.309 73.1638 32.5509C85.6135 17.3346 101.176 26.2108 107.401 32.5509C108.899 42.3493 110.552 70.0152 88.6187 70.0152Z" fill="url(#paint5_linear_792_7)"/>
<path d="M107.707 50.3495L104.198 47.7647L104.741 45.8406L108.748 48.483L107.707 50.3495Z" fill="#30235B"/>
<path d="M71.1517 49.6L74.6601 47.0152L74.1174 45.0911L70.1101 47.7335L71.1517 49.6Z" fill="#30235B"/>
<path d="M74.3625 34.0959C87.059 42.3679 101.134 37.5425 106.585 34.0959C105.437 37.7155 107.063 44.6729 108.019 47.6991C116.28 36.9408 113.58 31.1314 111.197 29.5714C110.799 24.2096 105.925 10.8035 89.5615 11.4389C73.1978 12.0744 70.0226 23.68 70.486 27.9827C64.29 36.4029 67.9765 44.6354 70.9647 47.6991C74.3625 41.1027 74.285 36.4752 74.3625 34.0959Z" fill="#6B5A50"/>
<g filter="url(#filter0_d_792_7)">
<path d="M90.8626 19.7176C71.9082 19.0832 67.6863 31.5482 67.1197 38.7867C67.0744 39.3662 66.6002 39.8227 66.0189 39.8227C65.3986 39.8227 64.9044 39.3054 64.9594 38.6876C65.7865 29.4066 70.7347 13.1888 90.8626 14.307C111.185 15.436 115.161 31.6147 114.537 40.6333C114.504 41.1158 114.096 41.4806 113.613 41.4806C113.085 41.4806 112.661 41.0526 112.64 40.5253C112.342 33.0424 107.367 20.196 90.8626 19.7176Z" fill="white"/>
</g>
<g filter="url(#filter1_d_792_7)">
<rect x="114.916" y="44.4404" width="2.57263" height="9.87247" rx="1.28631" transform="rotate(10.0542 114.916 44.4404)" fill="#24C28A"/>
</g>
<g filter="url(#filter2_d_792_7)">
<rect x="109.39" y="38.04" width="7.92444" height="20.5658" rx="3.96222" transform="rotate(10.0542 109.39 38.04)" fill="white"/>
</g>
<g filter="url(#filter3_d_792_7)">
<rect width="2.57263" height="9.87247" rx="1.28631" transform="matrix(-0.984643 0.17458 0.17458 0.984643 63.7476 44.4404)" fill="#24C28A"/>
</g>
<g filter="url(#filter4_d_792_7)">
<rect width="7.92444" height="20.5658" rx="3.96222" transform="matrix(-0.984643 0.17458 0.17458 0.984643 69.2024 38.04)" fill="white"/>
</g>
<mask id="mask1_792_7" style="mask-type:alpha" maskUnits="userSpaceOnUse" x="62" y="38" width="11" height="22">
<rect width="7.92444" height="20.5658" rx="3.96222" transform="matrix(-0.984643 0.17458 0.17458 0.984643 69.2026 38.04)" fill="white"/>
</mask>
<g mask="url(#mask1_792_7)">
<rect x="65.4709" y="38.04" width="10.3079" height="22.3246" transform="rotate(-10.0977 65.4709 38.04)" fill="#E8E8E8"/>
</g>
<path d="M102.5 44.5C101.416 43.5909 96.7545 41.8575 94 42.5" stroke="#6B5A50" stroke-linecap="round"/>
<path d="M75.9955 44.5C77.0789 43.5909 81.7409 41.8575 84.4954 42.5" stroke="#6B5A50" stroke-linecap="round"/>
<mask id="mask2_792_7" style="mask-type:alpha" maskUnits="userSpaceOnUse" x="106" y="38" width="11" height="22">
<rect x="109.39" y="38.04" width="7.92444" height="20.5658" rx="3.96222" transform="rotate(10.0542 109.39 38.04)" fill="white"/>
</mask>
<g mask="url(#mask2_792_7)">
<rect width="10.3079" height="22.3246" transform="matrix(-0.98451 -0.175326 -0.175326 0.98451 113.602 38.04)" fill="#E8E8E8"/>
</g>
<path opacity="0.5" d="M80.902 53.3522C78.3684 53.3522 77.0926 51.3555 76.7684 50.4639C76.3955 49.7183 76.1011 47.7755 76.9838 46.2324C78.1063 44.2703 83.3822 43.7232 85.2302 46.4952C87.0782 49.2671 85.2302 53.3522 80.902 53.3522Z" fill="#E6FCFF"/>
<path opacity="0.5" d="M97.6896 53.3522C100.223 53.3522 101.499 51.3555 101.823 50.4639C102.196 49.7183 102.49 47.7755 101.608 46.2324C100.485 44.2703 95.2094 43.7232 93.3614 46.4952C91.5134 49.2671 93.3614 53.3522 97.6896 53.3522Z" fill="#E6FCFF"/>
<path fill-rule="evenodd" clip-rule="evenodd" d="M86.5389 45.8845C82.4071 42.2558 78.6749 43.7911 76.4634 44.7009L76.4634 44.7009C76.2175 44.8021 75.9903 44.8955 75.7836 44.9732L74.3989 44.9758C74.1381 44.9763 73.9276 45.189 73.93 45.4498L73.9403 46.6138C73.9426 46.8716 74.1522 47.0795 74.4101 47.0795L75.4112 47.0795C74.6862 53.3051 79.2772 54.9711 82.949 53.8489C86.2225 52.8485 87.0989 50.0177 87.2739 48.2418C87.9743 46.6902 91.0442 47.4071 91.1657 48.2073L91.1751 48.2702C91.3192 49.2446 92.0451 54.1535 97.5717 54.1604C102.099 54.166 103.326 50.1219 103.374 48.0991L104.546 48.0887C104.806 48.0864 105.014 47.8742 105.012 47.6148L104.999 46.1907C104.997 45.9312 104.785 45.7227 104.525 45.725L103.353 45.7354C100.405 42.7482 94.0705 43.028 91.8396 45.8375C89.3781 45.2698 87.2802 45.6323 86.5389 45.8845ZM80.9021 53.3522C78.3685 53.3522 77.0927 51.3555 76.7685 50.4639C76.3956 49.7182 76.1012 47.7755 76.984 46.2324C78.1064 44.2703 83.3823 43.7232 85.2303 46.4951C87.0783 49.2671 85.2303 53.3522 80.9021 53.3522ZM101.823 50.4639C101.499 51.3555 100.223 53.3522 97.6898 53.3522C93.3616 53.3522 91.5136 49.2671 93.3616 46.4951C95.2096 43.7231 100.485 44.2703 101.608 46.2324C102.491 47.7755 102.196 49.7182 101.823 50.4639Z" fill="#362B5E"/>
<path d="M53.489 155.671C53.489 155.41 53.7003 155.199 53.961 155.199H126.498C126.954 155.199 127.324 155.569 127.324 156.025C127.324 157.393 126.215 158.503 124.846 158.503H56.3209C54.7569 158.503 53.489 157.235 53.489 155.671Z" fill="#B4B4B4"/>
<rect x="53.4893" y="107.025" width="73.8352" height="49.4006" rx="1.38442" fill="url(#paint6_linear_792_7)"/>
<circle cx="90.4065" cy="131.725" r="5.25099" fill="white"/>
<path d="M50.4987 13.9907C50.3277 13.8265 50.1368 13.6685 49.923 13.5184C48.5348 12.5439 46.2413 12.3494 44.3492 13.0461C43.0778 13.5136 42.1538 14.3125 41.6884 15.3303C39.9213 15.271 38.3251 16.0979 37.3105 17.2111C36.5032 18.0966 36.0457 19.1365 35.957 20.1803C35.6147 19.8926 35.3427 19.348 35.3657 18.7036C35.3896 18.3133 35.0943 17.9759 34.7062 17.9503C34.3176 17.9245 33.984 18.2203 33.9602 18.6106C33.9067 19.4858 34.1964 20.3469 34.755 20.9735C35.1296 21.3935 35.6049 21.6827 36.1282 21.8155C36.236 22.1694 36.3907 22.5139 36.5932 22.8425C37.3337 24.0444 38.5578 24.8165 40.0401 25.0164C40.4953 25.0778 40.9666 25.0846 41.4492 25.0378C42.2749 26.1117 44.1256 26.5343 45.6944 26.0276C46.9922 25.6211 47.9695 24.6756 48.4701 23.3296C48.6507 22.8442 48.6341 22.2964 48.5077 21.7476C49.4943 22.1495 50.5843 22.4838 51.8243 22.5236C53.0152 22.5616 54.176 22.2186 55.1821 21.5905C56.7065 21.8241 58.2972 21.3925 59.5673 20.3964C60.8664 19.3776 61.6429 17.9215 61.7541 16.2961C61.8714 14.5803 60.8717 12.8132 59.2667 11.8987C58.638 11.5406 57.6452 11.1646 56.3131 11.2379C55.7857 10.7169 55.1618 10.2385 54.4465 9.81333C54.1113 9.6139 53.6798 9.72528 53.483 10.0618C53.2863 10.3983 53.3988 10.8328 53.7341 11.0323C54.0233 11.2042 54.2943 11.385 54.5463 11.5735C53.6303 11.865 52.6065 12.3653 51.4799 13.1618C51.1211 13.4152 50.7964 13.6933 50.4987 13.9907ZM38.3501 18.1711C39.0311 17.4242 40.0575 16.8473 41.2113 16.7599C40.3818 18.9492 38.7694 20.2012 37.3462 20.4403C37.3849 19.5635 37.8174 18.7553 38.3501 18.1711ZM40.4006 22.3101C40.4012 22.757 40.487 23.2134 40.6464 23.6529C39.2406 23.5591 38.1967 22.9405 37.6401 21.83C38.5855 21.6615 39.5269 21.1909 40.3644 20.4568C41.3959 19.5528 42.1798 18.3367 42.6539 16.9129C42.9057 16.9869 43.159 17.087 43.4124 17.2163C44.0079 17.5202 44.7224 18.1803 45.3698 18.9568C44.0437 18.652 42.6689 18.8232 41.2116 20.2622C40.6799 20.7874 40.3994 21.4956 40.4006 22.3101ZM42.1095 23.4974C41.9175 23.1135 41.8093 22.7016 41.8087 22.314C41.8081 21.882 41.9398 21.5326 42.2001 21.2755C43.5992 19.8942 44.7568 20.1027 46.2775 20.7527C45.7425 21.4855 45.116 22.12 44.3063 22.5877C43.523 23.0401 42.7882 23.3342 42.1095 23.4974ZM47.1511 22.8281C46.6672 24.1296 45.7109 24.5906 44.9946 24.7479C44.3264 24.8947 43.6866 24.8183 43.2278 24.6403C43.8173 24.4369 44.4145 24.1618 45.0112 23.8172C45.8722 23.3199 46.5532 22.683 47.1266 21.9694C47.2171 22.3116 47.233 22.6079 47.1511 22.8281ZM47.2717 19.1422C47.267 19.1352 47.2622 19.1282 47.2575 19.1212C46.2901 17.6991 45.0292 16.4557 44.0451 15.9534C43.7499 15.8027 43.4544 15.6816 43.1606 15.5875C43.6186 14.9153 44.3638 14.5512 44.8376 14.3769C46.3027 13.8379 48.1038 13.9653 49.1205 14.679C49.2945 14.8011 49.4471 14.9303 49.5821 15.0661C48.9017 15.9936 48.3733 17.0207 47.8551 18.0282C47.661 18.4059 47.4691 18.7789 47.2717 19.1422ZM51.863 21.1074C50.5576 21.0656 49.4216 20.6238 48.3369 20.1352C48.6059 19.6563 48.8572 19.1679 49.1062 18.6836C49.5225 17.8744 49.9275 17.0867 50.397 16.3702C50.5318 16.7118 50.6402 17.0749 50.7542 17.4559C51.1301 18.7146 51.5444 20.1011 53.1462 20.9487C52.7281 21.0653 52.2963 21.1214 51.863 21.1074ZM57.4904 12.7248C57.875 12.8029 58.2384 12.9379 58.5766 13.1306C59.8872 13.8774 60.4142 15.2414 60.3492 16.1928C60.2658 17.4126 59.6796 18.5081 58.6986 19.2775C58.1318 19.722 57.4842 20.0194 56.8152 20.1536C57.405 19.4372 57.8615 18.5884 58.129 17.6501C58.6229 15.9177 58.3819 14.2162 57.4904 12.7248ZM55.7746 12.7268C56.8768 14.0538 57.2401 15.6237 56.7752 17.254C56.4483 18.401 55.7459 19.3917 54.8522 20.0816C52.8626 19.5977 52.5393 18.5153 52.1026 17.0534C51.9167 16.4307 51.7175 15.7644 51.3661 15.1278C51.6461 14.8332 51.9522 14.5628 52.2928 14.322C53.5174 13.4561 54.696 12.9211 55.7746 12.7268Z" fill="#9A9A9A"/>
<path d="M21.6371 67.1396V68.1951C21.6371 68.4865 21.8733 68.7228 22.1648 68.7228H24.2756C24.8578 68.7245 25.3293 69.1961 25.3311 69.7782C25.3268 70.3593 24.8568 70.8294 24.2756 70.8337H22.1648C21.8733 70.8337 21.6371 71.0699 21.6371 71.3614V72.4168C21.6307 72.5832 21.5563 72.7396 21.4312 72.8496C20.8106 73.515 18.7737 74.0037 16.3599 74C13.9461 73.9963 11.9091 73.515 11.2885 72.8511C11.1631 72.7408 11.0887 72.5837 11.0827 72.4168V71.3614C11.0827 71.0699 10.8464 70.8337 10.555 70.8337H8.44411C7.86193 70.8319 7.39041 70.3604 7.38867 69.7782C7.39298 69.1971 7.863 68.7271 8.44411 68.7228H10.555C10.8464 68.7228 11.0827 68.4865 11.0827 68.1951V67.1396H21.6371Z" fill="#F9EAB0"/>
<path d="M21.4838 66.7596C21.5783 66.8641 21.6326 66.9988 21.6369 67.1396C21.6369 68.0156 19.2727 68.7228 16.3597 68.7228C13.4467 68.7228 11.0825 68.0156 11.0825 67.1396C11.0825 66.5855 12.0219 66.1 13.452 65.8203L21.4838 66.7596Z" fill="#FAC176"/>
<path d="M22.9456 61.282L22.7034 62.3095C22.6374 62.5926 22.8127 62.8757 23.0955 62.9428L25.1499 63.4272C25.7161 63.5627 26.0669 64.1298 25.9351 64.6969C25.7977 65.2617 25.2321 65.6112 24.6655 65.4816L22.611 64.9972C22.328 64.9312 22.0449 65.1065 21.9778 65.3893L21.735 66.4178C21.6907 66.5784 21.5823 66.7137 21.4353 66.7919C20.6791 67.2959 18.5856 67.3038 16.2357 66.7455C13.8852 66.1951 12.0139 65.2515 11.5638 64.4626C11.4672 64.3271 11.4307 64.1578 11.463 63.9945L11.7052 62.966C11.7712 62.6829 11.5959 62.3998 11.3131 62.3327L9.25873 61.8478C8.69256 61.7125 8.34178 61.1456 8.47348 60.5786C8.61095 60.0138 9.17646 59.6641 9.74317 59.7934L11.7976 60.2783C12.0808 60.3443 12.364 60.1687 12.4308 59.8857L12.6731 58.8588L22.9456 61.282Z" fill="#F9EAB0"/>
<path d="M22.8823 60.8809C22.9534 61.0018 22.9761 61.1451 22.9456 61.282C22.7451 62.1316 20.2807 62.2794 17.4468 61.6092C14.613 60.939 12.4704 59.7094 12.671 58.8545C12.8029 58.3057 13.8794 58.0471 15.394 58.1157L22.8823 60.8809Z" fill="#FAC176"/>
<path d="M25.6902 55.7842L25.2311 56.7341C25.1044 56.9963 25.214 57.3116 25.476 57.4386L27.3758 58.3579C27.8992 58.6131 28.1184 59.2429 27.8666 59.768C27.6095 60.2893 26.9815 60.5076 26.4565 60.2582L24.5567 59.3389C24.4307 59.2779 24.2856 59.2695 24.1533 59.3155C24.0211 59.3616 23.9126 59.4582 23.8517 59.5843L23.3915 60.5342C23.3133 60.6811 23.1782 60.7894 23.0179 60.8339C22.1698 61.1617 20.1233 60.7147 17.9518 59.6603C15.7802 58.6059 14.1559 57.2856 13.8884 56.4175C13.8235 56.2641 13.8246 56.0908 13.8915 55.9383L14.3517 54.9884C14.4127 54.8624 14.4211 54.7173 14.3751 54.5851C14.3291 54.4528 14.2324 54.3443 14.1063 54.2834L12.2065 53.3646C11.6831 53.1094 11.4639 52.4796 11.7157 51.9546C11.9737 51.4349 12.6006 51.2177 13.1248 51.4664L15.0245 52.3857C15.2868 52.5124 15.6022 52.4025 15.729 52.1403L16.1887 51.1904L25.6902 55.7842Z" fill="#F9EAB0"/>
<path d="M25.6951 55.3082C25.7546 55.4613 25.7527 55.6314 25.6898 55.7832C25.3098 56.5695 22.8718 56.1789 20.249 54.9124C17.6263 53.6459 15.8109 51.973 16.1909 51.1867C16.4653 50.6221 17.7951 50.6643 19.4944 51.2026L25.6951 55.3082Z" fill="#FAC176"/>
<path d="M29.6112 51.1419L28.9162 51.9366C28.8245 52.0423 28.7785 52.1802 28.7884 52.3199C28.7983 52.4595 28.8632 52.5895 28.969 52.6812L30.5553 54.0707C30.9928 54.455 31.0376 55.1205 30.6556 55.5599C30.27 55.9948 29.6066 56.0392 29.1664 55.6597L27.5769 54.2707C27.3576 54.0788 27.0242 54.101 26.8323 54.3203L26.1367 55.1161C26.0224 55.2371 25.8636 55.3059 25.6972 55.3066C24.7926 55.3979 22.9377 54.4259 21.1229 52.8337C19.3081 51.2416 18.0912 49.5397 18.0621 48.631C18.0402 48.4659 18.0871 48.2991 18.192 48.1698L18.8875 47.374C19.0793 47.1545 19.0568 46.8211 18.8374 46.6294L17.2468 45.2394C16.8097 44.8548 16.7652 44.1895 17.1471 43.7501C17.5324 43.3149 18.1961 43.2702 18.6363 43.6499L20.2253 45.0393C20.331 45.1313 20.469 45.1774 20.6088 45.1675C20.7485 45.1576 20.8786 45.0925 20.9704 44.9866L21.6649 44.1918L29.6112 51.1419Z" fill="#F9EAB0"/>
<path d="M29.6083 51.1369C30.1836 50.4785 28.8709 48.3902 26.6763 46.4724C24.4817 44.5547 22.2362 43.5338 21.6609 44.1922C21.0855 44.8505 22.3982 46.9389 24.5929 48.8567C26.7875 50.7744 29.033 51.7953 29.6083 51.1369Z" fill="#FAC176"/>
<path d="M0.528198 58.397C0.276842 58.3972 0.0602264 58.22 0.0104876 57.9737C-0.0392512 57.7273 0.0916927 57.48 0.323444 57.3827C3.81189 55.9083 5.4486 51.8885 3.98211 48.3967C3.90511 48.2222 3.92822 48.0198 4.04255 47.8672C4.15688 47.7146 4.34465 47.6355 4.53372 47.6604C4.72278 47.6853 4.88372 47.8102 4.9547 47.9872C5.77553 49.9207 5.78864 52.1022 4.99111 54.0454C4.2044 55.9931 2.67105 57.5451 0.732953 58.3553C0.668162 58.3827 0.598546 58.3968 0.528198 58.397Z" fill="#E64C3C"/>
<path d="M1.34314 60.3416C1.09362 60.3397 0.879515 60.1633 0.829917 59.9188C0.780319 59.6742 0.908784 59.4284 1.13786 59.3294C5.69891 57.4026 7.84031 52.1479 5.92531 47.5819C5.81238 47.3132 5.93866 47.0038 6.20738 46.8908C6.4761 46.7779 6.78549 46.9042 6.89843 47.1729C9.0368 52.2754 6.64389 58.1461 1.54789 60.2999C1.48315 60.3274 1.4135 60.3416 1.34314 60.3416Z" fill="#E64C3C"/>
<path d="M2.16418 62.2846C1.91283 62.2848 1.69621 62.1077 1.64647 61.8613C1.59674 61.615 1.72768 61.3677 1.95943 61.2704C7.58984 58.8889 10.2333 52.4019 7.87093 46.7634C7.79393 46.5889 7.81703 46.3865 7.93136 46.2339C8.0457 46.0813 8.23347 46.0022 8.42253 46.0271C8.61159 46.052 8.77253 46.1769 8.84351 46.3539C11.4324 52.5307 8.53547 59.6376 2.3663 62.2445C2.30228 62.2712 2.23356 62.2849 2.16418 62.2846Z" fill="#E64C3C"/>
<path d="M145.945 66.4507C145.837 66.7522 146.024 67.6037 146.499 68.6726C147.464 70.842 159.827 75.2534 161.948 74.185C162.992 73.6586 163.676 73.1175 163.784 72.8161C163.891 72.5147 163.705 71.6631 163.229 70.5942C162.264 68.4249 149.901 64.0134 147.781 65.0818C146.736 65.6082 146.052 66.1493 145.945 66.4507V66.4507Z" fill="#FCB2B8"/>
<path d="M147.781 65.0818C149.901 64.0133 153.509 63.0052 156.809 64.1827C160.109 65.3602 162.264 68.4248 163.229 70.5942C163.157 71.2187 163.013 71.845 162.793 72.4624C162.572 73.0799 162.287 73.6558 161.948 74.185C159.827 75.2534 156.219 76.2616 152.919 75.0841C149.619 73.9065 147.464 70.842 146.499 68.6726C146.572 68.048 146.716 67.4218 146.936 66.8043C147.156 66.1868 147.441 65.611 147.781 65.0818Z" fill="#F0F0F3"/>
<path d="M163.229 70.5941C162.596 69.1707 161.451 67.362 159.806 65.9537C160.193 66.4408 160.534 66.9381 160.828 67.423C161.433 68.4226 161.561 69.6442 161.171 70.7456C161.169 70.7518 161.166 70.7579 161.164 70.7641C161.162 70.7703 161.16 70.7764 161.158 70.7826C160.762 71.8822 159.89 72.7466 158.789 73.1374C156.684 73.8841 153.892 74.3138 151.291 73.3857C150.156 72.9808 149.157 72.3528 148.295 71.6148C149.434 73.0466 150.979 74.3916 152.919 75.0841C156.219 76.2616 159.827 75.2534 161.948 74.185C162.287 73.6557 162.572 73.0799 162.793 72.4624C163.013 71.8449 163.157 71.2187 163.229 70.5941Z" fill="#E0DDE2"/>
<path d="M153.273 74.093C155.736 74.9718 158.445 73.6876 159.324 71.2246C160.203 68.7616 158.919 66.0525 156.456 65.1736C153.993 64.2947 151.283 65.5789 150.405 68.0419C149.526 70.505 150.81 73.2141 153.273 74.093Z" fill="#FB636F"/>
<path d="M152.458 73.7126C152.712 73.8622 152.985 73.9902 153.273 74.0931C154.78 74.6307 156.378 74.3588 157.594 73.5028C156.032 73.9058 154.231 74.0811 152.458 73.7126Z" fill="#FA4954"/>
<path d="M155.132 65.9593C155.455 65.983 155.781 66.0503 156.102 66.1647C158.018 66.8483 159.017 68.9554 158.333 70.8711C157.65 72.7868 155.542 73.7856 153.627 73.102C151.711 72.4184 150.712 70.3113 151.396 68.3957C151.51 68.0749 151.665 67.7799 151.851 67.5142C151.879 67.6132 155.191 66.0435 155.132 65.9593Z" fill="#FA2A3B"/>
<path d="M156.569 66.3681C156.968 67.2176 157.045 68.2189 156.705 69.1728C156.021 71.0884 153.914 72.0873 151.998 71.4037C151.836 71.3458 151.68 71.2776 151.531 71.2002C151.934 72.0567 152.665 72.7588 153.627 73.102C155.542 73.7855 157.649 72.7867 158.333 70.871C158.959 69.1177 158.175 67.204 156.569 66.3681Z" fill="#E21F2D"/>
<path d="M153.887 72.3723C153.743 72.3208 153.667 72.1621 153.719 72.0178L154.213 70.6322C154.265 70.4879 154.424 70.4127 154.568 70.4642C154.712 70.5157 154.787 70.6744 154.736 70.8187L154.242 72.2042C154.19 72.3486 154.031 72.4238 153.887 72.3723ZM153.039 71.5487L154.249 70.5206C154.366 70.4213 154.38 70.2462 154.281 70.1295C154.181 70.0127 154.006 69.9985 153.89 70.0978L152.68 71.1259C152.563 71.2251 152.549 71.4002 152.648 71.517C152.681 71.5554 152.722 71.5827 152.766 71.5986C152.856 71.6308 152.961 71.6153 153.039 71.5487ZM152.326 70.3796L153.714 70.1258C153.865 70.0982 153.965 69.9537 153.937 69.803C153.91 69.6522 153.765 69.5524 153.614 69.58L152.226 69.8338C152.076 69.8613 151.976 70.0059 152.003 70.1566C152.022 70.2577 152.093 70.3359 152.183 70.3681C152.228 70.3839 152.276 70.3887 152.326 70.3796ZM154.007 69.3273C154.058 69.183 153.983 69.0243 153.838 68.9728L152.48 68.488C152.336 68.4365 152.177 68.5118 152.125 68.6561C152.074 68.8004 152.149 68.9592 152.294 69.0107L153.652 69.4954C153.796 69.5469 153.955 69.4716 154.007 69.3273ZM155.479 68.7354L156.01 67.2491C156.061 67.1048 155.986 66.946 155.842 66.8945C155.697 66.843 155.539 66.9183 155.487 67.0626L154.957 68.549C154.905 68.6933 154.98 68.852 155.125 68.9035C155.269 68.955 155.428 68.8797 155.479 68.7354ZM155.896 69.1209L157.049 68.1409C157.166 68.0417 157.18 67.8666 157.081 67.7498C156.981 67.6331 156.806 67.6189 156.689 67.7181L155.536 68.6981C155.42 68.7973 155.405 68.9724 155.505 69.0892C155.537 69.1276 155.578 69.1549 155.623 69.1707C155.713 69.203 155.817 69.1875 155.896 69.1209ZM155.966 69.7141L157.502 69.4331C157.653 69.4055 157.753 69.261 157.725 69.1102C157.698 68.9595 157.553 68.8597 157.403 68.8872L155.866 69.1682C155.715 69.1958 155.615 69.3403 155.643 69.491C155.661 69.5921 155.732 69.6703 155.823 69.7026C155.867 69.7184 155.916 69.7231 155.966 69.7141ZM157.603 70.6107C157.655 70.4664 157.579 70.3077 157.435 70.2562L155.949 69.7258C155.805 69.6743 155.646 69.7496 155.594 69.8939C155.543 70.0382 155.618 70.1969 155.762 70.2484L157.249 70.7788C157.393 70.8303 157.552 70.755 157.603 70.6107ZM156.748 71.8496C156.865 71.7503 156.879 71.5752 156.78 71.4585L155.74 70.235C155.641 70.1182 155.465 70.1041 155.349 70.2033C155.232 70.3025 155.218 70.4776 155.317 70.5944L156.357 71.8178C156.39 71.8563 156.43 71.8836 156.475 71.8994C156.565 71.9317 156.67 71.9161 156.748 71.8496ZM155.387 72.4944C155.538 72.4669 155.638 72.3223 155.61 72.1716L155.343 70.7073C155.315 70.5566 155.171 70.4567 155.02 70.4843C154.869 70.5119 154.769 70.6564 154.797 70.8072L155.065 72.2714C155.083 72.3725 155.154 72.4507 155.245 72.483C155.289 72.4988 155.338 72.5035 155.387 72.4944Z" fill="#FB636F"/>
<path d="M155.244 72.4829C155.289 72.4987 155.338 72.5035 155.387 72.4944C155.538 72.4668 155.638 72.3223 155.61 72.1716L155.383 70.9276C155.222 71.0431 155.052 71.1452 154.875 71.2331L155.065 72.2714C155.083 72.3724 155.154 72.4507 155.244 72.4829Z" fill="#FA4954"/>
<path d="M156.905 68.263L157.049 68.1408C157.165 68.0416 157.18 67.8665 157.08 67.7497C157.035 67.6961 156.973 67.6642 156.909 67.6549C156.924 67.8556 156.923 68.059 156.905 68.263Z" fill="#FA4954"/>
<path d="M157.502 69.4329C157.653 69.4054 157.753 69.2608 157.725 69.1101C157.698 68.9593 157.553 68.8595 157.402 68.8871L156.76 69.0046C156.743 69.0607 156.724 69.1168 156.704 69.1727C156.65 69.3256 156.586 69.4727 156.514 69.6136L157.502 69.4329Z" fill="#FA4954"/>
<path d="M152.929 71.6059C152.863 71.6004 152.798 71.5931 152.733 71.584C152.743 71.5896 152.755 71.5944 152.766 71.5985C152.818 71.617 152.875 71.6197 152.929 71.6059Z" fill="#FA4954"/>
<path d="M157.603 70.6106C157.654 70.4663 157.579 70.3076 157.435 70.2561L156.367 69.875C156.264 70.0411 156.15 70.197 156.024 70.342L157.248 70.7787C157.393 70.8302 157.551 70.7549 157.603 70.6106Z" fill="#FA4954"/>
<path d="M154.241 72.2042L154.535 71.3812C154.324 71.4609 154.105 71.5215 153.882 71.5615L153.719 72.0178C153.667 72.1621 153.743 72.3208 153.887 72.3723C154.031 72.4238 154.19 72.3486 154.241 72.2042Z" fill="#FA4954"/>
<path d="M156.78 71.4584L155.925 70.4528C155.798 70.5886 155.661 70.714 155.516 70.828L156.357 71.8177C156.39 71.8562 156.43 71.8835 156.475 71.8993C156.565 71.9315 156.67 71.916 156.748 71.8495C156.865 71.7503 156.879 71.5752 156.78 71.4584Z" fill="#FA4954"/>
<path d="M155.132 68.0776C155.22 68.0928 155.308 68.1157 155.395 68.1468C156.216 68.4397 156.644 69.3428 156.351 70.1638C156.058 70.9848 155.155 71.4129 154.334 71.1199C153.513 70.827 153.085 69.9239 153.378 69.1029C153.409 69.0158 153.447 68.9332 153.491 68.8554C153.798 68.8781 154.955 68.3298 155.132 68.0776Z" fill="#695E66"/>
<path d="M156.351 70.1639C156.399 70.0288 156.428 69.8914 156.439 69.7549C156.077 70.3921 155.543 70.8907 154.918 71.2113C155.546 71.1897 156.127 70.7916 156.351 70.1639Z" fill="#554E57"/>
<path d="M153.006 68.753C153.964 69.0948 155.017 68.5954 155.359 67.6376C155.701 66.6797 155.201 65.6262 154.244 65.2844C153.286 64.9426 152.232 65.442 151.89 66.3999C151.549 67.3577 152.048 68.4112 153.006 68.753Z" fill="#F0F0F3"/>
<path d="M162.836 72.3372L161.847 72.8059L161.532 73.6887C161.481 73.833 161.322 73.9083 161.178 73.8568L160.187 73.5031C160.042 73.4516 159.967 73.2929 160.019 73.1486C160.07 73.0042 160.229 72.929 160.373 72.9805L161.103 73.2409L161.363 72.5112C161.388 72.4419 161.439 72.3853 161.506 72.3537L163.044 71.6246C162.986 71.8629 162.917 72.1006 162.836 72.3372ZM159.631 73.864C159.548 73.7778 159.42 73.7542 159.312 73.8053L158.744 74.0748L158.356 73.9366C158.212 73.8851 158.053 73.9603 158.002 74.1047C157.95 74.249 158.025 74.4077 158.17 74.4592L158.665 74.636C158.735 74.6608 158.811 74.6569 158.877 74.6254L159.369 74.3924L159.946 74.9938C160.144 74.9311 160.338 74.8651 160.526 74.7968L159.631 73.864ZM162.6 69.3648L161.473 69.8991L161.273 69.4775C161.241 69.411 161.185 69.3598 161.115 69.335L160.62 69.1582C160.476 69.1067 160.317 69.1819 160.265 69.3263C160.214 69.4706 160.289 69.6293 160.433 69.6808L160.821 69.819L161.071 70.3469L161.183 71.2715L160.692 71.5046C160.553 71.5702 160.494 71.7357 160.56 71.8741C160.593 71.9433 160.65 71.9927 160.717 72.0166C160.784 72.0404 160.86 72.0388 160.929 72.006L161.602 71.6872C161.71 71.6361 161.773 71.5216 161.758 71.4031L161.641 70.4337L162.869 69.8516C162.785 69.6918 162.695 69.5292 162.6 69.3648ZM159.866 67.7714L160.68 68.6205C160.71 68.6519 160.747 68.6755 160.787 68.6898C160.815 68.6998 160.844 68.7052 160.875 68.7059L162.213 68.734C162.091 68.5468 161.962 68.3587 161.827 68.1709L161.001 68.1535L160.266 67.3874C160.16 67.2766 159.985 67.273 159.874 67.3791C159.764 67.4851 159.76 67.6608 159.866 67.7714ZM149.118 70.0816L148.623 69.9048C148.582 69.8903 148.539 69.8855 148.496 69.8907L148.358 69.9075L148.472 69.587C148.524 69.4427 148.448 69.2839 148.304 69.2324C148.16 69.181 148.001 69.2562 147.949 69.4005L147.742 69.9823L147.213 70.0465C147.315 70.2183 147.423 70.3918 147.537 70.5661L147.973 70.5131C147.977 70.5128 147.98 70.5123 147.984 70.5118L148.498 70.4494L148.932 70.6042C149.076 70.6557 149.235 70.5805 149.286 70.4362C149.338 70.2918 149.263 70.1331 149.118 70.0816ZM149.464 66.7209L150.313 65.9067C150.423 65.8006 150.427 65.625 150.321 65.5144C150.215 65.4038 150.039 65.4001 149.929 65.5062L149.203 66.2017L148.873 66.0838C148.87 66.0828 148.868 66.0819 148.865 66.081L148.374 65.9057C148.333 65.8913 148.29 65.8864 148.247 65.8916L147.265 66.011C147.174 66.2029 147.089 66.3995 147.012 66.6007L148.249 66.4504L148.521 66.5476L148.635 67.4802L148.48 67.9141C148.455 67.9834 148.459 68.0596 148.491 68.1261L148.809 68.7985C148.842 68.8677 148.9 68.9171 148.967 68.941C149.034 68.9648 149.11 68.9632 149.179 68.9304C149.317 68.8647 149.376 68.6993 149.311 68.5609L149.041 67.9924L149.179 67.6049C149.194 67.5644 149.199 67.521 149.193 67.4782L149.106 66.7559L149.178 66.7819C149.277 66.8172 149.388 66.7936 149.464 66.7209ZM148.872 65.4546C148.902 65.5321 148.964 65.5881 149.037 65.6141C149.098 65.6359 149.167 65.6365 149.232 65.6108C149.374 65.5546 149.444 65.3934 149.388 65.2509C149.264 64.9382 149.169 64.6967 149.095 64.5099C148.918 64.5761 148.746 64.6445 148.58 64.7142C148.721 65.0718 148.872 65.4546 148.872 65.4546ZM147.508 67.9625L147.617 68.8549C147.635 69.007 147.773 69.1153 147.926 69.0968C148.078 69.0783 148.186 68.9401 148.167 68.788L148.026 67.6201C148.007 67.468 147.869 67.3597 147.717 67.3782L146.721 67.4991C146.671 67.6903 146.627 67.882 146.591 68.0739L147.508 67.9625Z" fill="#FC8086"/>
<path d="M161.174 68.1571C161.238 68.3396 161.288 68.5262 161.324 68.7153L162.213 68.7339C162.091 68.5468 161.963 68.3586 161.827 68.1708L161.174 68.1571Z" fill="#FB636F"/>
<path d="M162.6 69.3647L161.473 69.899L161.384 69.7123C161.361 70.0614 161.29 70.4091 161.171 70.7456L161.164 70.7641C161.164 70.7641 161.16 70.7764 161.158 70.7826C161.149 70.8054 161.141 70.8282 161.132 70.8509L161.183 71.2713L160.857 71.426C160.767 71.5803 160.667 71.7277 160.557 71.8674C160.558 71.8696 160.559 71.8718 160.56 71.874C160.593 71.9432 160.65 71.9925 160.717 72.0164C160.784 72.0403 160.86 72.0386 160.929 72.0058L161.602 71.6871C161.71 71.6359 161.773 71.5214 161.758 71.4029L161.641 70.4336L162.869 69.8514C162.785 69.6917 162.695 69.5291 162.6 69.3647Z" fill="#FB636F"/>
<path d="M158.17 74.4591L158.665 74.6359C158.735 74.6607 158.811 74.6568 158.877 74.6253L159.369 74.3923L159.946 74.9937C160.144 74.931 160.338 74.865 160.526 74.7967L159.631 73.8639C159.548 73.7778 159.42 73.7541 159.312 73.8053L158.744 74.0747L158.356 73.9365C158.212 73.885 158.053 73.9602 158.002 74.1046C157.95 74.2489 158.025 74.4076 158.17 74.4591Z" fill="#FB636F"/>
<path d="M161.506 72.3537C161.44 72.3852 161.388 72.4418 161.364 72.5112L161.103 73.2409L160.373 72.9805C160.229 72.929 160.07 73.0042 160.019 73.1486C159.967 73.2929 160.043 73.4516 160.187 73.5031L161.178 73.8567C161.322 73.9082 161.481 73.833 161.533 73.6887L161.848 72.8059L162.836 72.3372C162.917 72.1006 162.986 71.8629 163.044 71.6246L161.506 72.3537Z" fill="#FB636F"/>
<path d="M157.907 42.2976C158.368 41.8385 158.755 41.2906 159.04 40.6629C160.231 38.0309 159.187 34.9574 156.712 33.5708C157.01 31.2291 155.773 28.8688 153.51 27.8444C152.365 27.3262 151.137 27.2316 150 27.4927C149.446 26.4662 148.565 25.6057 147.42 25.0875C145.157 24.0631 142.567 24.6908 141.004 26.4597C138.33 25.515 135.331 26.7585 134.14 29.3904C133.855 30.0181 133.699 30.671 133.659 31.3202C132.059 31.4352 130.569 32.4001 129.862 33.9609C128.835 36.2289 129.845 38.9086 132.113 39.9354L152.453 49.1437C154.721 50.1704 157.401 49.1609 158.428 46.8929C159.134 45.332 158.876 43.5756 157.907 42.2976Z" fill="url(#paint7_linear_792_7)"/>
<path d="M153.895 31.9312C153.716 31.4332 153.397 30.9823 152.997 30.6617C152.707 30.4295 152.661 30.0062 152.893 29.7164C153.125 29.4266 153.548 29.3796 153.838 29.6122C154.438 30.0927 154.895 30.7373 155.161 31.4763C155.286 31.8258 155.105 32.211 154.755 32.3366C154.406 32.4621 154.021 32.2808 153.895 31.9312Z" fill="#FDC6E3"/>
<path d="M149.464 29.6784C149.385 29.3154 149.615 28.9573 149.978 28.8785C150.276 28.8138 150.672 28.7367 151.089 28.7152C151.459 28.6961 151.776 28.9812 151.795 29.3523C151.814 29.7231 151.529 30.0393 151.158 30.0585C150.838 30.0749 150.512 30.1389 150.264 30.1928C149.9 30.2716 149.542 30.0413 149.464 29.6784Z" fill="#FDC6E3"/>
<path d="M138.851 33.2331C138.568 32.6981 138.195 32.2077 137.744 31.7859C138.279 31.6702 138.812 31.432 139.216 30.9772C139.401 30.769 139.382 30.4502 139.174 30.2652C138.966 30.0803 138.647 30.0991 138.462 30.3073C138.061 30.7592 137.379 30.8643 136.878 30.873C136.7 30.876 136.532 30.8674 136.382 30.8539L136.383 30.8539C136.339 30.833 136.296 30.8115 136.252 30.7915C135.462 30.434 134.633 30.2782 133.821 30.3014C133.734 30.6394 133.68 30.9803 133.659 31.3204C134.383 31.2683 135.13 31.3903 135.836 31.7102C136.781 32.1381 137.507 32.8534 137.958 33.706C138.076 33.9291 138.344 34.027 138.58 33.938C138.863 33.8314 138.992 33.5004 138.851 33.2331Z" fill="#FD75BE" fill-opacity="0.5"/>
<path d="M147.594 31.3107C147.064 31.0674 146.786 30.7984 146.644 30.5626C146.494 30.3149 146.509 29.9986 146.672 29.7596C147.471 28.588 148.673 27.7975 150.001 27.4927C149.832 27.1807 149.634 26.8842 149.406 26.6079C147.92 27.0422 146.594 27.9986 145.724 29.3657C145.553 29.6339 145.269 29.8148 144.953 29.8462C144.684 29.8728 144.327 29.8286 143.867 29.6236C143.617 29.5119 143.312 29.6031 143.189 29.8483C143.06 30.1058 143.172 30.4164 143.432 30.534C144.439 30.99 145.161 30.904 145.612 30.7289C145.778 31.1832 146.189 31.7822 147.196 32.2381C147.456 32.3557 147.763 32.2349 147.872 31.9684C147.975 31.7145 147.843 31.425 147.594 31.3107Z" fill="#FD75BE" fill-opacity="0.5"/>
<path d="M156.593 39.9999C156.394 39.9096 156.191 39.833 155.988 39.7681C155.745 38.9167 155.136 37.8928 153.695 37.0969C153.45 36.9605 153.144 37.0508 153.009 37.2945C152.875 37.5383 152.963 37.8452 153.207 37.9798C154.05 38.4457 154.538 38.9959 154.812 39.5298C154.214 39.4761 153.617 39.5218 153.044 39.6582C152.749 39.7282 152.586 40.0438 152.693 40.3267C152.782 40.5629 153.032 40.6995 153.277 40.6409C154.216 40.4172 155.232 40.4906 156.177 40.9184C156.884 41.2384 157.468 41.719 157.907 42.2975C158.148 42.0571 158.369 41.7917 158.566 41.5035C158.047 40.8781 157.383 40.3575 156.593 39.9999Z" fill="#FD75BE" fill-opacity="0.5"/>
<path d="M152.623 44.5297C151.631 45.6352 150.589 45.8188 149.864 45.7666C149.748 45.072 149.792 44.3448 150.02 43.6421C150.106 43.3765 149.966 43.091 149.701 43.0031C149.435 42.915 149.148 43.0608 149.062 43.3273C148.561 44.8669 148.779 46.5043 149.56 47.834L152.453 49.1437C151.376 48.6558 150.583 47.7941 150.157 46.7809C151.007 46.7671 152.233 46.4746 153.374 45.2034C153.56 44.9961 153.543 44.6772 153.335 44.4911C153.128 44.3052 152.809 44.3224 152.623 44.5297Z" fill="#FD75BE" fill-opacity="0.5"/>
<path d="M133.193 38.8654C133.777 39.1297 134.423 38.9636 134.635 38.4944C134.848 38.0251 134.547 37.4304 133.963 37.1661C133.379 36.9018 132.733 37.0679 132.521 37.5371C132.308 38.0064 132.61 38.6011 133.193 38.8654Z" fill="#FD75BE" fill-opacity="0.5"/>
<path d="M145.635 44.4978C146.219 44.7622 146.865 44.596 147.077 44.1268C147.289 43.6576 146.988 43.0629 146.404 42.7986C145.821 42.5342 145.175 42.7003 144.963 43.1696C144.75 43.6388 145.051 44.2335 145.635 44.4978Z" fill="#FD75BE" fill-opacity="0.5"/>
<path d="M130.081 15L129.972 20.5794L131.783 19.8206L132.081 25.4999" stroke="#FFC325" stroke-linecap="square"/>
<path d="M150.626 10.2873L147.734 16.1803L150.965 16.1803L146.182 21.5787" stroke="#FFC325" stroke-linecap="square"/>
<path d="M170.559 25.5547L164.145 28.7407L167 30.2639L160.791 32.5786" stroke="#FFC325" stroke-linecap="square"/>
<defs>
<filter id="filter0_d_792_7" x="48.9812" y="0.157303" width="81.5902" height="59.1767" filterUnits="userSpaceOnUse" color-interpolation-filters="sRGB">
<feFlood flood-opacity="0" result="BackgroundImageFix"/>
<feColorMatrix in="SourceAlpha" type="matrix" values="0 0 0 0 0 0 0 0 0 0 0 0 0 0 0 0 0 0 127 0" result="hardAlpha"/>
<feOffset dy="1.8793"/>
<feGaussianBlur stdDeviation="7.98704"/>
<feColorMatrix type="matrix" values="0 0 0 0 0.0386285 0 0 0 0 0.0648437 0 0 0 0 0.104167 0 0 0 0.13 0"/>
<feBlend mode="normal" in2="BackgroundImageFix" result="effect1_dropShadow_792_7"/>
<feBlend mode="normal" in="SourceGraphic" in2="effect1_dropShadow_792_7" result="shape"/>
</filter>
<filter id="filter1_d_792_7" x="97.4231" y="30.5502" width="35.7958" height="41.709" filterUnits="userSpaceOnUse" color-interpolation-filters="sRGB">
<feFlood flood-opacity="0" result="BackgroundImageFix"/>
<feColorMatrix in="SourceAlpha" type="matrix" values="0 0 0 0 0 0 0 0 0 0 0 0 0 0 0 0 0 0 127 0" result="hardAlpha"/>
<feOffset dy="1.8793"/>
<feGaussianBlur stdDeviation="7.98704"/>
<feColorMatrix type="matrix" values="0 0 0 0 0.0386285 0 0 0 0 0.0648437 0 0 0 0 0.104167 0 0 0 0.13 0"/>
<feBlend mode="normal" in2="BackgroundImageFix" result="effect1_dropShadow_792_7"/>
<feBlend mode="normal" in="SourceGraphic" in2="effect1_dropShadow_792_7" result="shape"/>
</filter>
<filter id="filter2_d_792_7" x="90.4554" y="24.5755" width="42.081" height="52.3212" filterUnits="userSpaceOnUse" color-interpolation-filters="sRGB">
<feFlood flood-opacity="0" result="BackgroundImageFix"/>
<feColorMatrix in="SourceAlpha" type="matrix" values="0 0 0 0 0 0 0 0 0 0 0 0 0 0 0 0 0 0 127 0" result="hardAlpha"/>
<feOffset dy="1.8793"/>
<feGaussianBlur stdDeviation="7.98704"/>
<feColorMatrix type="matrix" values="0 0 0 0 0.0386285 0 0 0 0 0.0648437 0 0 0 0 0.104167 0 0 0 0.13 0"/>
<feBlend mode="normal" in2="BackgroundImageFix" result="effect1_dropShadow_792_7"/>
<feBlend mode="normal" in="SourceGraphic" in2="effect1_dropShadow_792_7" result="shape"/>
</filter>
<filter id="filter3_d_792_7" x="45.4449" y="30.5502" width="35.7958" height="41.709" filterUnits="userSpaceOnUse" color-interpolation-filters="sRGB">
<feFlood flood-opacity="0" result="BackgroundImageFix"/>
<feColorMatrix in="SourceAlpha" type="matrix" values="0 0 0 0 0 0 0 0 0 0 0 0 0 0 0 0 0 0 127 0" result="hardAlpha"/>
<feOffset dy="1.8793"/>
<feGaussianBlur stdDeviation="7.98704"/>
<feColorMatrix type="matrix" values="0 0 0 0 0.0386285 0 0 0 0 0.0648437 0 0 0 0 0.104167 0 0 0 0.13 0"/>
<feBlend mode="normal" in2="BackgroundImageFix" result="effect1_dropShadow_792_7"/>
<feBlend mode="normal" in="SourceGraphic" in2="effect1_dropShadow_792_7" result="shape"/>
</filter>
<filter id="filter4_d_792_7" x="46.0557" y="24.5755" width="42.081" height="52.3212" filterUnits="userSpaceOnUse" color-interpolation-filters="sRGB">
<feFlood flood-opacity="0" result="BackgroundImageFix"/>
<feColorMatrix in="SourceAlpha" type="matrix" values="0 0 0 0 0 0 0 0 0 0 0 0 0 0 0 0 0 0 127 0" result="hardAlpha"/>
<feOffset dy="1.8793"/>
<feGaussianBlur stdDeviation="7.98704"/>
<feColorMatrix type="matrix" values="0 0 0 0 0.0386285 0 0 0 0 0.0648437 0 0 0 0 0.104167 0 0 0 0.13 0"/>
<feBlend mode="normal" in2="BackgroundImageFix" result="effect1_dropShadow_792_7"/>
<feBlend mode="normal" in="SourceGraphic" in2="effect1_dropShadow_792_7" result="shape"/>
</filter>
<linearGradient id="paint0_linear_792_7" x1="94.5781" y1="96.0238" x2="150.333" y2="122.745" gradientUnits="userSpaceOnUse">
<stop offset="0.0677966" stop-color="#FFEFE0"/>
<stop offset="1" stop-color="#FFBE99"/>
</linearGradient>
<linearGradient id="paint1_linear_792_7" x1="90.358" y1="57.722" x2="84.5324" y2="174.397" gradientUnits="userSpaceOnUse">
<stop stop-color="#FF9F81"/>
<stop offset="1" stop-color="#F53838"/>
</linearGradient>
<linearGradient id="paint2_linear_792_7" x1="83.2799" y1="98.726" x2="27.5248" y2="125.447" gradientUnits="userSpaceOnUse">
<stop offset="0.0677966" stop-color="#FFEFE0"/>
<stop offset="1" stop-color="#FFBE99"/>
</linearGradient>
<linearGradient id="paint3_linear_792_7" x1="88.4454" y1="44.9273" x2="89.4226" y2="76.1172" gradientUnits="userSpaceOnUse">
<stop stop-color="#FFEFE0"/>
<stop offset="1" stop-color="#FFBE99"/>
</linearGradient>
<linearGradient id="paint4_linear_792_7" x1="88.4454" y1="44.9273" x2="87.0762" y2="80.4604" gradientUnits="userSpaceOnUse">
<stop stop-color="#FFEFE0"/>
<stop offset="1" stop-color="#FFBE99"/>
</linearGradient>
<linearGradient id="paint5_linear_792_7" x1="90.0692" y1="28.299" x2="90.0692" y2="65.753" gradientUnits="userSpaceOnUse">
<stop stop-color="#FFEFE0"/>
<stop offset="1" stop-color="#FFBE99"/>
</linearGradient>
<linearGradient id="paint6_linear_792_7" x1="105.653" y1="69.9498" x2="78.3537" y2="167.906" gradientUnits="userSpaceOnUse">
<stop offset="0.0171777" stop-color="white"/>
<stop offset="1" stop-color="#D7D7D7"/>
</linearGradient>
<linearGradient id="paint7_linear_792_7" x1="150.465" y1="26.466" x2="142.283" y2="44.5395" gradientUnits="userSpaceOnUse">
<stop offset="0.0212" stop-color="#FFB1DB"/>
<stop offset="1" stop-color="#FD86C8"/>
</linearGradient>
</defs>
</svg>
