<svg width="262" height="139" viewBox="0 0 262 139" fill="none" xmlns="http://www.w3.org/2000/svg">
<path d="M63.469 71.5699C68.2559 68.2457 86.0662 62.258 94.373 59.6797H103.703C109.24 61.0525 121.681 64.3518 127.144 66.5667C132.608 68.7816 142.568 81.897 146.567 87.988L142.216 96.3202C131.142 107.247 140.065 116.894 145.971 120.463C137.111 120.463 133.297 117.14 132.497 115.479C133.383 120.5 134.097 132.829 134.343 138.366H69.1876V128.303H44.337C42.0468 103.246 57.4854 75.7252 63.469 71.5699Z" fill="url(#paint0_linear_643_2727)"/>
<ellipse cx="99.7414" cy="67.5853" rx="11.0939" ry="7.90559" fill="#CF0606"/>
<path d="M91.5051 66.769C92.9451 58.4892 92.4378 50.8276 92.2128 48.1839C92.5277 45.709 105.623 50.3445 111.923 52.8194C108.368 54.6194 107.405 63.6191 107.367 67.894C107.48 69.3002 106.602 72.2814 102.192 72.9564C94.8125 73.8114 91.9926 69.1877 91.5051 66.769Z" fill="url(#paint1_linear_643_2727)"/>
<mask id="mask0_643_2727" style="mask-type:alpha" maskUnits="userSpaceOnUse" x="91" y="47" width="21" height="27">
<path d="M91.5051 66.769C92.9451 58.4892 92.4378 50.8276 92.2128 48.1839C92.5277 45.709 105.623 50.3445 111.923 52.8194C108.368 54.6194 107.405 63.6191 107.367 67.894C107.48 69.3002 106.602 72.2814 102.192 72.9564C94.8125 73.8114 91.9926 69.1877 91.5051 66.769Z" fill="#BABABA"/>
</mask>
<g mask="url(#mask0_643_2727)">
<path opacity="0.1" d="M109.743 61.4094C100.874 60.0256 94.2992 52.2285 92.1201 48.5029C97.182 47.4587 108.564 45.9968 113.596 48.5029C118.627 51.0091 113.124 58.1515 109.743 61.4094Z" fill="black"/>
</g>
<path d="M107.042 54.3354C121.609 53.7021 122.025 33.7818 120.412 23.9008C94.0941 1.59381 83.527 19.1216 81.5332 30.6738C83.9668 38.8249 92.4756 54.9688 107.042 54.3354Z" fill="url(#paint2_linear_643_2727)"/>
<path d="M93.2857 30.3119L99.2211 35.4094L98.5769 38.3824L93.0413 33.524L93.2857 30.3119Z" fill="#30235B"/>
<path d="M87.2503 34.8958C92.3169 39.1883 92.6452 45.891 92.1761 48.7058C90.5342 48.266 85.9484 45.416 80.741 37.5347C72.4375 20.5757 82.4416 7.89169 88.4816 3.66955C104.667 -5.74231 126.305 8.85925 122.523 20.0304C118.74 31.2015 100.65 28.6213 93.9352 24.3405C95.3426 28.5626 94.0525 32.7261 93.2316 34.2801C90.065 26.8913 80.917 29.5302 87.2503 34.8958Z" fill="#6B5A50"/>
<path d="M98.0965 1.48998C108.874 -1.6057 115.438 3.97418 117.373 7.15108C115.199 5.98065 109.175 4.34203 102.468 7.15108C91.8621 12.0239 89.5451 22.4145 89.7123 27.0007L82.6897 26.4991V23.9194C83.3346 17.7328 87.3189 4.58567 98.0965 1.48998Z" fill="white"/>
<ellipse cx="85.5658" cy="33.2887" rx="8.2428" ry="10.0843" fill="white"/>
<ellipse cx="85.5658" cy="33.2887" rx="8.2428" ry="10.0843" fill="white"/>
<ellipse cx="85.5661" cy="33.2887" rx="3.93454" ry="4.81352" fill="#24C28A"/>
<path opacity="0.5" d="M121.581 31.7498C118.526 30.8054 115.236 32.8186 113.972 33.9432C111.675 36.1366 115.159 41.714 119.186 39.1448C122.408 37.0895 122.125 33.3584 121.581 31.7498Z" fill="#E6FCFF"/>
<path fill-rule="evenodd" clip-rule="evenodd" d="M112.678 33.2811C117.097 29.1989 121.288 29.8968 122.831 30.7561C123.724 33.1204 122.831 40.0296 117.902 40.6421C113.96 41.1321 112.608 38.0839 112.426 36.4986C111.676 35.8933 111.179 36.415 111.023 36.7516C111.153 41.1576 107.611 44.1381 103.81 43.447C100.769 42.894 99.4447 39.8553 99.1629 38.405H98.5342V35.8269C102.494 31.9495 107.965 32.8999 110.205 33.8598C110.795 33.3968 112.099 33.2811 112.678 33.2811ZM121.35 32.0264C118.294 31.082 115.503 32.7001 114.239 33.8247C111.942 36.0181 114.959 41.3917 119.175 39.1447C121.699 37.7992 121.893 33.635 121.35 32.0264ZM104.074 34.9015C105.742 34.3586 109.144 33.9953 109.405 36.8858C109.73 40.4989 106.443 43.1643 103.57 41.7428C101.49 40.7135 100.638 38.6035 100.638 37.2708C100.638 36.2046 102.929 35.2471 104.074 34.9015Z" fill="#30235B"/>
<path opacity="0.5" d="M109.415 36.8859C109.155 33.9954 105.753 34.3587 104.085 34.9016C102.939 35.2472 100.649 36.2047 100.649 37.2709C100.649 38.6036 101.501 40.7136 103.581 41.7429C106.454 43.1644 109.741 40.499 109.415 36.8859Z" fill="#E6FCFF"/>
<path d="M44.3156 128.335C46.8782 139.755 62.0957 139.778 69.3842 138.362L125.564 130.246C126.288 130.875 128.023 132.533 129.166 134.136C130.31 135.738 131.358 134.611 131.739 133.848C133.386 135.632 134.598 134.783 134.998 134.136C136.416 135.921 137.609 135.298 138.029 134.763C139.995 136.226 140.492 134.954 140.494 134.136C137.811 128.454 132.997 122.758 130.926 120.621L116.918 121.903L71.4036 117.263C62.7689 111.205 41.1124 114.06 44.3156 128.335Z" fill="url(#paint3_linear_643_2727)"/>
<path d="M153.168 111.056C150.63 119.252 147.132 120.683 145.7 120.375C130.627 110.289 137.1 99.9542 142.22 96.0474L155.566 68.569C153.634 67.0581 151.481 62.3309 151.701 59.3499C151.878 56.9651 153.505 56.8852 154.296 57.1434C154.517 54.6723 156.302 54.751 157.167 55.0992C157.917 52.4052 160.092 52.983 161.086 53.6087C161.219 49.899 163.791 50.4069 165.061 51.1245L167.29 57.1434C168.2 57.2698 170.312 57.5623 171.475 57.7209C172.929 57.9192 174.78 58.1835 173.854 60.2323C173.114 61.8714 169.36 67.4803 167.576 70.0799C163.831 80.324 155.706 102.861 153.168 111.056Z" fill="url(#paint4_linear_643_2727)"/>
<path d="M114.75 135.418H144.14V135.418C144.14 137.046 142.82 138.366 141.191 138.366H117.698C116.07 138.366 114.75 137.046 114.75 135.418V135.418Z" fill="#B4B4B4"/>
<path d="M153.476 99.2141C153.702 98.672 154.232 98.3189 154.819 98.3189H204.167C205.205 98.3189 205.909 99.3754 205.51 100.334L190.027 137.471C189.801 138.013 189.272 138.366 188.684 138.366H139.337C138.298 138.366 137.594 137.31 137.994 136.351L153.476 99.2141Z" fill="url(#paint5_linear_643_2727)"/>
<path d="M71.4209 117.25L72.7388 106.875" stroke="#30235B" stroke-width="0.291011"/>
<path d="M132.456 115.54C132.259 114.323 131.923 111.379 132.16 109.348" stroke="#30235B" stroke-width="0.291011"/>
<path d="M132.098 111.619L130.965 109.322" stroke="#30235B" stroke-width="0.291011"/>
<path d="M131.697 133.753L128.016 129.107" stroke="#30235B" stroke-width="0.291011"/>
<path d="M134.956 133.983L129.21 126.527" stroke="#30235B" stroke-width="0.291011"/>
<path d="M137.976 134.666L130.835 124.377" stroke="#30235B" stroke-width="0.291011"/>
<path d="M154.294 57.1881C154.491 58.2113 155.133 60.6301 156.126 62.1201" stroke="#30235B" stroke-width="0.291011"/>
<path d="M161.098 53.6305C161.399 54.6863 162.183 57.0676 162.909 58.1462" stroke="#30235B" stroke-width="0.291011"/>
<path d="M157.127 55.1645C157.481 56.314 158.361 58.8409 159.045 59.7536" stroke="#30235B" stroke-width="0.291011"/>
<path d="M167 57L168.095 60.2044" stroke="#30235B" stroke-width="0.291011"/>
<ellipse cx="173.554" cy="119.296" rx="3.35789" ry="4.8614" transform="rotate(19.8998 173.554 119.296)" fill="white"/>
<rect x="260.332" y="87.0815" width="53.9929" height="4.42275" transform="rotate(117.371 260.332 87.0815)" fill="#E0E0E0"/>
<rect x="222.186" y="131.693" width="24.9635" height="6.67344" rx="1.45505" fill="#30235B"/>
<rect x="257.475" y="87.5149" width="29.0015" height="4.42275" transform="rotate(-139.766 257.475 87.5149)" fill="#E0E0E0"/>
<rect x="235.806" y="66.856" width="8.5567" height="1.52344" transform="rotate(162.128 235.806 66.856)" fill="#E0E0E0"/>
<circle cx="258.465" cy="85.7339" r="3.08968" fill="#30235B"/>
<path d="M233.873 64.6235L238.202 65.4271L235.342 68.7739L233.873 64.6235Z" fill="#30235B"/>
<path d="M220.392 63.1811C221.39 60.6767 224.228 59.4547 226.732 60.4518V60.4518C229.237 61.4488 230.459 64.2872 229.462 66.7916L226.705 73.7164L217.636 70.1059L220.392 63.1811Z" fill="#30235B"/>
<path d="M223.268 70.2465C213.203 66.2945 206.507 75.1476 204.142 79.8362C211.131 89.7997 223.932 90.8232 229.734 90.3215C231.772 85.2765 233.333 74.1986 223.268 70.2465Z" fill="#30235B"/>
<path d="M19.789 107.771C13.3126 111.735 11.2747 108.12 11.0653 105.817C11.0653 102.467 11.0653 99.6755 6.66874 94.7206C-3.93908 82.9961 -0.589244 64.2929 14.0663 63.1065C28.7218 61.9201 24.4648 71.2019 19.3004 77.2037C14.1463 83.1936 17.4032 85.0128 25.1168 89.3213L25.1626 89.3469C35.2121 95.4185 26.8376 100.862 21.8826 101.839C16.9276 102.816 21.1847 105.817 19.789 107.771Z" fill="url(#paint6_linear_643_2727)"/>
<path d="M83.9013 42.8635C81.6066 42.3816 77.0544 39.3715 77.4653 32.4561" stroke="#30235B" stroke-width="0.446064"/>
<path d="M116.232 5.77644C114.983 3.92192 112.031 1.18092 106.081 0.899815" stroke="#30235B" stroke-width="0.446064"/>
<path d="M34.4775 124.454C35.0253 118.178 29.2253 116.667 25.6775 116.668C25.251 116.668 24.8869 116.96 24.7633 117.368C24.5611 118.035 25.0727 118.708 25.7679 118.76C28.9007 118.996 33.1251 120.329 32.3458 124.454C31.5896 128.457 28.1198 129.212 25.6633 129.042C24.9864 128.995 24.3521 129.499 24.3521 130.178C24.3521 130.683 24.7095 131.122 25.2122 131.175C28.5263 131.522 33.9409 130.6 34.4775 124.454Z" fill="url(#paint7_linear_643_2727)"/>
<path d="M25.379 114.589V136.911C25.379 137.715 24.7275 138.366 23.9239 138.366H6.35616C5.55256 138.366 4.90111 137.715 4.90111 136.911L4.90113 114.589C4.90113 113.785 5.55258 113.134 6.35618 113.134H23.9239C24.7275 113.134 25.379 113.785 25.379 114.589Z" fill="url(#paint8_linear_643_2727)"/>
<path d="M142.202 96.0234L146.298 87.6229" stroke="#30235B" stroke-width="0.446064"/>
<path d="M107.967 120.945C106.605 125.541 107.399 130.733 107.967 132.755L111.754 132.218C110.964 126.195 111.425 122.471 111.754 121.363L107.967 120.945Z" fill="#30235B"/>
<rect x="106.467" y="118.976" width="7.16178" height="1.85677" rx="0.928386" transform="rotate(6.01694 106.467 118.976)" fill="url(#paint9_linear_643_2727)"/>
<defs>
<linearGradient id="paint0_linear_643_2727" x1="100.634" y1="46.7419" x2="95.3373" y2="152.817" gradientUnits="userSpaceOnUse">
<stop stop-color="#FF9F81"/>
<stop offset="1" stop-color="#F53838"/>
</linearGradient>
<linearGradient id="paint1_linear_643_2727" x1="100.576" y1="18.0297" x2="99.629" y2="65.1435" gradientUnits="userSpaceOnUse">
<stop stop-color="#FFEFE0"/>
<stop offset="1" stop-color="#FFBE99"/>
</linearGradient>
<linearGradient id="paint2_linear_643_2727" x1="101.294" y1="13.1536" x2="101.294" y2="54.3535" gradientUnits="userSpaceOnUse">
<stop stop-color="#FFEFE0"/>
<stop offset="1" stop-color="#FFBE99"/>
</linearGradient>
<linearGradient id="paint3_linear_643_2727" x1="92.2447" y1="98.8838" x2="92.2447" y2="134.706" gradientUnits="userSpaceOnUse">
<stop offset="0.0677966" stop-color="#FFEFE0"/>
<stop offset="1" stop-color="#FFBE99"/>
</linearGradient>
<linearGradient id="paint4_linear_643_2727" x1="142.172" y1="46.3072" x2="176.935" y2="86.9915" gradientUnits="userSpaceOnUse">
<stop stop-color="#FFEFE0"/>
<stop offset="1" stop-color="#FFBE99"/>
</linearGradient>
<linearGradient id="paint5_linear_643_2727" x1="186.04" y1="68.2632" x2="166.543" y2="149.14" gradientUnits="userSpaceOnUse">
<stop offset="0.0171777" stop-color="white"/>
<stop offset="1" stop-color="#D7D7D7"/>
</linearGradient>
<linearGradient id="paint6_linear_643_2727" x1="-9.54824" y1="112.874" x2="29.8823" y2="63.003" gradientUnits="userSpaceOnUse">
<stop stop-color="#ECECEC"/>
<stop offset="1" stop-color="#F5F5F5" stop-opacity="0"/>
</linearGradient>
<linearGradient id="paint7_linear_643_2727" x1="37.9505" y1="119.723" x2="24.3521" y2="120.021" gradientUnits="userSpaceOnUse">
<stop stop-color="white"/>
<stop offset="1" stop-color="#CCCCCC"/>
</linearGradient>
<linearGradient id="paint8_linear_643_2727" x1="15.14" y1="105.517" x2="15.14" y2="146.191" gradientUnits="userSpaceOnUse">
<stop stop-color="white"/>
<stop offset="1" stop-color="#CCCCCC"/>
</linearGradient>
<linearGradient id="paint9_linear_643_2727" x1="109.911" y1="118.613" x2="109.864" y2="120.863" gradientUnits="userSpaceOnUse">
<stop stop-color="#7F67CE"/>
<stop offset="1" stop-color="#30235B"/>
</linearGradient>
</defs>
</svg>
