<svg width="187" height="153" viewBox="0 0 187 153" fill="none" xmlns="http://www.w3.org/2000/svg">
<path fill-rule="evenodd" clip-rule="evenodd" d="M61.9448 43.4708C62.0385 41.8693 62.3578 40.5286 62.6239 39.7835C63.1467 41.0905 63.4051 42.3453 63.4925 43.4896C64.6368 43.577 65.8916 43.8354 67.1985 44.3582C66.4534 44.6243 65.1128 44.9436 63.5113 45.0373C63.422 46.7375 62.9847 48.0585 62.6239 48.7351C62.1848 47.5056 61.9844 46.241 61.9322 45.0499C60.7411 44.9977 59.4764 44.7973 58.2469 44.3582C58.9235 43.9973 60.2446 43.5601 61.9448 43.4708Z" fill="url(#paint0_linear_745_128)"/>
<path fill-rule="evenodd" clip-rule="evenodd" d="M49.3123 32.9341C49.3746 31.8681 49.5871 30.9757 49.7643 30.4797C50.1123 31.3497 50.2843 32.185 50.3424 32.9466C51.1041 33.0048 51.9393 33.1768 52.8093 33.5248C52.3133 33.7019 51.421 33.9145 50.355 33.9768C50.2955 35.1085 50.0045 35.9878 49.7643 36.4382C49.472 35.6198 49.3386 34.7781 49.3038 33.9852C48.511 33.9505 47.6692 33.8171 46.8509 33.5248C47.3012 33.2846 48.1805 32.9936 49.3123 32.9341Z" fill="url(#paint1_linear_745_128)"/>
<path fill-rule="evenodd" clip-rule="evenodd" d="M28.9574 25.4274C29.0511 23.8259 29.3703 22.4853 29.6365 21.7401C30.1593 23.0471 30.4177 24.3019 30.5051 25.4462C31.6493 25.5336 32.9041 25.792 34.2111 26.3148C33.466 26.5809 32.1254 26.9002 30.5239 26.9939C30.4346 28.6941 29.9973 30.0151 29.6365 30.6917C29.1974 29.4623 28.997 28.1976 28.9447 27.0065C27.7536 26.9543 26.489 26.7539 25.2595 26.3148C25.9361 25.9539 27.2572 25.5167 28.9574 25.4274Z" fill="url(#paint2_linear_745_128)"/>
<path fill-rule="evenodd" clip-rule="evenodd" d="M30.6997 62.2339C30.8375 59.8777 31.3072 57.9053 31.6988 56.809C32.4679 58.7319 32.8481 60.5781 32.9767 62.2616C34.6602 62.3901 36.5064 62.7703 38.4294 63.5395C37.3331 63.931 35.3606 64.4008 33.0044 64.5386C32.873 67.04 32.2297 68.9835 31.6988 69.9789C31.0528 68.1701 30.758 66.3096 30.6811 64.5572C28.9287 64.4803 27.0682 64.1855 25.2595 63.5395C26.2549 63.0086 28.1984 62.3653 30.6997 62.2339Z" fill="url(#paint3_linear_745_128)"/>
<circle cx="45.0155" cy="48.3014" r="0.865139" fill="#2F235A"/>
<circle cx="64.8695" cy="23.4958" r="0.865139" fill="#FE9076"/>
<circle cx="21.3537" cy="44.8667" r="0.865139" fill="#FFA400"/>
<circle cx="60.1276" cy="61.6446" r="0.865139" fill="#23BB86"/>
<path d="M62.7498 19.8852C60.7938 17.1988 55.284 11.4609 48.8927 10" stroke="#FE9076" stroke-width="0.753022" stroke-linecap="round"/>
<path d="M17.7032 43.0025C14.8123 41.3639 7.42446 38.4142 1.00041 39.7237" stroke="#FFA400" stroke-width="0.753022" stroke-linecap="round"/>
<path d="M57.1582 64.1577C55.6768 65.4647 52.1128 69.1769 49.7077 73.5688" stroke="#23BB86" stroke-width="0.753022" stroke-linecap="round"/>
<path d="M77.9998 95.5C83.875 89.8276 93.9093 83.0305 103.115 92.0302C114.621 103.28 96.5946 120.916 85 120.5L73.6346 132.857C73.7115 133.013 73.6751 133.068 73.5027 133L73.6346 132.857C72.8123 131.183 59.0444 117.866 59.9999 118L77.9998 95.5Z" fill="url(#paint4_linear_745_128)"/>
<path d="M165.162 78.0791C159.897 74.4227 140.306 67.8367 131.17 65.0007H120.907C114.816 66.5106 101.133 70.1396 95.1234 72.5759C89.1721 74.9886 72.2306 100.794 67.6312 107.8L67.5 108L72.5 110C75.5 112 85 119.5 82 123.5C91.745 123.5 89.3579 127.374 89.5027 126.5C88.5282 132.022 87.4763 145.46 87.2056 151.551H158.872V140.482H186.206C188.725 112.921 171.743 82.6496 165.162 78.0791Z" fill="url(#paint5_linear_745_128)"/>
<ellipse rx="12.2025" ry="8.69561" transform="matrix(-1 0 0 1 125.264 73.6963)" fill="#CF0606"/>
<path d="M134.324 72.7985C132.74 63.6913 133.298 55.264 133.546 52.3561C133.199 49.6339 118.795 54.7326 111.865 57.4549C115.775 59.4347 116.836 69.3338 116.877 74.0359C116.753 75.5826 117.718 78.8617 122.569 79.6041C130.686 80.5446 133.788 75.4589 134.324 72.7985Z" fill="url(#paint6_linear_745_128)"/>
<mask id="mask0_745_128" style="mask-type:alpha" maskUnits="userSpaceOnUse" x="111" y="51" width="24" height="29">
<path d="M134.324 72.7985C132.74 63.6913 133.298 55.264 133.546 52.3561C133.199 49.6339 118.795 54.7326 111.865 57.4549C115.775 59.4347 116.836 69.3338 116.877 74.0359C116.753 75.5826 117.718 78.8617 122.569 79.6041C130.686 80.5446 133.788 75.4589 134.324 72.7985Z" fill="#BABABA"/>
</mask>
<g mask="url(#mask0_745_128)">
<path opacity="0.1" d="M114.263 66.9032C124.018 65.3812 131.25 56.8049 133.647 52.707C128.08 51.5584 115.56 49.9504 110.026 52.707C104.491 55.4636 110.545 63.3197 114.263 66.9032Z" fill="black"/>
</g>
<path d="M117.234 59.1224C101.212 58.4258 100.755 36.5148 102.528 25.6464C131.476 1.11024 143.099 20.3896 145.292 33.0963C142.616 42.0619 133.257 59.819 117.234 59.1224Z" fill="url(#paint7_linear_745_128)"/>
<path d="M132.365 32.6981L125.837 38.3051L126.545 41.5751L132.634 36.2313L132.365 32.6981Z" fill="#362B5E"/>
<path d="M139.004 37.7402C133.431 42.4616 133.07 49.8341 133.586 52.9302C135.392 52.4464 140.436 49.3116 146.164 40.6427C155.297 21.989 144.293 8.03747 137.649 3.39341C119.847 -6.959 96.0463 9.10172 100.207 21.3892C104.367 33.6766 124.266 30.8386 131.651 26.13C130.103 30.7741 131.522 35.3536 132.425 37.0629C135.908 28.9358 145.97 31.8383 139.004 37.7402Z" fill="#6B5A50"/>
<path d="M127.074 0.996009C115.219 -2.40903 107.999 3.72845 105.871 7.22283C108.262 5.93543 114.888 4.13307 122.266 7.22283C133.931 12.5826 136.48 24.0116 136.296 29.0561L144.02 28.5043V25.6668C143.311 18.862 138.928 4.40105 127.074 0.996009Z" fill="white"/>
<ellipse rx="9.06652" ry="11.092" transform="matrix(-1 0 0 1 140.857 35.9724)" fill="white"/>
<ellipse rx="9.06652" ry="11.092" transform="matrix(-1 0 0 1 140.857 35.9724)" fill="white"/>
<ellipse rx="4.32772" ry="5.29455" transform="matrix(-1 0 0 1 140.857 35.9724)" fill="#24C28A"/>
<path opacity="0.5" d="M101.242 34.2797C104.602 33.241 108.222 35.4553 109.611 36.6923C112.138 39.1049 108.307 45.2396 103.877 42.4137C100.333 40.153 100.644 36.0491 101.242 34.2797Z" fill="#E6FCFF"/>
<path fill-rule="evenodd" clip-rule="evenodd" d="M111.035 35.964C106.175 31.4739 101.565 32.2416 99.8678 33.1866C98.8856 35.7873 99.8678 43.3869 105.289 44.0606C109.625 44.5996 111.112 41.2468 111.313 39.503C112.137 38.8372 112.684 39.4111 112.855 39.7813C112.713 44.6276 116.609 47.906 120.79 47.1458C124.135 46.5376 125.591 43.1951 125.901 41.5999H126.592V38.7642C122.237 34.4994 116.219 35.5447 113.755 36.6005C113.107 36.0913 111.672 35.964 111.035 35.964ZM101.497 34.5839C104.857 33.5452 107.928 35.3249 109.318 36.5619C111.844 38.9745 108.526 44.8851 103.889 42.4136C101.112 40.9336 100.899 36.3533 101.497 34.5839ZM120.499 37.7464C118.664 37.1492 114.922 36.7496 114.636 39.9289C114.277 43.9031 117.893 46.8349 121.053 45.2713C123.341 44.1392 124.278 41.8183 124.278 40.3524C124.278 39.1797 121.759 38.1264 120.499 37.7464Z" fill="#362B5E"/>
<path opacity="0.5" d="M114.624 39.9291C114.91 36.7497 118.652 37.1493 120.487 37.7465C121.747 38.1266 124.266 39.1798 124.266 40.3526C124.266 41.8184 123.329 44.1393 121.041 45.2714C117.881 46.835 114.265 43.9033 114.624 39.9291Z" fill="#E6FCFF"/>
<path d="M186.229 140.517C183.41 153.078 166.672 153.104 158.655 151.546L96.8611 142.619C96.0645 143.31 94.1569 145.135 92.8991 146.897C91.6413 148.659 90.4883 147.42 90.069 146.581C88.2578 148.543 86.9246 147.609 86.4843 146.897C84.9247 148.861 83.6124 148.175 83.1512 147.587C80.9878 149.197 80.4417 147.798 80.4391 146.897C83.3904 140.647 88.6854 134.383 90.964 132.032L106.371 133.443L156.434 128.338C165.932 121.675 189.752 124.815 186.229 140.517Z" fill="url(#paint8_linear_745_128)"/>
<path d="M108.756 148.308H76.4294V148.308C76.4294 150.099 77.8813 151.551 79.6724 151.551H105.513C107.304 151.551 108.756 150.099 108.756 148.308V148.308Z" fill="#B4B4B4"/>
<path d="M66.1226 108.396C65.8966 107.854 65.3668 107.501 64.7795 107.501H10.1856C9.14722 107.501 8.44305 108.558 8.84262 109.516L25.9933 150.655C26.2193 151.197 26.749 151.551 27.3363 151.551H81.9302C82.9687 151.551 83.6728 150.494 83.2733 149.536L66.1226 108.396Z" fill="url(#paint9_linear_745_128)"/>
<path d="M156.415 128.324L154.966 116.912" stroke="#30235B" stroke-width="0.291011"/>
<path d="M89.28 126.444C89.4974 125.104 89.867 121.867 89.6061 119.633" stroke="#30235B" stroke-width="0.291011"/>
<path d="M89.6737 122.131L90.9209 119.604" stroke="#30235B" stroke-width="0.291011"/>
<path d="M90.1151 146.476L94.1641 141.366" stroke="#30235B" stroke-width="0.291011"/>
<path d="M86.5311 146.729L92.8503 138.528" stroke="#30235B" stroke-width="0.291011"/>
<path d="M83.209 147.481L91.064 136.163" stroke="#30235B" stroke-width="0.291011"/>
<ellipse rx="3.69345" ry="5.34721" transform="matrix(-0.940289 0.340376 0.340376 0.940289 44.0757 130.575)" fill="white"/>
<path d="M142.688 46.504C145.212 45.9739 150.219 42.6631 149.767 35.0566" stroke="#30235B" stroke-width="0.446064"/>
<path d="M107.125 5.71082C108.499 3.67097 111.746 0.656058 118.291 0.346863" stroke="#30235B" stroke-width="0.446064"/>
<defs>
<linearGradient id="paint0_linear_745_128" x1="62.7227" y1="40.7362" x2="62.7227" y2="49.1412" gradientUnits="userSpaceOnUse">
<stop stop-color="#FFE89E"/>
<stop offset="1" stop-color="#FFBF1A"/>
</linearGradient>
<linearGradient id="paint1_linear_745_128" x1="49.8301" y1="31.1139" x2="49.8301" y2="36.7085" gradientUnits="userSpaceOnUse">
<stop stop-color="#FFE89E"/>
<stop offset="1" stop-color="#FFBF1A"/>
</linearGradient>
<linearGradient id="paint2_linear_745_128" x1="29.7354" y1="22.6929" x2="29.7354" y2="31.0979" gradientUnits="userSpaceOnUse">
<stop stop-color="#FFE89E"/>
<stop offset="1" stop-color="#FFBF1A"/>
</linearGradient>
<linearGradient id="paint3_linear_745_128" x1="31.8445" y1="58.2108" x2="31.8445" y2="70.5765" gradientUnits="userSpaceOnUse">
<stop stop-color="#FFE89E"/>
<stop offset="1" stop-color="#FFBF1A"/>
</linearGradient>
<linearGradient id="paint4_linear_745_128" x1="76.5443" y1="147.911" x2="55.0841" y2="114.865" gradientUnits="userSpaceOnUse">
<stop offset="0.419792" stop-color="#FFBE99"/>
<stop offset="1" stop-color="#FFEFE0"/>
</linearGradient>
<linearGradient id="paint5_linear_745_128" x1="124.283" y1="50.77" x2="130.109" y2="167.445" gradientUnits="userSpaceOnUse">
<stop stop-color="#FF9F81"/>
<stop offset="1" stop-color="#F53838"/>
</linearGradient>
<linearGradient id="paint6_linear_745_128" x1="124.347" y1="19.1886" x2="125.388" y2="71.0105" gradientUnits="userSpaceOnUse">
<stop stop-color="#FFEFE0"/>
<stop offset="1" stop-color="#FFBE99"/>
</linearGradient>
<linearGradient id="paint7_linear_745_128" x1="123.557" y1="13.8252" x2="123.557" y2="59.1423" gradientUnits="userSpaceOnUse">
<stop stop-color="#FFEFE0"/>
<stop offset="1" stop-color="#FFBE99"/>
</linearGradient>
<linearGradient id="paint8_linear_745_128" x1="133.51" y1="108.123" x2="133.51" y2="147.525" gradientUnits="userSpaceOnUse">
<stop offset="0.0677966" stop-color="#FFEFE0"/>
<stop offset="1" stop-color="#FFBE99"/>
</linearGradient>
<linearGradient id="paint9_linear_745_128" x1="30.3421" y1="74.442" x2="51.7876" y2="163.401" gradientUnits="userSpaceOnUse">
<stop offset="0.0171777" stop-color="white"/>
<stop offset="1" stop-color="#D7D7D7"/>
</linearGradient>
</defs>
</svg>
