<svg width="242" height="158" viewBox="0 0 242 158" fill="none" xmlns="http://www.w3.org/2000/svg">
<path d="M132.999 100.5C138.875 94.8276 148.909 88.0305 158.114 97.0302C169.621 108.28 151.594 125.916 140 125.5L128.634 137.857C128.711 138.013 128.675 138.068 128.502 138L128.634 137.857C127.812 136.183 114.044 122.866 114.999 123L132.999 100.5Z" fill="url(#paint0_linear_829_341)"/>
<path d="M220.161 83.079C214.896 79.4226 195.306 72.8366 186.169 70.0006H175.906C169.816 71.5106 156.132 75.1396 150.123 77.5758C144.172 79.9885 127.23 105.794 122.631 112.8L122.5 113L127.5 115C130.5 117 140 124.5 137 128.5C146.744 128.5 144.357 132.374 144.502 131.5C143.528 137.022 142.476 150.46 142.205 156.551H213.871V145.481H241.205C243.724 117.92 226.743 87.6495 220.161 83.079Z" fill="url(#paint1_linear_829_341)"/>
<ellipse rx="12.2025" ry="8.69561" transform="matrix(-1 0 0 1 180.264 78.6962)" fill="#CF0606"/>
<path d="M189.323 77.7985C187.74 68.6913 188.298 60.264 188.545 57.3561C188.199 54.6339 173.794 59.7326 166.865 62.4549C170.775 64.4347 171.835 74.3338 171.876 79.0359C171.753 80.5826 172.718 83.8617 177.568 84.6041C185.686 85.5446 188.787 80.4589 189.323 77.7985Z" fill="url(#paint2_linear_829_341)"/>
<mask id="mask0_829_341" style="mask-type:alpha" maskUnits="userSpaceOnUse" x="166" y="56" width="24" height="29">
<path d="M189.323 77.7985C187.74 68.6913 188.298 60.264 188.545 57.3561C188.199 54.6339 173.794 59.7326 166.865 62.4549C170.775 64.4347 171.835 74.3338 171.876 79.0359C171.753 80.5826 172.718 83.8617 177.568 84.6041C185.686 85.5446 188.787 80.4589 189.323 77.7985Z" fill="#BABABA"/>
</mask>
<g mask="url(#mask0_829_341)">
<path opacity="0.1" d="M172.386 75.5469C182.259 75.5954 190.763 68.2783 193.781 64.6137C188.467 62.5943 176.363 59.0161 170.46 60.8575C164.558 62.6989 169.285 71.4177 172.386 75.5469Z" fill="black"/>
</g>
<ellipse rx="9.06652" ry="11.092" transform="matrix(-1 0 0 1 195.856 40.9724)" fill="white"/>
<path d="M241.229 145.517C238.41 158.078 221.672 158.104 213.655 156.546L151.861 147.619C151.064 148.31 149.156 150.135 147.899 151.897C146.641 153.659 145.488 152.42 145.069 151.581C143.257 153.543 141.924 152.609 141.484 151.897C139.924 153.861 138.612 153.175 138.151 152.587C135.987 154.197 135.441 152.798 135.439 151.897C138.39 145.647 143.685 139.383 145.963 137.032L161.371 138.443L211.434 133.338C220.931 126.675 244.752 129.815 241.229 145.517Z" fill="url(#paint3_linear_829_341)"/>
<path d="M163.756 153.308H131.429V153.308C131.429 155.099 132.881 156.551 134.672 156.551H160.513C162.304 156.551 163.756 155.099 163.756 153.308V153.308Z" fill="#B4B4B4"/>
<path d="M121.122 113.396C120.896 112.854 120.366 112.501 119.779 112.501H65.1851C64.1467 112.501 63.4426 113.558 63.8421 114.516L80.9928 155.655C81.2188 156.197 81.7486 156.551 82.3359 156.551H136.93C137.968 156.551 138.672 155.494 138.273 154.536L121.122 113.396Z" fill="url(#paint4_linear_829_341)"/>
<path d="M211.415 133.324L209.965 121.912" stroke="#30235B" stroke-width="0.291011"/>
<path d="M144.279 131.444C144.497 130.104 144.866 126.866 144.606 124.633" stroke="#30235B" stroke-width="0.291011"/>
<path d="M144.673 127.131L145.92 124.604" stroke="#30235B" stroke-width="0.291011"/>
<path d="M145.115 151.476L149.164 146.366" stroke="#30235B" stroke-width="0.291011"/>
<path d="M141.531 151.729L147.85 143.528" stroke="#30235B" stroke-width="0.291011"/>
<path d="M138.209 152.481L146.063 141.163" stroke="#30235B" stroke-width="0.291011"/>
<ellipse rx="3.69345" ry="5.34721" transform="matrix(-0.940289 0.340376 0.340376 0.940289 99.0752 135.575)" fill="white"/>
<path d="M179.405 70.5981C161.496 70.5981 158.417 44.8918 163.95 33.1338C176.399 17.9174 191.962 26.7936 198.186 33.1338C199.685 42.9322 201.338 70.5981 179.405 70.5981Z" fill="url(#paint5_linear_829_341)"/>
<path d="M198.493 50.9324L194.984 48.3476L195.527 46.4235L199.534 49.0659L198.493 50.9324Z" fill="#30235B"/>
<path d="M161.938 50.1828L165.446 47.598L164.903 45.6738L160.896 48.3163L161.938 50.1828Z" fill="#30235B"/>
<path d="M165.148 34.6788C177.845 42.9507 191.92 38.1254 197.371 34.6788C196.223 38.2983 197.849 45.2558 198.805 48.282C207.066 37.5237 204.366 31.7143 201.983 30.1543C201.585 24.7924 196.711 11.3863 180.347 12.0218C163.984 12.6573 160.808 24.2629 161.272 28.5656C155.076 36.9858 158.762 45.2183 161.751 48.282C165.148 41.6856 165.071 37.0581 165.148 34.6788Z" fill="#6B5A50"/>
<g filter="url(#filter0_d_829_341)">
<path d="M181.648 20.3005C162.694 19.666 158.472 32.1311 157.905 39.3695C157.86 39.9491 157.386 40.4055 156.805 40.4055C156.184 40.4055 155.69 39.8883 155.745 39.2705C156.572 29.9895 161.52 13.7717 181.648 14.8899C201.971 16.0189 205.947 32.1975 205.323 41.2162C205.29 41.6987 204.882 42.0635 204.398 42.0635C203.871 42.0635 203.447 41.6354 203.426 41.1082C203.127 33.6253 198.152 20.7789 181.648 20.3005Z" fill="white"/>
</g>
<g filter="url(#filter1_d_829_341)">
<rect x="205.702" y="45.0233" width="2.57263" height="9.87247" rx="1.28631" transform="rotate(10.0542 205.702 45.0233)" fill="#24C28A"/>
</g>
<g filter="url(#filter2_d_829_341)">
<rect width="2.57263" height="9.87247" rx="1.28631" transform="matrix(-0.984643 0.17458 0.17458 0.984643 154.533 45.0233)" fill="#24C28A"/>
</g>
<mask id="mask1_829_341" style="mask-type:alpha" maskUnits="userSpaceOnUse" x="152" y="39" width="11" height="21">
<rect width="7.92444" height="20.5658" rx="3.96222" transform="matrix(-0.984643 0.17458 0.17458 0.984643 159.989 38.6228)" fill="white"/>
</mask>
<g mask="url(#mask1_829_341)">
<rect x="156.257" y="38.6228" width="10.3079" height="22.3246" transform="rotate(-10.0977 156.257 38.6228)" fill="#E8E8E8"/>
</g>
<mask id="mask2_829_341" style="mask-type:alpha" maskUnits="userSpaceOnUse" x="197" y="39" width="11" height="21">
<rect x="200.176" y="38.6229" width="7.92444" height="20.5658" rx="3.96222" transform="rotate(10.0542 200.176 38.6229)" fill="white"/>
</mask>
<g mask="url(#mask2_829_341)">
<rect width="10.3079" height="22.3246" transform="matrix(-0.98451 -0.175326 -0.175326 0.98451 204.388 38.6229)" fill="#E8E8E8"/>
</g>
<path opacity="0.5" d="M171.688 53.935C169.154 53.935 167.878 51.9383 167.554 51.0467C167.181 50.301 166.887 48.3583 167.769 46.8152C168.892 44.8531 174.168 44.3059 176.016 47.0779C177.864 49.8499 176.016 53.935 171.688 53.935Z" fill="#E6FCFF"/>
<path opacity="0.5" d="M188.475 53.935C191.009 53.935 192.285 51.9383 192.609 51.0467C192.982 50.301 193.276 48.3583 192.394 46.8152C191.271 44.8531 185.995 44.3059 184.147 47.0779C182.299 49.8499 184.147 53.935 188.475 53.935Z" fill="#E6FCFF"/>
<path fill-rule="evenodd" clip-rule="evenodd" d="M177.325 46.4673C173.193 42.8387 169.461 44.374 167.249 45.2838L167.249 45.2838C167.003 45.3849 166.776 45.4784 166.569 45.5561L165.185 45.5587C164.924 45.5592 164.713 45.7719 164.716 46.0327L164.726 47.1967C164.728 47.4545 164.938 47.6623 165.196 47.6623L166.197 47.6624C165.472 53.8879 170.063 55.554 173.735 54.4318C177.008 53.4314 177.885 50.6006 178.06 48.8247C178.76 47.2731 181.83 47.99 181.951 48.7902L181.961 48.8531C182.105 49.8275 182.831 54.7363 188.357 54.7433C192.884 54.7489 194.112 50.7048 194.16 48.682L195.332 48.6716C195.591 48.6693 195.8 48.4571 195.797 48.1976L195.785 46.7736C195.782 46.5141 195.57 46.3056 195.311 46.3079L194.139 46.3183C191.19 43.3311 184.856 43.6108 182.625 46.4204C180.164 45.8527 178.066 46.2151 177.325 46.4673ZM171.688 53.9351C169.154 53.9351 167.878 51.9384 167.554 51.0468C167.181 50.3011 166.887 48.3584 167.77 46.8153C168.892 44.8532 174.168 44.306 176.016 47.078C177.864 49.85 176.016 53.9351 171.688 53.9351ZM192.609 51.0468C192.285 51.9384 191.009 53.935 188.475 53.935C184.147 53.935 182.299 49.85 184.147 47.078C185.995 44.306 191.271 44.8532 192.394 46.8153C193.276 48.3584 192.982 50.3011 192.609 51.0468Z" fill="#362B5E"/>
<rect width="53.9929" height="4.42275" transform="matrix(0.459754 0.888046 0.888046 -0.459754 1.22314 105.435)" fill="#E0E0E0"/>
<rect width="24.9635" height="6.67344" rx="1.45505" transform="matrix(-1 0 0 1 39.3684 150.047)" fill="#30235B"/>
<rect width="29.0015" height="4.42275" transform="matrix(0.763409 -0.645916 -0.645916 -0.763409 4.07983 105.868)" fill="#E0E0E0"/>
<rect width="8.5567" height="1.52344" transform="matrix(0.951746 0.306886 0.306886 -0.951746 25.7485 85.2095)" fill="#E0E0E0"/>
<circle r="3.08968" transform="matrix(-1 0 0 1 3.09001 104.087)" fill="#30235B"/>
<path d="M27.6812 82.977L23.3526 83.7806L26.2128 87.1274L27.6812 82.977Z" fill="#30235B"/>
<path d="M41.1622 81.5346C40.1652 79.0302 37.3267 77.8082 34.8224 78.8053V78.8053C32.318 79.8023 31.096 82.6407 32.0931 85.1451L34.8499 92.0699L43.919 88.4594L41.1622 81.5346Z" fill="#30235B"/>
<path d="M38.2865 88.6C48.3515 84.6479 55.0478 93.5011 57.4123 98.1897C50.424 108.153 37.6225 109.177 31.8209 108.675C29.7824 103.63 28.2216 92.5521 38.2865 88.6Z" fill="#30235B"/>
<path d="M65.5807 38.9221C64.3966 37.1699 62 38.1244 62 40.0331C62 41.4664 65.2856 43.7085 65.5807 44C65.8778 43.7085 69 41.4664 69 40.0331C69 38.1389 66.767 37.1699 65.5807 38.9221V38.9221Z" fill="#FFBCBC"/>
<path d="M92.5576 34.6147C91.7118 33.4466 90 34.083 90 35.3554C90 36.3109 92.3468 37.8056 92.5576 38C92.7699 37.8056 95 36.3109 95 35.3554C95 34.0926 93.405 33.4466 92.5576 34.6147V34.6147Z" fill="#FFBCBC"/>
<path d="M82.0461 42.461C81.3695 41.585 80 42.0622 80 43.0166C80 43.7332 81.8775 44.8542 82.0461 45C82.2159 44.8542 84 43.7332 84 43.0166C84 42.0695 82.724 41.585 82.0461 42.461V42.461Z" fill="#FFBCBC"/>
<path d="M79.0461 28.461C78.3695 27.585 77 28.0622 77 29.0166C77 29.7332 78.8775 30.8542 79.0461 31C79.2159 30.8542 81 29.7332 81 29.0166C81 28.0695 79.724 27.585 79.0461 28.461V28.461Z" fill="#FFBCBC"/>
<path d="M109.069 40.7684C108.054 39.3083 106 40.1037 106 41.6943C106 42.8887 108.816 44.7571 109.069 45C109.324 44.7571 112 42.8887 112 41.6943C112 40.1158 110.086 39.3083 109.069 40.7684V40.7684Z" fill="#FFBCBC"/>
<path d="M58.083 61C57.9994 61 57.931 60.9734 57.8778 60.9202C57.8246 60.867 57.798 60.7986 57.798 60.715V53.305C57.798 53.2214 57.8246 53.153 57.8778 53.0998C57.931 53.0466 57.9994 53.02 58.083 53.02H63.3156C63.3992 53.02 63.4676 53.0466 63.5208 53.0998C63.5816 53.153 63.612 53.2214 63.612 53.305V54.4564C63.612 54.54 63.5816 54.6084 63.5208 54.6616C63.4676 54.7148 63.3992 54.7414 63.3156 54.7414H59.8044V56.4172H63.0876C63.1712 56.4172 63.2396 56.4476 63.2928 56.5084C63.3536 56.5616 63.384 56.63 63.384 56.7136V57.8536C63.384 57.9296 63.3536 57.998 63.2928 58.0588C63.2396 58.112 63.1712 58.1386 63.0876 58.1386H59.8044V60.715C59.8044 60.7986 59.7778 60.867 59.7246 60.9202C59.6714 60.9734 59.603 61 59.5194 61H58.083ZM64.8933 61C64.8097 61 64.7413 60.9734 64.6881 60.9202C64.6349 60.867 64.6083 60.7986 64.6083 60.715V55.357C64.6083 55.281 64.6349 55.2164 64.6881 55.1632C64.7413 55.1024 64.8097 55.072 64.8933 55.072H66.2043C66.2879 55.072 66.3563 55.1024 66.4095 55.1632C66.4627 55.2164 66.4893 55.281 66.4893 55.357V55.813C66.6945 55.5774 66.9377 55.395 67.2189 55.2658C67.5077 55.1366 67.8307 55.072 68.1879 55.072H68.6895C68.7655 55.072 68.8301 55.0986 68.8833 55.1518C68.9441 55.205 68.9745 55.2734 68.9745 55.357V56.5312C68.9745 56.6072 68.9441 56.6756 68.8833 56.7364C68.8301 56.7896 68.7655 56.8162 68.6895 56.8162H67.5837C67.2721 56.8162 67.0289 56.9036 66.8541 57.0784C66.6869 57.2456 66.6033 57.485 66.6033 57.7966V60.715C66.6033 60.7986 66.5729 60.867 66.5121 60.9202C66.4589 60.9734 66.3905 61 66.3069 61H64.8933ZM72.545 61.114C71.9066 61.114 71.367 61.0114 70.9262 60.8062C70.493 60.601 70.1586 60.3084 69.923 59.9284C69.695 59.5408 69.5658 59.081 69.5354 58.549C69.5278 58.397 69.524 58.226 69.524 58.036C69.524 57.8384 69.5278 57.6674 69.5354 57.523C69.5658 56.9834 69.7026 56.5236 69.9458 56.1436C70.189 55.7636 70.5272 55.471 70.9604 55.2658C71.4012 55.0606 71.9294 54.958 72.545 54.958C73.1682 54.958 73.6964 55.0606 74.1296 55.2658C74.5704 55.471 74.9124 55.7636 75.1556 56.1436C75.3988 56.5236 75.5356 56.9834 75.566 57.523C75.5736 57.6674 75.5774 57.8384 75.5774 58.036C75.5774 58.226 75.5736 58.397 75.566 58.549C75.5356 59.081 75.4026 59.5408 75.167 59.9284C74.939 60.3084 74.6046 60.601 74.1638 60.8062C73.7306 61.0114 73.191 61.114 72.545 61.114ZM72.545 59.7232C72.887 59.7232 73.134 59.6206 73.286 59.4154C73.4456 59.2102 73.5368 58.9024 73.5596 58.492C73.5672 58.378 73.571 58.226 73.571 58.036C73.571 57.846 73.5672 57.694 73.5596 57.58C73.5368 57.1772 73.4456 56.8732 73.286 56.668C73.134 56.4552 72.887 56.3488 72.545 56.3488C72.2106 56.3488 71.9636 56.4552 71.804 56.668C71.6444 56.8732 71.557 57.1772 71.5418 57.58C71.5342 57.694 71.5304 57.846 71.5304 58.036C71.5304 58.226 71.5342 58.378 71.5418 58.492C71.557 58.9024 71.6444 59.2102 71.804 59.4154C71.9636 59.6206 72.2106 59.7232 72.545 59.7232ZM76.9836 61C76.9 61 76.8316 60.9734 76.7784 60.9202C76.7252 60.867 76.6986 60.7986 76.6986 60.715V55.357C76.6986 55.2734 76.7252 55.205 76.7784 55.1518C76.8316 55.0986 76.9 55.072 76.9836 55.072H78.2946C78.3782 55.072 78.4466 55.0986 78.4998 55.1518C78.553 55.205 78.5796 55.2734 78.5796 55.357V55.7902C78.7772 55.5546 79.0356 55.357 79.3548 55.1974C79.674 55.0378 80.0502 54.958 80.4834 54.958C80.9242 54.958 81.3118 55.0568 81.6462 55.2544C81.9882 55.452 82.2542 55.7446 82.4442 56.1322C82.6418 56.5122 82.7406 56.9796 82.7406 57.5344V60.715C82.7406 60.7986 82.7102 60.867 82.6494 60.9202C82.5962 60.9734 82.5316 61 82.4556 61H81.0192C80.9432 61 80.8748 60.9734 80.814 60.9202C80.7608 60.867 80.7342 60.7986 80.7342 60.715V57.6028C80.7342 57.2456 80.6468 56.972 80.472 56.782C80.3048 56.5844 80.054 56.4856 79.7196 56.4856C79.408 56.4856 79.1572 56.5844 78.9672 56.782C78.7848 56.972 78.6936 57.2456 78.6936 57.6028V60.715C78.6936 60.7986 78.6632 60.867 78.6024 60.9202C78.5492 60.9734 78.4846 61 78.4086 61H76.9836ZM86.9896 61C86.5032 61 86.0814 60.924 85.7242 60.772C85.3746 60.6124 85.1048 60.3692 84.9148 60.0424C84.7248 59.708 84.6298 59.2786 84.6298 58.7542V56.5654H83.7406C83.657 56.5654 83.5848 56.5388 83.524 56.4856C83.4708 56.4324 83.4442 56.364 83.4442 56.2804V55.357C83.4442 55.2734 83.4708 55.205 83.524 55.1518C83.5848 55.0986 83.657 55.072 83.7406 55.072H84.6298V53.191C84.6298 53.1074 84.6564 53.039 84.7096 52.9858C84.7704 52.9326 84.8388 52.906 84.9148 52.906H86.2372C86.3208 52.906 86.3892 52.9326 86.4424 52.9858C86.4956 53.039 86.5222 53.1074 86.5222 53.191V55.072H87.9472C88.0308 55.072 88.0992 55.0986 88.1524 55.1518C88.2056 55.205 88.2322 55.2734 88.2322 55.357V56.2804C88.2322 56.364 88.2056 56.4324 88.1524 56.4856C88.0992 56.5388 88.0308 56.5654 87.9472 56.5654H86.5222V58.5946C86.5222 58.853 86.5716 59.0582 86.6704 59.2102C86.7692 59.3622 86.9364 59.4382 87.172 59.4382H88.0498C88.1334 59.4382 88.2018 59.4648 88.255 59.518C88.3082 59.5712 88.3348 59.6396 88.3348 59.7232V60.715C88.3348 60.7986 88.3082 60.867 88.255 60.9202C88.2018 60.9734 88.1334 61 88.0498 61H86.9896ZM89.4963 58.4008C89.4127 58.4008 89.3443 58.3742 89.2911 58.321C89.2379 58.2678 89.2113 58.1994 89.2113 58.1158V57.0442C89.2113 56.9606 89.2379 56.8922 89.2911 56.839C89.3443 56.7858 89.4127 56.7592 89.4963 56.7592H93.0645C93.1481 56.7592 93.2165 56.7858 93.2697 56.839C93.3229 56.8922 93.3495 56.9606 93.3495 57.0442V58.1158C93.3495 58.1994 93.3229 58.2678 93.2697 58.321C93.2165 58.3742 93.1481 58.4008 93.0645 58.4008H89.4963ZM95.0439 61C94.9603 61 94.8919 60.9734 94.8387 60.9202C94.7855 60.867 94.7589 60.7986 94.7589 60.715V53.305C94.7589 53.2214 94.7855 53.153 94.8387 53.0998C94.8919 53.0466 94.9603 53.02 95.0439 53.02H100.368C100.451 53.02 100.52 53.0466 100.573 53.0998C100.626 53.153 100.653 53.2214 100.653 53.305V54.3766C100.653 54.4602 100.626 54.5286 100.573 54.5818C100.52 54.635 100.451 54.6616 100.368 54.6616H96.7311V56.2006H100.117C100.201 56.2006 100.269 56.231 100.322 56.2918C100.375 56.345 100.402 56.4134 100.402 56.497V57.4888C100.402 57.5648 100.375 57.6332 100.322 57.694C100.269 57.7472 100.201 57.7738 100.117 57.7738H96.7311V59.3584H100.459C100.543 59.3584 100.611 59.385 100.664 59.4382C100.717 59.4914 100.744 59.5598 100.744 59.6434V60.715C100.744 60.7986 100.717 60.867 100.664 60.9202C100.611 60.9734 100.543 61 100.459 61H95.0439ZM102.199 61C102.116 61 102.047 60.9734 101.994 60.9202C101.941 60.867 101.914 60.7986 101.914 60.715V55.357C101.914 55.2734 101.941 55.205 101.994 55.1518C102.047 55.0986 102.116 55.072 102.199 55.072H103.51C103.594 55.072 103.662 55.0986 103.716 55.1518C103.769 55.205 103.795 55.2734 103.795 55.357V55.7902C103.993 55.5546 104.251 55.357 104.571 55.1974C104.89 55.0378 105.266 54.958 105.699 54.958C106.14 54.958 106.528 55.0568 106.862 55.2544C107.204 55.452 107.47 55.7446 107.66 56.1322C107.858 56.5122 107.956 56.9796 107.956 57.5344V60.715C107.956 60.7986 107.926 60.867 107.865 60.9202C107.812 60.9734 107.747 61 107.671 61H106.235C106.159 61 106.091 60.9734 106.03 60.9202C105.977 60.867 105.95 60.7986 105.95 60.715V57.6028C105.95 57.2456 105.863 56.972 105.688 56.782C105.521 56.5844 105.27 56.4856 104.935 56.4856C104.624 56.4856 104.373 56.5844 104.183 56.782C104.001 56.972 103.909 57.2456 103.909 57.6028V60.715C103.909 60.7986 103.879 60.867 103.818 60.9202C103.765 60.9734 103.7 61 103.624 61H102.199ZM111.44 61.114C111.075 61.114 110.745 61.057 110.448 60.943C110.16 60.8214 109.909 60.6466 109.696 60.4186C109.491 60.183 109.331 59.9018 109.217 59.575C109.103 59.2406 109.039 58.8606 109.023 58.435C109.016 58.283 109.012 58.15 109.012 58.036C109.012 57.9144 109.016 57.7814 109.023 57.637C109.039 57.2266 109.103 56.858 109.217 56.5312C109.331 56.2044 109.491 55.9232 109.696 55.6876C109.901 55.452 110.152 55.2734 110.448 55.1518C110.745 55.0226 111.075 54.958 111.44 54.958C111.82 54.958 112.147 55.0226 112.421 55.1518C112.694 55.2734 112.926 55.433 113.116 55.6306V53.191C113.116 53.1074 113.143 53.039 113.196 52.9858C113.249 52.9326 113.317 52.906 113.401 52.906H114.792C114.868 52.906 114.932 52.9326 114.986 52.9858C115.046 53.039 115.077 53.1074 115.077 53.191V60.715C115.077 60.7986 115.046 60.867 114.986 60.9202C114.932 60.9734 114.868 61 114.792 61H113.504C113.42 61 113.352 60.9734 113.298 60.9202C113.245 60.867 113.219 60.7986 113.219 60.715V60.3502C113.036 60.5706 112.801 60.753 112.512 60.8974C112.223 61.0418 111.866 61.114 111.44 61.114ZM112.056 59.5864C112.314 59.5864 112.516 59.5332 112.66 59.4268C112.812 59.3128 112.922 59.1684 112.991 58.9936C113.067 58.8188 113.108 58.6288 113.116 58.4236C113.124 58.2716 113.127 58.1272 113.127 57.9904C113.127 57.8536 113.124 57.713 113.116 57.5686C113.108 57.3786 113.067 57.2038 112.991 57.0442C112.915 56.877 112.801 56.744 112.649 56.6452C112.497 56.5388 112.299 56.4856 112.056 56.4856C111.805 56.4856 111.604 56.5388 111.452 56.6452C111.307 56.7516 111.205 56.896 111.144 57.0784C111.083 57.2608 111.045 57.4622 111.03 57.6826C111.007 57.9182 111.007 58.1538 111.03 58.3894C111.045 58.6098 111.083 58.8112 111.144 58.9936C111.205 59.176 111.307 59.3204 111.452 59.4268C111.604 59.5332 111.805 59.5864 112.056 59.5864Z" fill="black" fill-opacity="0.3"/>
<defs>
<filter id="filter0_d_829_341" x="139.767" y="0.740189" width="81.5902" height="59.1767" filterUnits="userSpaceOnUse" color-interpolation-filters="sRGB">
<feFlood flood-opacity="0" result="BackgroundImageFix"/>
<feColorMatrix in="SourceAlpha" type="matrix" values="0 0 0 0 0 0 0 0 0 0 0 0 0 0 0 0 0 0 127 0" result="hardAlpha"/>
<feOffset dy="1.8793"/>
<feGaussianBlur stdDeviation="7.98704"/>
<feColorMatrix type="matrix" values="0 0 0 0 0.0386285 0 0 0 0 0.0648437 0 0 0 0 0.104167 0 0 0 0.13 0"/>
<feBlend mode="normal" in2="BackgroundImageFix" result="effect1_dropShadow_829_341"/>
<feBlend mode="normal" in="SourceGraphic" in2="effect1_dropShadow_829_341" result="shape"/>
</filter>
<filter id="filter1_d_829_341" x="188.209" y="31.1331" width="35.7958" height="41.709" filterUnits="userSpaceOnUse" color-interpolation-filters="sRGB">
<feFlood flood-opacity="0" result="BackgroundImageFix"/>
<feColorMatrix in="SourceAlpha" type="matrix" values="0 0 0 0 0 0 0 0 0 0 0 0 0 0 0 0 0 0 127 0" result="hardAlpha"/>
<feOffset dy="1.8793"/>
<feGaussianBlur stdDeviation="7.98704"/>
<feColorMatrix type="matrix" values="0 0 0 0 0.0386285 0 0 0 0 0.0648437 0 0 0 0 0.104167 0 0 0 0.13 0"/>
<feBlend mode="normal" in2="BackgroundImageFix" result="effect1_dropShadow_829_341"/>
<feBlend mode="normal" in="SourceGraphic" in2="effect1_dropShadow_829_341" result="shape"/>
</filter>
<filter id="filter2_d_829_341" x="136.231" y="31.1331" width="35.7958" height="41.709" filterUnits="userSpaceOnUse" color-interpolation-filters="sRGB">
<feFlood flood-opacity="0" result="BackgroundImageFix"/>
<feColorMatrix in="SourceAlpha" type="matrix" values="0 0 0 0 0 0 0 0 0 0 0 0 0 0 0 0 0 0 127 0" result="hardAlpha"/>
<feOffset dy="1.8793"/>
<feGaussianBlur stdDeviation="7.98704"/>
<feColorMatrix type="matrix" values="0 0 0 0 0.0386285 0 0 0 0 0.0648437 0 0 0 0 0.104167 0 0 0 0.13 0"/>
<feBlend mode="normal" in2="BackgroundImageFix" result="effect1_dropShadow_829_341"/>
<feBlend mode="normal" in="SourceGraphic" in2="effect1_dropShadow_829_341" result="shape"/>
</filter>
<linearGradient id="paint0_linear_829_341" x1="131.544" y1="152.911" x2="110.084" y2="119.865" gradientUnits="userSpaceOnUse">
<stop offset="0.419792" stop-color="#FFBE99"/>
<stop offset="1" stop-color="#FFEFE0"/>
</linearGradient>
<linearGradient id="paint1_linear_829_341" x1="179.283" y1="55.7699" x2="185.108" y2="172.445" gradientUnits="userSpaceOnUse">
<stop stop-color="#FF9F81"/>
<stop offset="1" stop-color="#F53838"/>
</linearGradient>
<linearGradient id="paint2_linear_829_341" x1="179.346" y1="24.1886" x2="180.388" y2="76.0105" gradientUnits="userSpaceOnUse">
<stop stop-color="#FFEFE0"/>
<stop offset="1" stop-color="#FFBE99"/>
</linearGradient>
<linearGradient id="paint3_linear_829_341" x1="188.51" y1="113.123" x2="188.51" y2="152.525" gradientUnits="userSpaceOnUse">
<stop offset="0.0677966" stop-color="#FFEFE0"/>
<stop offset="1" stop-color="#FFBE99"/>
</linearGradient>
<linearGradient id="paint4_linear_829_341" x1="85.3416" y1="79.4419" x2="106.787" y2="168.401" gradientUnits="userSpaceOnUse">
<stop offset="0.0171777" stop-color="white"/>
<stop offset="1" stop-color="#D7D7D7"/>
</linearGradient>
<linearGradient id="paint5_linear_829_341" x1="180.855" y1="28.8819" x2="180.855" y2="66.3359" gradientUnits="userSpaceOnUse">
<stop stop-color="#FFEFE0"/>
<stop offset="1" stop-color="#FFBE99"/>
</linearGradient>
</defs>
</svg>
