<svg width="70" height="21" viewBox="0 0 70 21" fill="none" xmlns="http://www.w3.org/2000/svg">
<path fill-rule="evenodd" clip-rule="evenodd" d="M43.2314 16.4226C39.182 19.4075 33.3124 21 28.2588 21C21.1729 21 14.7937 18.3791 9.9676 14.0202C9.58851 13.6774 9.92823 13.2103 10.3832 13.4772C15.5915 16.5076 22.0313 18.3306 28.6835 18.3306C33.1698 18.3306 38.1051 17.4024 42.643 15.4762C43.3285 15.185 43.9018 15.9251 43.2314 16.4226" fill="#9A9A9A"/>
<path fill-rule="evenodd" clip-rule="evenodd" d="M44.915 14.4965C44.3994 13.8352 41.4934 14.184 40.189 14.3387C39.7916 14.3873 39.731 14.0415 40.0889 13.7928C42.4034 12.1639 46.2012 12.634 46.644 13.18C47.0869 13.7291 46.5288 17.5359 44.3538 19.3529C44.0202 19.632 43.7016 19.4833 43.8503 19.1132C44.3387 17.8939 45.4337 15.1608 44.915 14.4965" fill="#9A9A9A"/>
<path fill-rule="evenodd" clip-rule="evenodd" d="M40.28 2.29321V0.709815C40.28 0.470167 40.462 0.309403 40.6804 0.309403H47.7693C47.9969 0.309403 48.1789 0.473164 48.1789 0.709815V2.06568C48.1758 2.29321 47.9847 2.59049 47.645 3.06065L43.9716 8.30531C45.3366 8.27201 46.7774 8.47521 48.0151 9.1729C48.2941 9.3306 48.37 9.56118 48.3912 9.78864V11.4782C48.3912 11.7087 48.1364 11.9787 47.8695 11.8392C45.6885 10.6957 42.7916 10.5713 40.3801 11.8513C40.1344 11.9848 39.8766 11.7179 39.8766 11.4874V9.88271C39.8766 9.62488 39.8796 9.18502 40.1374 8.79374L44.3932 2.69062H40.6894C40.462 2.69062 40.28 2.52986 40.28 2.29321V2.29321ZM14.4206 12.1729H12.2639C12.0576 12.1577 11.8938 12.003 11.8786 11.8058V0.737132C11.8786 0.515672 12.0637 0.339716 12.2942 0.339716H14.3053C14.5146 0.348775 14.6815 0.509609 14.6967 0.709746V2.15676H14.7361C15.2608 0.758386 16.2467 0.10627 17.5753 0.10627C18.9251 0.10627 19.7684 0.758386 20.3751 2.15676C20.8968 0.758386 22.0829 0.10627 23.3539 0.10627C24.2578 0.10627 25.2467 0.479366 25.8503 1.31657C26.5328 2.24777 26.3933 3.60064 26.3933 4.78669L26.3902 11.7725C26.3902 11.994 26.2052 12.1729 25.9747 12.1729H23.821C23.6057 12.1578 23.4327 11.9849 23.4327 11.7725V5.90598C23.4327 5.43881 23.4752 4.27394 23.3721 3.83116C23.2113 3.08797 22.729 2.87863 22.1041 2.87863C21.5823 2.87863 21.0363 3.22748 20.8149 3.78566C20.5935 4.34384 20.6148 5.27804 20.6148 5.90598V11.7724C20.6148 11.9939 20.4297 12.1729 20.1991 12.1729H18.0455C17.8271 12.1577 17.6572 11.9848 17.6572 11.7724L17.6542 5.90598C17.6542 4.67136 17.8574 2.85445 16.3255 2.85445C14.7755 2.85445 14.8362 4.62586 14.8362 5.90598V11.7724C14.8362 11.9939 14.6511 12.1729 14.4206 12.1729V12.1729ZM54.282 0.106201C57.4822 0.106201 59.2143 2.85438 59.2143 6.34883C59.2143 9.72495 57.3002 12.4034 54.2819 12.4034C51.1394 12.4034 49.4286 9.65519 49.4286 6.2305C49.4286 2.78463 51.1607 0.106201 54.282 0.106201V0.106201ZM54.3002 2.36603C52.7107 2.36603 52.6106 4.53185 52.6106 5.88166C52.6106 7.2346 52.5894 10.1223 54.282 10.1223C55.9534 10.1223 56.0322 7.79271 56.0322 6.37308C56.0322 5.43881 55.9928 4.32252 55.7107 3.43681C55.468 2.6663 54.9858 2.36603 54.3003 2.36603H54.3002ZM63.3639 12.1729H61.2163C61.0009 12.1577 60.828 11.9848 60.828 11.7724L60.825 0.700687C60.8431 0.497484 61.0222 0.339716 61.2405 0.339716H63.2395C63.4276 0.348775 63.5823 0.4763 63.6247 0.649119V2.34178H63.6642C64.2678 0.828141 65.1141 0.106201 66.6035 0.106201C67.5711 0.106201 68.5145 0.454976 69.1212 1.4105C69.6854 2.2962 69.6854 3.78566 69.6854 4.85645V11.824C69.6611 12.0182 69.4822 12.1729 69.2699 12.1729H67.107C66.9098 12.1577 66.7461 12.0121 66.7248 11.824V5.8119C66.7248 4.60161 66.8644 2.83006 65.375 2.83006C64.8503 2.83006 64.3679 3.18197 64.1283 3.71583C63.8249 4.39234 63.7855 5.06571 63.7855 5.81197V11.7724C63.7825 11.9939 63.5944 12.1729 63.3639 12.1729V12.1729ZM34.6288 6.88575C34.6288 7.72595 34.6501 8.42671 34.2254 9.17283C33.8826 9.77958 33.3367 10.1526 32.733 10.1526C31.9049 10.1526 31.4195 9.52174 31.4195 8.59047C31.4195 6.75224 33.0667 6.41858 34.6288 6.41858V6.88575V6.88575ZM36.8037 12.1425C36.6612 12.2699 36.4549 12.2791 36.2942 12.1941C35.5783 11.5996 35.4478 11.3235 35.0566 10.7563C33.8735 11.9636 33.0333 12.3246 31.5014 12.3246C29.6844 12.3246 28.2739 11.2052 28.2739 8.96363C28.2739 7.21335 29.2203 6.02124 30.5732 5.43881C31.7441 4.92313 33.3791 4.83212 34.6289 4.68955V4.41053C34.6289 3.89785 34.6683 3.29117 34.3649 2.84832C34.1041 2.45097 33.6005 2.28714 33.1546 2.28714C32.3326 2.28714 31.6016 2.70874 31.4226 3.58239C31.3862 3.77653 31.2436 3.96761 31.0464 3.97674L28.9564 3.75228C28.7806 3.71284 28.5833 3.57026 28.6349 3.3003C29.1142 0.764449 31.4074 0 33.4581 0C34.5076 0 35.8786 0.27909 36.7068 1.07385C37.7562 2.05363 37.6562 3.36093 37.6562 4.78362V8.14455C37.6562 9.15471 38.0748 9.59749 38.4691 10.1435C38.6057 10.3377 38.636 10.5713 38.4601 10.7168C38.0202 11.0839 37.2376 11.7664 36.8069 12.1486L36.8039 12.1425H36.8037ZM6.35489 6.88575C6.35489 7.72595 6.37614 8.42671 5.95141 9.17283C5.6087 9.77958 5.06571 10.1526 4.45903 10.1526C3.63096 10.1526 3.1486 9.52174 3.1486 8.59047C3.1486 6.75224 4.79575 6.41858 6.35489 6.41858V6.88575ZM8.52977 12.1425C8.38726 12.2699 8.181 12.2791 8.02023 12.1941C7.30435 11.5996 7.1769 11.3235 6.78262 10.7563C5.59957 11.9636 4.76244 12.3246 3.22748 12.3246C1.41357 12.3246 0 11.2052 0 8.96363C0 7.21335 0.949463 6.02124 2.29927 5.43881C3.47019 4.92313 5.10515 4.83212 6.35489 4.68955V4.41053C6.35489 3.89785 6.39433 3.29117 6.09399 2.84832C5.83009 2.45097 5.32661 2.28714 4.88369 2.28714C4.06168 2.28714 3.32762 2.70874 3.1486 3.58239C3.11222 3.77653 2.96964 3.96761 2.7755 3.97674L0.682499 3.75228C0.506543 3.71284 0.312469 3.57026 0.36097 3.3003C0.843263 0.764449 3.13347 0 5.18404 0C6.2335 0 7.60463 0.27909 8.43277 1.07385C9.48223 2.05363 9.38216 3.36093 9.38216 4.78362V8.14455C9.38216 9.15471 9.80076 9.59749 10.1951 10.1435C10.3347 10.3377 10.365 10.5713 10.1891 10.7168C9.7492 11.0839 8.96663 11.7664 8.5359 12.1486L8.52984 12.1425" fill="#9A9A9A"/>
</svg>
