<svg width="81" height="22" viewBox="0 0 81 22" fill="none" xmlns="http://www.w3.org/2000/svg">
<path d="M11.7487 9.23047C11.1163 9.23047 10.617 9.77409 10.617 10.4508C10.617 11.1276 11.1274 11.6712 11.7487 11.6712C12.381 11.6712 12.8803 11.1276 12.8803 10.4508C12.8803 9.77409 12.3699 9.23047 11.7487 9.23047ZM7.69925 9.23047C7.06687 9.23047 6.56763 9.77409 6.56763 10.4508C6.56763 11.1276 7.07796 11.6712 7.69925 11.6712C8.33162 11.6712 8.83086 11.1276 8.83086 10.4508C8.84196 9.77409 8.33162 9.23047 7.69925 9.23047Z" fill="#9A9A9A"/>
<path d="M17.1407 0H2.27433C1.02068 0 0 1.02068 0 2.27433V17.1407C0 18.3944 1.02068 19.415 2.27433 19.415H14.8553L14.2673 17.3848L15.6873 18.6939L17.0298 19.9254L19.4261 22V2.27433C19.415 1.02068 18.3944 0 17.1407 0ZM12.8583 14.3671C12.8583 14.3671 12.4589 13.8901 12.1261 13.4796C13.5794 13.0691 14.1341 12.1704 14.1341 12.1704C13.6793 12.47 13.2466 12.6808 12.8583 12.825C12.3036 13.058 11.7711 13.2022 11.2496 13.3021C10.1846 13.5018 9.20827 13.4463 8.3762 13.291C7.74382 13.1689 7.2002 13.0025 6.74534 12.8139C6.49017 12.7141 6.21281 12.592 5.93545 12.4367C5.90217 12.4145 5.86889 12.4034 5.8356 12.3812C5.81341 12.3701 5.80232 12.3591 5.79123 12.3591C5.59153 12.2481 5.48059 12.1704 5.48059 12.1704C5.48059 12.1704 6.01311 13.0469 7.42209 13.4685C7.08926 13.8901 6.67877 14.3782 6.67877 14.3782C4.22693 14.3006 3.29501 12.703 3.29501 12.703C3.29501 9.16389 4.89259 6.29047 4.89259 6.29047C6.49017 5.10338 7.99899 5.13666 7.99899 5.13666L8.10993 5.26979C6.11296 5.8356 5.20323 6.71205 5.20323 6.71205C5.20323 6.71205 5.4473 6.57892 5.85779 6.40141C7.04488 5.87998 7.9879 5.74685 8.3762 5.70247C8.44276 5.69138 8.49823 5.68028 8.5648 5.68028C9.24155 5.59153 10.0071 5.56934 10.8059 5.65809C11.8598 5.78013 12.9914 6.09077 14.1452 6.71205C14.1452 6.71205 13.2688 5.87998 11.3828 5.31417L11.5381 5.13666C11.5381 5.13666 13.058 5.10338 14.6445 6.29047C14.6445 6.29047 16.2421 9.16389 16.2421 12.703C16.2421 12.6919 15.3101 14.2895 12.8583 14.3671ZM29.6107 4.74836H25.9274V8.88654L28.3792 11.0943V7.07816H29.6884C30.5204 7.07816 30.9309 7.47756 30.9309 8.12103V11.1942C30.9309 11.8376 30.5426 12.2703 29.6884 12.2703H25.9163V14.6112H29.5996C31.5744 14.6223 33.4271 13.6349 33.4271 11.3717V8.06556C33.4382 5.75794 31.5855 4.74836 29.6107 4.74836V4.74836ZM48.9148 11.3717V7.9768C48.9148 6.75643 51.1115 6.47907 51.7771 7.69945L53.8074 6.87847C53.0086 5.12557 51.5552 4.61523 50.3459 4.61523C48.3712 4.61523 46.4186 5.75794 46.4186 7.9768V11.3717C46.4186 13.6127 48.3712 14.7332 50.3016 14.7332C51.5441 14.7332 53.0308 14.123 53.8517 12.5255L51.6773 11.527C51.1447 12.8916 48.9148 12.5587 48.9148 11.3717V11.3717ZM42.2027 8.44276C41.4372 8.27635 40.9269 7.99899 40.8936 7.52194C40.938 6.37922 42.702 6.33485 43.7337 7.43318L45.3646 6.17953C44.3439 4.93696 43.1901 4.60413 42.003 4.60413C40.1947 4.60413 38.4418 5.62481 38.4418 7.55522C38.4418 9.43016 39.884 10.4397 41.4705 10.6838C42.2804 10.7948 43.179 11.1165 43.1568 11.6712C43.0903 12.7252 40.9158 12.6697 39.9284 11.4715L38.353 12.947C39.2738 14.1341 40.5275 14.7332 41.7035 14.7332C43.5119 14.7332 45.5199 13.6904 45.5976 11.7821C45.7085 9.37468 43.9556 8.7645 42.2027 8.44276V8.44276ZM34.7695 14.6001H37.2547V4.74836H34.7695V14.6001ZM76.6727 4.74836H72.9894V8.88654L75.4413 11.0943V7.07816H76.7504C77.5825 7.07816 77.9929 7.47756 77.9929 8.12103V11.1942C77.9929 11.8376 77.6046 12.2703 76.7504 12.2703H72.9783V14.6112H76.6727C78.6475 14.6223 80.5003 13.6349 80.5003 11.3717V8.06556C80.5003 5.75794 78.6475 4.74836 76.6727 4.74836V4.74836ZM58.6001 4.61523C56.5588 4.61523 54.5285 5.72466 54.5285 7.99899V11.3606C54.5285 13.6127 56.5698 14.7443 58.6223 14.7443C60.6636 14.7443 62.6939 13.6127 62.6939 11.3606V7.99899C62.6939 5.73575 60.6415 4.61523 58.6001 4.61523V4.61523ZM60.1977 11.3606C60.1977 12.0706 59.3989 12.4367 58.6112 12.4367C57.8124 12.4367 57.0136 12.0928 57.0136 11.3606V7.99899C57.0136 7.27786 57.7902 6.88956 58.5668 6.88956C59.3767 6.88956 60.1977 7.23348 60.1977 7.99899V11.3606ZM71.6137 7.99899C71.5582 5.69138 69.9829 4.75946 67.9526 4.75946H64.0141V14.6112H66.5325V11.4826H66.9763L69.2617 14.6112H72.3681L69.6833 11.2274C70.8704 10.8502 71.6137 9.81846 71.6137 7.99899V7.99899ZM67.997 9.33031H66.5325V7.07816H67.997C69.5613 7.07816 69.5613 9.33031 67.997 9.33031Z" fill="#9A9A9A"/>
</svg>
