<svg width="74" height="25" viewBox="0 0 74 25" fill="none" xmlns="http://www.w3.org/2000/svg">
<path d="M31.6677 12.819C31.6677 16.3236 28.926 18.9061 25.5614 18.9061C22.1967 18.9061 19.4551 16.3236 19.4551 12.819C19.4551 9.28971 22.1967 6.73193 25.5614 6.73193C28.926 6.73193 31.6677 9.28971 31.6677 12.819ZM28.9946 12.819C28.9946 10.629 27.4056 9.13054 25.5614 9.13054C23.7171 9.13054 22.1281 10.629 22.1281 12.819C22.1281 14.9871 23.7171 16.5075 25.5614 16.5075C27.4056 16.5075 28.9946 14.9843 28.9946 12.819Z" fill="#9A9A9A"/>
<path d="M44.8408 12.819C44.8408 16.3236 42.0991 18.9061 38.7345 18.9061C35.3698 18.9061 32.6282 16.3236 32.6282 12.819C32.6282 9.29246 35.3698 6.73193 38.7345 6.73193C42.0991 6.73193 44.8408 9.28971 44.8408 12.819ZM42.1677 12.819C42.1677 10.629 40.5787 9.13054 38.7345 9.13054C36.8902 9.13054 35.3012 10.629 35.3012 12.819C35.3012 14.9871 36.8902 16.5075 38.7345 16.5075C40.5787 16.5075 42.1677 14.9843 42.1677 12.819Z" fill="#9A9A9A"/>
<path d="M57.4651 7.09968V18.0279C57.4651 22.5232 54.814 24.3592 51.6799 24.3592C48.7297 24.3592 46.954 22.386 46.2844 20.7723L48.6117 19.8035C49.0261 20.7942 50.0415 21.9633 51.6771 21.9633C53.6833 21.9633 54.9265 20.7256 54.9265 18.3956V17.5202H54.8332C54.2349 18.2584 53.0823 18.9033 51.6277 18.9033C48.5842 18.9033 45.7959 16.2523 45.7959 12.841C45.7959 9.40498 48.5842 6.73193 51.6277 6.73193C53.0795 6.73193 54.2322 7.37687 54.8332 8.09316H54.9265V7.10243H57.4651V7.09968ZM55.1159 12.841C55.1159 10.6976 53.686 9.13054 51.8665 9.13054C50.0223 9.13054 48.4772 10.6976 48.4772 12.841C48.4772 14.9624 50.0223 16.5075 51.8665 16.5075C53.686 16.5075 55.1159 14.9624 55.1159 12.841Z" fill="#9A9A9A"/>
<path d="M61.6501 0.694336V18.5329H59.043V0.694336H61.6501Z" fill="#9A9A9A"/>
<path d="M71.81 14.8225L73.8848 16.2057C73.2151 17.1964 71.6014 18.9034 68.8131 18.9034C65.3552 18.9034 62.7727 16.2304 62.7727 12.8163C62.7727 9.19646 65.3771 6.72925 68.514 6.72925C71.6728 6.72925 73.2179 9.24312 73.7229 10.6016L74 11.2932L65.8629 14.6633C66.4859 15.8846 67.4547 16.5075 68.8131 16.5075C70.1744 16.5075 71.1184 15.8379 71.81 14.8225ZM65.4238 12.6325L70.8632 10.3738C70.5641 9.61361 69.6639 9.08394 68.6046 9.08394C67.2461 9.08394 65.3552 10.2832 65.4238 12.6325V12.6325Z" fill="#9A9A9A"/>
<path d="M9.58619 11.2356V8.65309H18.2887C18.3738 9.10317 18.4177 9.63559 18.4177 10.2119C18.4177 12.1495 17.888 14.5453 16.181 16.2523C14.5206 17.9813 12.3992 18.9034 9.58893 18.9034C4.38006 18.9034 0 14.6606 0 9.45171C0 4.24284 4.38006 0 9.58893 0C12.4706 0 14.5234 1.13069 16.0657 2.60443L14.2434 4.42672C13.1374 3.38933 11.639 2.58248 9.58619 2.58248C5.78245 2.58248 2.80752 5.64797 2.80752 9.45171C2.80752 13.2554 5.78245 16.3209 9.58619 16.3209C12.0534 16.3209 13.4585 15.3302 14.3587 14.4301C15.0887 13.7 15.569 12.6572 15.7583 11.2328L9.58619 11.2356Z" fill="#9A9A9A"/>
</svg>
