<svg width="112" height="21" viewBox="0 0 112 21" fill="none" xmlns="http://www.w3.org/2000/svg">
<path d="M50.4562 10.5624C50.4562 14.7375 47.8654 16.7179 44.6225 16.7179H42.6477V14.2022H44.4775C46.4342 14.2022 47.7386 13.1674 47.7386 10.5446C47.7386 7.95752 46.5066 6.6729 44.4232 6.6729C42.4122 6.6729 40.9809 7.88615 40.9809 10.4911V20.9822H38.2633V4.49618H40.9628V5.92353H41.3433C42.2491 4.72812 43.5717 4.19286 44.9667 4.19286C47.956 4.19286 50.4562 6.3339 50.4562 10.5624ZM32.7014 9.47409L30.9078 9.29567C29.4947 9.17077 28.7519 8.79609 28.7519 7.97536C28.7519 7.01189 29.7121 6.45879 31.0708 6.45879C32.484 6.45879 33.3898 7.11895 33.4623 8.04673H36.0531C35.9444 5.6559 34.0783 4.19286 31.089 4.19286C28.0815 4.19286 26.0524 5.76296 26.0524 8.06457C26.0524 9.9915 27.2844 11.2404 30.0925 11.5081L31.9224 11.6865C33.0275 11.7935 33.7703 12.0076 33.7703 13.0603C33.7703 14.0059 33.0818 14.6839 31.252 14.6839C29.5671 14.6839 28.7337 13.9346 28.4439 12.9176H25.6357C25.9075 15.2192 27.8822 17.0034 31.252 17.0034C34.4225 17.0034 36.4697 15.3619 36.4697 12.9176C36.4516 10.7944 35.0204 9.68819 32.7014 9.47409V9.47409ZM60.9097 12.9354C60.493 13.8989 59.4785 14.6126 58.0291 14.6126C56.0543 14.6126 54.5869 13.3458 54.5869 10.616C54.5869 8.01104 55.9456 6.56585 58.0653 6.56585C59.9495 6.56585 61.0184 7.67205 61.1271 9.34919H56.2718V11.2761H63.7904V10.0093C63.7904 6.49448 61.417 4.21071 58.0472 4.21071C54.913 4.21071 51.9055 6.31606 51.9055 10.616C51.9055 14.9159 54.913 17.0212 58.0472 17.0212C60.9097 17.0212 62.9751 15.2727 63.6092 12.9354H60.9097ZM18.3164 4.19286C15.3633 4.19286 13.153 5.70943 12.8813 8.04673H15.78C15.9793 7.19031 16.7764 6.548 18.2983 6.548C20.2549 6.548 20.889 7.565 20.889 8.79609V12.9711C19.7839 14.2201 18.4976 14.791 17.2113 14.791C15.8706 14.791 14.9466 14.1487 14.9466 13.0246C14.9466 11.9363 15.6713 11.2583 17.0482 11.2583H19.2041V9.34919H16.9576C13.8777 9.34919 12.1385 10.8658 12.1385 13.2031C12.1385 15.3798 13.8052 17.0212 16.559 17.0212C18.099 17.0212 19.4578 16.4146 20.4723 15.6831H20.8528V16.7179H23.5522V8.56415C23.6247 5.54885 21.5412 4.19286 18.3164 4.19286ZM0 16.7179H2.69945V0H0V16.7179ZM11.3413 4.49618H8.044L4.11258 9.59898V11.1869L8.1527 16.7179H11.5044L6.75768 10.384L11.3413 4.49618ZM109.011 4.49618L106.8 9.33135C106.257 10.4911 105.75 11.633 105.587 12.4002H105.206C105.043 11.633 104.518 10.5268 103.974 9.36703L101.764 4.49618H98.7745L103.974 15.469L101.401 21H104.282L112 4.49618H109.011ZM98.1766 4.49618H94.8793L90.9479 9.58114V11.1691L94.988 16.7001H98.3397L93.6111 10.3662L98.1766 4.49618ZM81.2553 9.47409L79.4617 9.29567C78.0485 9.17077 77.3057 8.79609 77.3057 7.97536C77.3057 7.01189 78.2659 6.45879 79.6247 6.45879C81.0378 6.45879 81.9437 7.11895 82.0162 8.04673H84.6069C84.4982 5.6559 82.6322 4.19286 79.6428 4.19286C76.6354 4.19286 74.6063 5.76296 74.6063 8.06457C74.6063 9.9915 75.8382 11.2404 78.6464 11.5081L80.4762 11.6865C81.5814 11.7935 82.3242 12.0076 82.3242 13.0603C82.3242 14.0059 81.6357 14.6839 79.8059 14.6839C78.121 14.6839 77.2876 13.9346 76.9977 12.9176H74.1896C74.4613 15.2192 76.4361 17.0034 79.8059 17.0034C82.9764 17.0034 85.0236 15.3619 85.0236 12.9176C85.0236 10.7944 83.5742 9.68819 81.2553 9.47409V9.47409ZM86.8353 16.7179H89.5348V0H86.8353V16.7179ZM69.0081 5.92353H68.6276V4.49618H65.9282V16.7179H68.6276V10.3305C68.6276 8.15378 69.6422 6.887 71.6713 6.887H73.3743V4.19286H72.3779C70.5118 4.19286 69.7147 4.8887 69.0081 5.92353V5.92353Z" fill="#9A9A9A"/>
</svg>
