<svg width="96" height="18" viewBox="0 0 96 18" fill="none" xmlns="http://www.w3.org/2000/svg">
<path d="M10.046 3.75913C11.6436 3.75913 13.1454 4.39485 14.2318 5.37734C14.2318 4.91499 14.5833 4.53934 15.0626 4.53934H15.1904C15.9573 4.53934 16.1171 5.20396 16.1171 5.40624V12.8038C16.0531 13.2951 16.6603 13.5551 17.0117 13.2373C18.3218 11.9947 19.9195 6.93777 16.181 3.9903C12.6981 1.24511 8.06486 1.70746 5.60446 3.23898C2.9843 4.8572 1.29078 8.49819 2.92039 11.908C4.70977 15.6068 9.79033 16.7338 12.7939 15.6068C14.3277 15.0289 15.0306 16.9071 13.4649 17.5429C11.0685 18.4676 4.35829 18.3809 1.25883 13.4973C-0.850082 10.1742 -0.722269 4.39485 4.86954 1.36069C9.15126 -0.922149 14.807 -0.286423 18.194 2.92112C21.7728 6.30204 21.581 12.6015 18.1301 15.0578C16.5324 16.1558 14.2318 15.0866 14.2318 13.4684L14.1999 12.9483C13.1135 13.9308 11.6756 14.5087 10.046 14.5087C6.91454 14.5087 4.13461 12.0236 4.13461 9.16282C4.13461 6.27314 6.88259 3.75913 10.046 3.75913V3.75913ZM13.9762 8.96054C13.8803 6.87998 12.1549 5.63742 10.1099 5.63742H10.014C7.64946 5.63742 6.33938 7.31343 6.33938 9.24951C6.33938 11.3879 7.93704 12.746 10.014 12.746C12.3466 12.746 13.8803 11.1856 14.0081 9.394L13.9762 8.96054Z" fill="#9A9A9A"/>
<path d="M71.3961 14.5664C71.3961 15.0288 70.8529 15.4911 70.086 15.4911C69.3191 15.4911 68.8398 14.971 68.8398 14.5375V13.7573C68.8398 13.295 69.3191 12.8037 70.118 12.8037C70.9807 12.8037 71.3961 13.3239 71.3961 13.8151V14.5664Z" fill="#9A9A9A"/>
<path d="M79.8318 3.47009C76.2531 3.49899 73.1855 6.33087 73.1855 9.50951V14.422C73.1855 15.0577 73.7607 15.52 74.3678 15.52C75.1027 15.52 75.6459 15.0288 75.6459 14.4509V9.42282C75.6459 7.63122 77.3714 5.66624 79.7999 5.69514C80.5987 5.69514 81.1099 5.1461 81.1099 4.56817C81.1099 4.10582 80.7265 3.47009 79.8318 3.47009V3.47009Z" fill="#9A9A9A"/>
<path d="M94.7218 3.47009C93.955 3.47009 93.4757 4.04802 93.4757 4.56817V9.48061C93.4757 11.3878 91.6863 13.2372 89.2578 13.2372C87.2448 13.2372 85.1039 11.6479 85.1039 9.50951V4.56817C85.1039 4.04802 84.6566 3.47009 83.8258 3.47009C83.2187 3.47009 82.6116 3.93244 82.6116 4.56817V9.48061C82.6116 12.6593 85.743 15.4911 89.2578 15.4911C93.0922 15.4911 96 12.5148 96 9.50951V4.56817C95.968 4.01913 95.4568 3.47009 94.7218 3.47009Z" fill="#9A9A9A"/>
<path d="M58.4232 1.67849C58.4232 2.16974 57.88 2.57429 57.1131 2.57429C56.3462 2.57429 55.8669 2.11194 55.8669 1.64959V1.04276C55.8669 0.58041 56.3462 0.0313721 57.1131 0.0313721C57.9759 0.0313721 58.4232 0.522617 58.4232 1.04276V1.67849Z" fill="#9A9A9A"/>
<path d="M35.1932 3.49894C33.5955 3.47005 32.4132 4.30806 31.6783 4.85709C30.8475 4.07688 29.7931 3.58563 28.7067 3.49894C27.5563 3.41225 26.5019 3.78791 25.7989 4.27916C25.5433 3.78791 25.2557 3.49894 24.7125 3.49894C24.1054 3.49894 23.4983 3.96129 23.4983 4.71261V14.393C23.4983 14.971 24.0095 15.4911 24.7764 15.4911C25.6072 15.4911 26.0545 14.9132 26.0545 14.3641V7.16883C26.0545 6.47531 27.3646 5.6373 28.483 5.6662C29.186 5.6662 30.0487 6.30193 30.0487 7.31332V14.393C30.0487 14.9999 30.7197 15.4911 31.3907 15.4911C32.1256 15.4911 32.7008 14.971 32.7008 14.393V7.22663C32.7008 6.35973 34.1707 5.60841 35.1932 5.6662C35.992 5.72399 36.663 6.47532 36.663 7.22663V14.393C36.663 14.9999 37.3021 15.4911 38.005 15.4911C38.6121 15.4911 39.3151 15.1154 39.3151 14.393V7.28442C39.2832 4.65481 36.4393 3.44115 35.1932 3.49894V3.49894Z" fill="#9A9A9A"/>
<path d="M57.1131 3.47009C56.3462 3.47009 55.8669 4.04803 55.8669 4.62596V14.3642C55.8669 14.9999 56.4421 15.4911 57.1131 15.4911C57.9119 15.4911 58.4232 14.9132 58.4232 14.3064V4.62596C58.4232 4.04803 57.7841 3.47009 57.1131 3.47009V3.47009Z" fill="#9A9A9A"/>
<path d="M52.6396 3.47009C51.9366 3.47009 51.4254 3.99023 51.4254 4.51037V4.91493C50.2751 4.01913 48.8052 3.47009 47.2076 3.47009C43.6927 3.47009 40.5933 6.12859 40.5933 9.50951C40.5933 12.5726 43.533 15.52 47.2076 15.52C48.6774 15.52 50.2751 14.9999 51.4254 14.133V14.422C51.4254 14.971 51.9047 15.52 52.6716 15.52C53.5663 15.52 53.9497 14.8843 53.9497 14.3642V4.56817C53.9497 4.10582 53.4065 3.47009 52.6396 3.47009V3.47009ZM47.2395 13.2661C44.9069 13.2661 43.0537 11.5612 43.0537 9.48061C43.0537 7.37115 44.9389 5.69514 47.2395 5.69514C49.5721 5.69514 51.4254 7.40005 51.4254 9.48061C51.4254 11.5612 49.5401 13.2661 47.2395 13.2661Z" fill="#9A9A9A"/>
<path d="M65.9321 13.1795C64.3025 13.1795 62.8326 12.0525 62.8326 10.3765V1.10064C62.8326 0.464908 62.2575 0.00256348 61.5545 0.00256348C60.7237 0.00256348 60.2764 0.551598 60.2764 1.10064V10.3765C60.2764 13.2373 62.8965 15.5201 65.9001 15.5201C66.7948 15.5201 67.2102 14.8844 67.2102 14.3065C67.2102 13.7574 66.7309 13.1795 65.9321 13.1795V13.1795Z" fill="#9A9A9A"/>
</svg>
