<svg width="91" height="20" viewBox="0 0 91 20" fill="none" xmlns="http://www.w3.org/2000/svg">
<path d="M32.1265 11.1961L31.584 12.7331H31.5388C31.4484 12.3865 31.2826 11.8591 31.0114 11.2262L28.1031 3.91786H25.2551V15.566H27.1387V8.3782C27.1387 7.92614 27.1387 7.4138 27.1236 6.78092C27.1086 6.46448 27.0784 6.22338 27.0634 6.04255H27.1086C27.199 6.49461 27.3045 6.82613 27.3798 7.03709L30.8758 15.5358H32.2018L35.6676 6.96174C35.743 6.76585 35.8183 6.37406 35.8936 6.04255H35.9388C35.8936 6.90147 35.8635 7.66997 35.8484 8.1371V15.5208H37.8526V3.88773H35.1101L32.1265 11.1961ZM39.7512 7.17271H41.7102V15.5208H39.7512V7.17271ZM40.7458 3.64663C40.4143 3.64663 40.143 3.76718 39.917 3.97814C39.691 4.1891 39.5704 4.46034 39.5704 4.79185C39.5704 5.10829 39.691 5.37953 39.917 5.59049C40.143 5.80145 40.4143 5.90693 40.7458 5.90693C41.0773 5.90693 41.3636 5.78638 41.5745 5.59049C41.8006 5.37953 41.9211 5.10829 41.9211 4.79185C41.9211 4.47541 41.8006 4.20417 41.5745 3.97814C41.3786 3.76718 41.0923 3.64663 40.7458 3.64663V3.64663ZM48.6568 7.09736C48.2952 7.02202 47.9185 6.97681 47.5568 6.97681C46.6678 6.97681 45.8541 7.17271 45.176 7.56449C44.4979 7.95628 43.9554 8.49875 43.6088 9.17685C43.2472 9.87001 43.0663 10.6686 43.0663 11.5878C43.0663 12.3865 43.2472 13.0947 43.5937 13.7427C43.9403 14.3756 44.4225 14.8879 45.0705 15.2345C45.6883 15.581 46.4116 15.7619 47.2253 15.7619C48.1596 15.7619 48.9582 15.566 49.5911 15.2043L49.6062 15.1893V13.381L49.5308 13.4413C49.2445 13.6523 48.913 13.8331 48.5815 13.9386C48.2349 14.0591 47.9185 14.1194 47.6472 14.1194C46.8637 14.1194 46.2458 13.8934 45.8089 13.3961C45.3568 12.9139 45.1308 12.2509 45.1308 11.4221C45.1308 10.5632 45.3568 9.88507 45.8239 9.38781C46.2911 8.89054 46.9089 8.63437 47.6623 8.63437C48.2952 8.63437 48.9431 8.84533 49.5308 9.26726L49.6062 9.32753V7.4138L49.5911 7.39874C49.3349 7.29325 49.0486 7.17271 48.6568 7.09736V7.09736ZM55.1213 7.03709C54.6391 7.03709 54.1871 7.18777 53.7953 7.50422C53.4638 7.77545 53.2377 8.16724 53.0418 8.63437H53.0268V7.17271H51.0678V15.5208H53.0268V11.2563C53.0268 10.533 53.1775 9.93028 53.509 9.49329C53.8405 9.04123 54.2624 8.8152 54.7747 8.8152C54.9556 8.8152 55.1364 8.8604 55.3624 8.89054C55.5734 8.95081 55.7241 9.01109 55.8295 9.08643L55.9049 9.14671V7.18777L55.8597 7.17271C55.7241 7.08229 55.4528 7.03709 55.1213 7.03709V7.03709ZM60.4556 6.99188C59.0844 6.99188 57.9844 7.39874 57.2159 8.19738C56.4323 8.99602 56.0556 10.096 56.0556 11.4824C56.0556 12.7783 56.4474 13.8331 57.2008 14.6016C57.9542 15.355 58.9789 15.7468 60.2597 15.7468C61.6009 15.7468 62.6707 15.3399 63.4392 14.5262C64.2228 13.7125 64.5995 12.6276 64.5995 11.2865C64.5995 9.96042 64.2379 8.90561 63.4995 8.1371C62.7913 7.3686 61.7516 6.99188 60.4556 6.99188V6.99188ZM62.0228 13.4112C61.6611 13.8783 61.0885 14.1043 60.3803 14.1043C59.6721 14.1043 59.0995 13.8783 58.6926 13.381C58.2857 12.9139 58.0899 12.2358 58.0899 11.3769C58.0899 10.4878 58.3008 9.80973 58.6926 9.32753C59.0995 8.84533 59.657 8.60423 60.3652 8.60423C61.0584 8.60423 61.6009 8.83026 61.9927 9.29739C62.3844 9.76452 62.5954 10.4426 62.5954 11.3317C62.5653 12.2358 62.3995 12.944 62.0228 13.4112V13.4112ZM68.9695 10.6385C68.3517 10.3823 67.9599 10.1864 67.779 10.0207C67.6283 9.87001 67.553 9.65904 67.553 9.38781C67.553 9.16178 67.6434 8.93574 67.8694 8.78506C68.0955 8.63437 68.3516 8.55903 68.7284 8.55903C69.0599 8.55903 69.4065 8.6193 69.738 8.70971C70.0695 8.80013 70.3709 8.93575 70.612 9.11657L70.6873 9.17685V7.33846L70.6421 7.32339C70.4161 7.23298 70.1147 7.14257 69.753 7.06722C69.3914 7.00695 69.0599 6.97681 68.7886 6.97681C67.8544 6.97681 67.0859 7.20284 66.4831 7.70011C65.8804 8.16724 65.5941 8.80013 65.5941 9.53849C65.5941 9.93028 65.6544 10.2769 65.79 10.5632C65.9256 10.8495 66.1215 11.1207 66.3927 11.3467C66.664 11.5577 67.0557 11.7988 67.5982 12.0248C68.0503 12.2207 68.3969 12.3714 68.6078 12.492C68.8188 12.6125 68.9544 12.7481 69.0599 12.8536C69.1352 12.9742 69.1804 13.1248 69.1804 13.3207C69.1804 13.8783 68.7585 14.1495 67.8996 14.1495C67.5681 14.1495 67.2215 14.0892 66.8146 13.9536C66.4078 13.818 66.0311 13.6221 65.7146 13.3961L65.6393 13.3358V15.2495L65.6845 15.2646C65.9708 15.4002 66.3174 15.4906 66.7393 15.5961C67.1612 15.6715 67.5379 15.7317 67.8694 15.7317C68.8791 15.7317 69.7078 15.5057 70.2955 15.0084C70.8983 14.5262 71.2147 13.9084 71.2147 13.1098C71.2147 12.5522 71.064 12.055 70.7325 11.6783C70.2955 11.3166 69.753 10.9399 68.9695 10.6385V10.6385ZM76.3833 6.99188C75.012 6.99188 73.912 7.39874 73.1435 8.19738C72.375 8.99602 71.9832 10.096 71.9832 11.4824C71.9832 12.7783 72.375 13.8331 73.1284 14.6016C73.8819 15.355 74.9065 15.7468 76.1874 15.7468C77.5285 15.7468 78.5984 15.3399 79.3669 14.5262C80.1505 13.7125 80.5272 12.6276 80.5272 11.2865C80.5272 9.96042 80.1655 8.90561 79.4272 8.1371C78.7189 7.3686 77.6792 6.99188 76.3833 6.99188V6.99188ZM77.9354 13.4112C77.5737 13.8783 77.0011 14.1043 76.2929 14.1043C75.5696 14.1043 75.012 13.8783 74.6052 13.381C74.1983 12.9139 74.0024 12.2358 74.0024 11.3769C74.0024 10.4878 74.2134 9.80973 74.6052 9.32753C75.012 8.84533 75.5696 8.60423 76.2778 8.60423C76.9559 8.60423 77.5134 8.83026 77.9052 9.29739C78.297 9.76452 78.508 10.4426 78.508 11.3317C78.508 12.2358 78.3121 12.944 77.9354 13.4112V13.4112ZM90.9999 8.78506V7.17271H89.0259V4.70144L88.9657 4.7165L87.0971 5.27405L87.0519 5.28912V7.17271H84.0985V6.1179C84.0985 5.6357 84.219 5.25898 84.43 5.01788C84.6409 4.77678 84.9574 4.65623 85.3492 4.65623C85.6204 4.65623 85.9067 4.7165 86.2231 4.85212L86.2985 4.89733V3.19456L86.2533 3.1795C85.982 3.08908 85.6204 3.02881 85.1533 3.02881C84.5656 3.02881 84.0533 3.16443 83.5861 3.39046C83.119 3.64663 82.7724 3.99321 82.5162 4.46034C82.2601 4.9124 82.1245 5.42473 82.1245 6.01241V7.17271H80.7532V8.76999H82.1245V15.5208H84.0985V8.78506H87.0519V13.0796C87.0519 14.8427 87.8807 15.7317 89.5383 15.7317C89.8095 15.7317 90.0958 15.6865 90.367 15.6413C90.6533 15.581 90.8643 15.5057 90.9849 15.4454L90.9999 15.4304V13.818L90.9246 13.8783C90.804 13.9536 90.6986 14.0139 90.5177 14.0591C90.367 14.1043 90.2314 14.1194 90.1259 14.1194C89.7342 14.1194 89.4629 14.029 89.267 13.8029C89.0862 13.592 88.9958 13.2454 88.9958 12.7331V8.78506H90.9999Z" fill="#9A9A9A"/>
<path d="M0 0H9.23712V9.23712H0V0Z" fill="#9A9A9A"/>
<path d="M10.2017 0H19.4388V9.23712H10.2017V0Z" fill="#9A9A9A"/>
<path d="M0 10.2015H9.23712V19.4387H0V10.2015Z" fill="#9A9A9A"/>
<path d="M10.2017 10.2015H19.4388V19.4387H10.2017V10.2015Z" fill="#9A9A9A"/>
</svg>
