<svg width="76" height="20" viewBox="0 0 76 20" fill="none" xmlns="http://www.w3.org/2000/svg">
<path d="M10.4502 18.7109C9.30696 18.9063 8.14358 18.965 6.94012 19.1211L3.26941 8.65239V19.5704C2.12614 19.6875 1.08315 19.8438 0 20V0H3.04891L7.22089 11.3478V0H10.4502V18.7109ZM16.7685 7.32422C18.0122 7.32422 19.9177 7.26561 21.061 7.26561V10.3905C19.6368 10.3905 17.9721 10.3905 16.7685 10.4492V15.0977C18.6541 14.9805 20.5395 14.8241 22.4449 14.7655V17.7732L13.5592 18.4569V0H22.4449V3.125H16.7685V7.32422ZM34.3795 3.12508H31.0499V17.5001C29.9667 17.5001 28.8836 17.5001 27.8407 17.539V3.12508H24.5111V0H34.3796L34.3795 3.12508ZM39.5945 7.10944H43.9873V10.2344H39.5945V17.3243H36.4452V0H45.4114V3.125H39.5945V7.10944ZM50.6265 14.5898C52.4518 14.6288 54.297 14.7657 56.0823 14.8632V17.9492C53.214 17.7733 50.3457 17.5978 47.4172 17.539V0H50.6265V14.5898ZM58.7901 18.1641C59.813 18.2227 60.8962 18.2814 61.9392 18.3984V0H58.7901V18.1641ZM76 0L71.9281 9.51175L76 20C74.7964 19.8438 73.5929 19.6289 72.3894 19.4336L70.0828 13.6524L67.7363 18.965C66.5727 18.7695 65.4494 18.7109 64.2863 18.5546L68.4182 9.39445L64.6873 0H68.1371L70.2432 5.25392L72.4898 0H76Z" fill="#9A9A9A"/>
</svg>
