<svg width="73" height="26" viewBox="0 0 73 26" fill="none" xmlns="http://www.w3.org/2000/svg">
<path d="M65.9177 10.2462C66.7959 10.2462 67.5079 9.53423 67.5079 8.65594C67.5079 7.77766 66.7959 7.06567 65.9177 7.06567C65.0394 7.06567 64.3274 7.77766 64.3274 8.65594C64.3274 9.53423 65.0394 10.2462 65.9177 10.2462Z" fill="#9A9A9A"/>
<path d="M43.2047 15.4367C43.9849 15.4367 44.4348 14.8518 44.4049 14.2816C44.3901 13.9815 44.3599 13.7864 44.33 13.6365C43.8498 11.5664 42.1698 10.0359 40.1743 10.0359C37.8042 10.0359 35.8839 12.1813 35.8839 14.8216C35.8839 17.4618 37.8042 19.6072 40.1743 19.6072C41.6597 19.6072 42.7249 19.0672 43.4899 18.2121C43.8649 17.7921 43.79 17.147 43.3398 16.8318C42.9648 16.5768 42.4998 16.6668 42.1547 16.9518C41.8247 17.237 41.1947 17.8069 40.1743 17.8069C38.9744 17.8069 37.9543 16.7717 37.7292 15.4065H43.2047V15.4367ZM40.1595 11.8513C41.2395 11.8513 42.1698 12.6913 42.5149 13.8465H37.8042C38.1492 12.6765 39.0793 11.8513 40.1595 11.8513ZM35.974 10.9811C35.974 10.5312 35.644 10.171 35.224 10.096C33.9187 9.90114 32.6886 10.381 31.9836 11.2663V11.1461C31.9836 10.591 31.5334 10.2462 31.0835 10.2462C30.5883 10.2462 30.1833 10.6511 30.1833 11.1461V18.497C30.1833 18.9772 30.5432 19.3972 31.0234 19.4271C31.5485 19.457 31.9836 19.0521 31.9836 18.527V14.7315C31.9836 13.0515 33.2436 11.6712 34.9838 11.8664H35.1639C35.6138 11.8362 35.974 11.4461 35.974 10.9811ZM66.8174 11.9413C66.8174 11.4461 66.4125 11.0412 65.9176 11.0412C65.4223 11.0412 65.0174 11.4461 65.0174 11.9413V18.527C65.0174 19.0222 65.4223 19.4271 65.9176 19.4271C66.4125 19.4271 66.8174 19.0222 66.8174 18.527V11.9413ZM53.4359 6.96081C53.4359 6.46558 53.031 6.06067 52.5358 6.06067C52.0408 6.06067 51.6359 6.46558 51.6359 6.96081V10.9663C51.0207 10.3511 50.2556 10.051 49.3404 10.051C46.9702 10.051 45.05 12.1964 45.05 14.8367C45.05 17.4769 46.9702 19.6223 49.3404 19.6223C50.2556 19.6223 51.0358 19.3071 51.6507 18.6919C51.7257 19.1122 52.1009 19.4271 52.5358 19.4271C53.031 19.4271 53.4359 19.0222 53.4359 18.527V6.96081ZM49.3555 17.8368C47.9752 17.8368 46.8651 16.5019 46.8651 14.8367C46.8651 13.1865 47.9752 11.8362 49.3555 11.8362C50.7358 11.8362 51.8459 13.1714 51.8459 14.8367C51.8459 16.5019 50.7207 17.8368 49.3555 17.8368ZM62.8271 6.96081C62.8271 6.46558 62.4222 6.06067 61.9269 6.06067C61.432 6.06067 61.0268 6.46558 61.0268 6.96081V10.9663C60.4119 10.3511 59.6468 10.051 58.7316 10.051C56.3614 10.051 54.4412 12.1964 54.4412 14.8367C54.4412 17.4769 56.3614 19.6223 58.7316 19.6223C59.6468 19.6223 60.4267 19.3071 61.0419 18.6919C61.1168 19.1122 61.4918 19.4271 61.9269 19.4271C62.4222 19.4271 62.8271 19.0222 62.8271 18.527V6.96081ZM58.7316 17.8368C57.3513 17.8368 56.2415 16.5019 56.2415 14.8367C56.2415 13.1865 57.3513 11.8362 58.7316 11.8362C60.1118 11.8362 61.222 13.1714 61.222 14.8367C61.222 16.5019 60.1118 17.8368 58.7316 17.8368ZM71.3779 18.5421V11.8513H72.1732C72.5932 11.8513 72.9682 11.5362 72.9981 11.101C73.0283 10.636 72.6534 10.2462 72.2032 10.2462H71.3779V8.9859C71.3779 8.50578 71.0181 8.08577 70.5379 8.05585C70.0128 8.02593 69.578 8.43083 69.578 8.95598V10.261H68.8277C68.4077 10.261 68.0327 10.5762 68.0028 11.0113C67.9726 11.4763 68.3479 11.8664 68.7978 11.8664H69.5629V18.5572C69.5629 19.0521 69.9681 19.457 70.463 19.457C70.9882 19.4271 71.3779 19.037 71.3779 18.5421Z" fill="#9A9A9A"/>
<path fill-rule="evenodd" clip-rule="evenodd" d="M25.1429 12.5714C25.1429 19.5144 19.5144 25.1429 12.5714 25.1429C5.62842 25.1429 0 19.5144 0 12.5714C0 5.62842 5.62842 0 12.5714 0C19.5144 0 25.1429 5.62842 25.1429 12.5714ZM19.127 10.7412C20.1323 10.7412 20.9572 11.5513 20.9572 12.5714C20.9572 13.3213 20.5073 13.9665 19.8773 14.2517C19.9072 14.4315 19.9223 14.6267 19.9223 14.8068C19.9223 17.6419 16.6369 19.9223 12.5864 19.9223C8.53593 19.9223 5.25053 17.6268 5.25053 14.8068C5.25053 14.6116 5.26535 14.4315 5.29555 14.2517C4.66526 13.9665 4.21533 13.3364 4.21533 12.5865C4.21533 11.5812 5.02543 10.7563 6.04553 10.7563C6.52042 10.7556 6.97723 10.9383 7.32065 11.2663C8.59577 10.3511 10.351 9.7661 12.3012 9.70598L13.2315 5.32553C13.2463 5.23549 13.2914 5.16055 13.3663 5.11553C13.4264 5.07051 13.5165 5.05541 13.6065 5.07051L16.6517 5.71562C16.8617 5.28051 17.3119 4.98047 17.822 4.98047C18.542 4.98047 19.127 5.56546 19.127 6.28551C19.127 7.00585 18.542 7.59084 17.822 7.59084C17.1167 7.59084 16.5468 7.03577 16.5166 6.34563L13.7863 5.76064L12.9463 9.69116C14.8665 9.7661 16.5919 10.3511 17.8519 11.2512C18.1819 10.9361 18.6321 10.7412 19.127 10.7412ZM9.69109 12.5714C8.97076 12.5714 8.38577 13.1564 8.38577 13.8764C8.38577 14.5965 8.97076 15.1966 9.69109 15.1817C10.4111 15.1817 10.9961 14.5965 10.9961 13.8764C10.9961 13.1564 10.4111 12.5714 9.69109 12.5714ZM12.5864 18.3022C13.0814 18.3022 14.7916 18.242 15.6917 17.3419C15.8117 17.2068 15.8117 16.9968 15.6917 16.8618C15.5567 16.727 15.3467 16.727 15.2116 16.8618C14.6565 17.4319 13.4415 17.6268 12.5864 17.6268C11.7313 17.6268 10.5311 17.4319 9.96094 16.8618C9.82588 16.727 9.61587 16.727 9.48081 16.8618C9.34603 16.9968 9.34603 17.2068 9.48081 17.3419C10.3661 18.2269 12.0764 18.3022 12.5864 18.3022ZM14.1465 13.8915C14.1465 14.6116 14.7315 15.1966 15.4515 15.1966C16.1719 15.1966 16.7568 14.5965 16.7568 13.8915C16.7568 13.1715 16.1719 12.5865 15.4515 12.5865C14.7315 12.5865 14.1465 13.1715 14.1465 13.8915Z" fill="#9A9A9A"/>
</svg>
