<svg width="84" height="15" viewBox="0 0 84 15" fill="none" xmlns="http://www.w3.org/2000/svg">
<path d="M29.9256 14.9998C26.8827 14.9998 24.0581 14.0743 22.1726 12.3578C20.7482 11.061 20.0637 9.2996 20.0637 7.48666C20.0637 5.69578 20.7777 3.92219 22.1725 2.63225C23.9235 1.01365 27.0149 0 29.9256 0C33.1466 0 35.7246 0.822897 37.6954 2.63669C39.0976 3.92732 39.7755 5.69305 39.7755 7.48683C39.7755 9.22552 39.0561 11.0771 37.6954 12.3578C35.8602 14.0854 32.9762 14.9998 29.9256 14.9998V13.0215C31.5406 13.0215 33.0388 12.4559 34.0851 11.4C35.1241 10.3512 35.6082 9.06214 35.6082 7.48666C35.6082 5.97738 35.086 4.56631 34.0851 3.56549C33.0528 2.53422 31.5189 1.95391 29.9256 1.95391C28.3274 1.95391 26.7925 2.52823 25.7593 3.56549C24.7638 4.56597 24.2402 5.98115 24.2402 7.48666C24.2402 8.98755 24.7699 10.4019 25.7593 11.4001C26.7933 12.4434 28.3228 13.0216 29.9256 13.0216V15V14.9998ZM7.68516 0.00718538C6.05745 0.00718538 4.20827 0.315986 2.63706 1.02768C1.18696 1.68395 3.4367e-07 2.74533 3.4367e-07 4.50489C-0.000674355 6.08961 0.992314 7.01772 0.965326 6.99206C1.38769 7.3864 2.06761 8.05789 3.84528 8.45223C4.63974 8.62845 6.33829 8.8991 8.02976 9.07839C9.70875 9.25802 11.3611 9.42876 12.0341 9.60155C12.5688 9.73962 13.467 9.92763 13.467 10.9497C13.467 11.9676 12.5207 12.2783 12.3563 12.3457C12.192 12.4116 11.0568 12.9398 9.01617 12.9398C7.50957 12.9398 5.69834 12.4803 5.03814 12.2408C4.27708 11.9661 3.47875 11.6027 2.73405 10.68C2.54884 10.4513 2.2567 9.82225 2.2567 9.19934H0.40988V14.4481H2.46265V13.739C2.46265 13.6582 2.56217 13.3261 2.90677 13.4841C3.33554 13.6817 4.59419 14.1899 5.91019 14.4686C6.98921 14.6975 7.68499 14.8616 9.02646 14.8616C11.2152 14.8616 12.391 14.4999 13.2039 14.2645C13.9696 14.0421 14.9159 13.6428 15.6846 13.0211C16.1008 12.6849 17.0137 11.8232 17.0137 10.259C17.0137 8.75761 16.2193 7.82574 15.9398 7.54226C15.5591 7.15596 15.094 6.85657 14.6094 6.62578C14.1872 6.42425 13.521 6.18217 12.9758 6.04684C11.9177 5.78338 9.52523 5.45832 8.38111 5.33686C7.18133 5.20974 5.10005 5.0349 4.26882 4.774C4.01682 4.69479 3.50304 4.44655 3.50304 3.84161C3.50304 3.41135 3.738 3.0466 4.20236 2.75183C4.93947 2.28341 6.42836 1.99223 7.98034 1.99223C9.81518 1.98539 11.369 2.41087 12.3574 2.8591C12.6936 3.01136 13.087 3.23 13.3993 3.48867C13.7519 3.7802 14.2468 4.38599 14.4257 5.23096H16.0838V0.662082H14.2324V1.19312C14.2324 1.36454 14.0579 1.58729 13.7278 1.4032C12.8992 0.962328 10.5567 0.0111202 7.68482 0.00718538H7.68516ZM48.2572 0.837439L57.2883 9.10405L57.1956 3.53829C57.1865 2.80846 57.0539 2.50376 56.2756 2.50376H54.5776V0.838808H62.2995V2.50376H60.6431C59.8493 2.50376 59.7992 2.76124 59.7896 3.53829L59.9296 14.1732H57.2851L46.883 4.75689L46.8852 11.4396C46.8943 12.1661 46.9278 12.5082 47.6658 12.5082H49.5204V14.1725H41.9367V12.5084H43.7095C44.3717 12.5084 44.3454 11.868 44.3454 11.4018V3.60159C44.3454 3.0981 44.2758 2.50496 43.236 2.50496H41.7976V0.837439H48.2572ZM71.1234 12.5051C71.1959 12.5051 71.5181 12.4957 71.5805 12.4764C71.7588 12.4199 71.8797 12.2909 71.9357 12.1565C71.9593 12.1 71.9711 11.8502 71.9711 11.796L71.9725 9.16478C71.9725 9.10148 71.9679 9.07411 71.862 8.93314C71.7456 8.77917 67.1315 3.47567 66.9203 3.24215C66.658 2.95217 66.1976 2.50393 65.4979 2.50393H63.8933V0.838295H72.9489V2.50188H71.8573C71.6048 2.50188 71.4369 2.74482 71.6527 3.01478C71.6527 3.01478 74.6994 6.71132 74.7283 6.74998C74.7566 6.78933 74.7809 6.79874 74.8197 6.76281C74.8578 6.72603 77.9429 3.04866 77.9672 3.01957C78.1139 2.84131 78.0144 2.50376 77.6981 2.50376H76.5783V0.838295H84V2.50376H82.3419C81.7404 2.50376 81.4957 2.61668 81.0431 3.13556C80.8362 3.37302 76.1728 8.77181 76.046 8.91809C75.9795 8.99456 75.9853 9.10114 75.9853 9.16444V11.7953C75.9853 11.8487 75.9971 12.0988 76.0207 12.1549C76.0768 12.2901 76.1985 12.4191 76.3766 12.4749C76.439 12.4944 76.7568 12.5039 76.8291 12.5039H78.5252V14.1692H69.5162V12.5038L71.1237 12.5051H71.1234Z" fill="#9A9A9A"/>
</svg>
