<svg width="81" height="24" viewBox="0 0 81 24" fill="none" xmlns="http://www.w3.org/2000/svg">
<path d="M12.1469 0C5.43851 0 0 5.37268 0 12.0001C0 18.6278 5.43851 24 12.1469 24C18.8561 24 24.294 18.6278 24.294 12.0001C24.294 5.37311 18.8561 0.000573193 12.1468 0.000573193L12.1469 0ZM17.7175 17.3075C17.6656 17.3915 17.5975 17.4644 17.5171 17.5223C17.4367 17.5802 17.3455 17.6219 17.2488 17.6449C17.152 17.6679 17.0517 17.6719 16.9534 17.6565C16.8551 17.6412 16.7608 17.6068 16.676 17.5555C13.824 15.8344 10.2337 15.4447 6.00552 16.399C5.80973 16.443 5.60428 16.4084 5.43431 16.3028C5.26435 16.1972 5.14378 16.0293 5.0991 15.8359C5.07684 15.7401 5.07393 15.641 5.09052 15.5441C5.10711 15.4472 5.14287 15.3546 5.19577 15.2714C5.24867 15.1882 5.31766 15.1161 5.39878 15.0593C5.47991 15.0025 5.57159 14.962 5.66857 14.9403C10.2957 13.8959 14.2647 14.3456 17.4665 16.2787C17.8233 16.495 17.9365 16.955 17.7175 17.3075V17.3075ZM19.2042 14.0401C18.9301 14.4803 18.347 14.6193 17.9017 14.3484C14.6366 12.3658 9.65948 11.7916 5.79752 12.9497C5.29666 13.0992 4.76766 12.8203 4.61565 12.3264C4.54311 12.0889 4.56886 11.8327 4.68725 11.6139C4.80564 11.3952 5.00701 11.2318 5.24719 11.1595C9.65861 9.83713 15.1428 10.4777 18.8924 12.754C19.3377 13.0248 19.4784 13.6009 19.2042 14.0402V14.0401ZM19.3319 10.6376C15.417 8.34038 8.95787 8.12916 5.22007 9.24989C4.61985 9.42973 3.98511 9.09499 3.80322 8.50202C3.71576 8.21714 3.7464 7.9096 3.88842 7.64703C4.03043 7.38446 4.27219 7.18836 4.56053 7.10185C8.85126 5.81504 15.9841 6.06366 20.4914 8.70708C20.6199 8.78216 20.7321 8.88153 20.8216 8.99951C20.9111 9.11749 20.9762 9.25176 21.0131 9.39463C21.05 9.5375 21.0581 9.68616 21.0367 9.8321C21.0154 9.97803 20.9652 10.1184 20.8888 10.2451C20.5697 10.7785 19.8706 10.9543 19.3324 10.6376H19.3319ZM33.0478 11.0778C30.9504 10.5837 30.5776 10.2369 30.5776 9.50826C30.5776 8.81986 31.2332 8.35657 32.2094 8.35657C33.1552 8.35657 34.0922 8.70837 35.0756 9.4326C35.1046 9.45452 35.1423 9.46326 35.1786 9.45753C35.1969 9.45495 35.2144 9.4487 35.2301 9.43919C35.2458 9.42968 35.2594 9.4171 35.27 9.40222L36.294 7.97612C36.3143 7.94784 36.3228 7.91302 36.318 7.87873C36.3131 7.84444 36.2952 7.81327 36.2679 7.79155C35.0974 6.86398 33.7803 6.41302 32.2399 6.41302C29.9757 6.41302 28.3932 7.75558 28.3932 9.67649C28.3932 11.7364 29.7581 12.4658 32.1166 13.0288C34.1226 13.4855 34.4621 13.8681 34.4621 14.5519C34.4621 15.31 33.7774 15.7814 32.675 15.7814C31.4508 15.7814 30.4514 15.373 29.3345 14.4187C29.3067 14.3954 29.2709 14.3836 29.2344 14.3857C29.1967 14.3886 29.1634 14.4058 29.1402 14.433L27.9914 15.7829C27.9435 15.8402 27.9493 15.9233 28.0044 15.972C29.3041 17.1184 30.9025 17.7231 32.6286 17.7231C35.0684 17.7231 36.6451 16.4062 36.6451 14.3671C36.6494 12.6465 35.6065 11.6936 33.0522 11.0797L33.0478 11.0778ZM42.1657 9.03437C41.1083 9.03437 40.2409 9.44593 39.5243 10.2892V9.34003C39.5245 9.30414 39.5102 9.26966 39.4846 9.24416C39.4591 9.21866 39.4243 9.20423 39.388 9.20404H37.5096C37.4341 9.20404 37.3732 9.26508 37.3732 9.34003V19.8869C37.3732 19.9614 37.4341 20.023 37.5096 20.023H39.388C39.4634 20.023 39.5243 19.9614 39.5243 19.8869V16.5581C40.2409 17.3505 41.1083 17.7389 42.1657 17.7389C44.1311 17.7389 46.1212 16.2443 46.1212 13.3871C46.1241 10.5293 44.134 9.03423 42.1671 9.03423L42.1657 9.03437ZM43.9367 13.3871C43.9367 14.8414 43.0302 15.8574 41.7305 15.8574C40.4468 15.8574 39.4779 14.7955 39.4779 13.3871C39.4779 11.9784 40.4468 10.9169 41.7305 10.9169C43.0084 10.9167 43.9367 11.9554 43.9367 13.3869V13.3871ZM51.2197 9.03437C48.6886 9.03437 46.7058 10.9597 46.7058 13.4181C46.7058 15.8502 48.6755 17.7546 51.1893 17.7546C53.7291 17.7546 55.7177 15.8359 55.7177 13.3871C55.7177 10.9465 53.7421 9.03466 51.2197 9.03466V9.03437ZM51.2197 15.8717C49.8737 15.8717 48.8583 14.8027 48.8583 13.3863C48.8583 11.9635 49.8388 10.9311 51.1893 10.9311C52.544 10.9311 53.5652 11.9996 53.5652 13.4174C53.5652 14.84 52.5788 15.8717 51.2197 15.8717ZM61.1223 9.20404H59.0553V7.11676C59.0554 7.09899 59.0519 7.08139 59.0451 7.06495C59.0383 7.04851 59.0283 7.03355 59.0156 7.02094C59.003 7.00832 58.9879 6.99829 58.9713 6.99143C58.9548 6.98456 58.937 6.98099 58.919 6.98091H57.0406C56.9652 6.98091 56.9028 7.04196 56.9028 7.11676V9.20404H56.0006C55.9252 9.20404 55.8642 9.26508 55.8642 9.34003V10.9345C55.8642 11.0093 55.9252 11.0705 56.0006 11.0705H56.9028V15.1968C56.9028 16.8633 57.7426 17.7088 59.4006 17.7088C60.0736 17.7088 60.632 17.5712 61.1586 17.276C61.2021 17.2531 61.2282 17.2072 61.2282 17.1585V15.6396C61.2282 15.5937 61.2035 15.5493 61.1629 15.5249C61.1432 15.5124 61.1204 15.5053 61.097 15.5043C61.0735 15.5033 61.0503 15.5084 61.0295 15.5192C60.6683 15.6983 60.3187 15.7814 59.9271 15.7814C59.3251 15.7814 59.0553 15.5106 59.0553 14.9059V11.0712H61.1223C61.1977 11.0712 61.2587 11.0102 61.2587 10.9352V9.34089C61.2593 9.3231 61.2562 9.30537 61.2497 9.28878C61.2432 9.27218 61.2333 9.25707 61.2207 9.24436C61.2081 9.23165 61.193 9.22159 61.1763 9.21481C61.1597 9.20803 61.1418 9.20466 61.1238 9.2049L61.1223 9.20404ZM68.3226 9.21221V8.95585C68.3226 8.20167 68.6156 7.86535 69.2712 7.86535C69.6629 7.86535 69.9776 7.94216 70.3301 8.05823C70.3736 8.0717 70.4186 8.06496 70.4534 8.03931C70.4711 8.02672 70.4854 8.01013 70.4953 7.99093C70.5051 7.97174 70.5101 7.95049 70.51 7.92897V6.36559C70.5103 6.33639 70.501 6.30788 70.4835 6.28437C70.4659 6.26087 70.4411 6.24365 70.4128 6.23533C70.0414 6.12599 69.5657 6.01379 68.852 6.01379C67.1187 6.01379 66.2005 6.97876 66.2005 8.80338V9.19601H65.2983C65.2229 9.19601 65.1605 9.25706 65.1605 9.33186V10.9345C65.1605 11.0093 65.2229 11.0705 65.2983 11.0705H66.2005V17.4336C66.2005 17.5096 66.2629 17.5698 66.3383 17.5698H68.2153C68.2921 17.5698 68.3531 17.5096 68.3531 17.4336V11.0709H70.1067L72.793 17.4336C72.4884 18.1014 72.1882 18.2347 71.7791 18.2347C71.4484 18.2347 71.0989 18.1372 70.7435 17.9438C70.7098 17.927 70.6709 17.9234 70.6347 17.9338C70.5984 17.9467 70.568 17.9725 70.5535 18.0068L69.9167 19.3868C69.8862 19.4527 69.9124 19.5287 69.9762 19.5631C70.6405 19.9184 71.2396 20.0703 71.9808 20.0703C73.3675 20.0703 74.1348 19.4312 74.8093 17.7145L78.0671 9.39792C78.0756 9.37736 78.0787 9.35503 78.0761 9.33297C78.0736 9.31091 78.0655 9.28984 78.0526 9.27168C78.0403 9.2535 78.0237 9.2386 78.0042 9.2283C77.9847 9.218 77.963 9.21262 77.9409 9.21264H75.9856C75.9261 9.21264 75.8739 9.24946 75.8551 9.30377L73.8519 14.9546L71.6588 9.30005C71.6489 9.27442 71.6315 9.25234 71.6087 9.23673C71.5859 9.22112 71.5588 9.21272 71.5311 9.21264H68.3226V9.21221ZM64.1481 9.20404H62.2697C62.1942 9.20404 62.1319 9.26508 62.1319 9.34003V17.4336C62.1319 17.5096 62.1942 17.5698 62.2697 17.5698H64.1481C64.2235 17.5698 64.2859 17.5096 64.2859 17.4336V9.3406C64.2859 9.32272 64.2824 9.30501 64.2754 9.28848C64.2685 9.27196 64.2584 9.25694 64.2456 9.24431C64.2328 9.23167 64.2176 9.22166 64.2008 9.21484C64.1841 9.20803 64.1662 9.20455 64.1481 9.20461V9.20404ZM63.2197 5.51855C62.4756 5.51855 61.8722 6.11353 61.8722 6.8485C61.8722 7.02332 61.9071 7.19642 61.9748 7.35793C62.0425 7.51943 62.1418 7.66618 62.2669 7.78978C62.392 7.91339 62.5406 8.01143 62.7041 8.07832C62.8676 8.1452 63.0428 8.17962 63.2197 8.1796C63.9638 8.1796 64.5658 7.58391 64.5658 6.8485C64.5658 6.11367 63.9624 5.51855 63.2197 5.51855ZM79.6713 11.8065C78.9287 11.8065 78.3499 11.2168 78.3499 10.5007C78.3499 9.78468 78.9359 9.18828 79.6786 9.18828C80.4212 9.18828 81 9.7778 81 10.4933C81 11.2094 80.414 11.8065 79.6713 11.8065ZM79.6786 9.3181C79.0012 9.3181 78.4892 9.84974 78.4892 10.5007C78.4892 11.1515 78.9983 11.6759 79.6713 11.6759C80.3487 11.6759 80.8607 11.1447 80.8607 10.4933C80.8607 9.84257 80.3516 9.3181 79.6786 9.3181V9.3181ZM79.9716 10.6276L80.3458 11.1446H80.0296L79.6931 10.6703H79.4044V11.1446H79.1405V9.77408H79.7584C80.0818 9.77408 80.2936 9.93701 80.2936 10.2113C80.2951 10.436 80.1631 10.5733 79.973 10.6276H79.9716ZM79.7482 10.0092H79.4044V10.4427H79.7482C79.9194 10.4427 80.0224 10.3597 80.0224 10.2258C80.0224 10.0847 79.9194 10.0092 79.7482 10.0092V10.0092Z" fill="#9A9A9A"/>
</svg>
