<svg width="105" height="13" viewBox="0 0 105 13" fill="none" xmlns="http://www.w3.org/2000/svg">
<path d="M89.7043 5.14533V12.9846H92.352V7.76523H101.988V12.9846H104.634V5.15893L89.7043 5.14533V5.14533ZM92.057 2.60952H102.238C103.652 2.34263 104.703 1.15772 105 0.0114484H89.2951C89.5887 1.15808 90.6557 2.34263 92.057 2.60952V2.60952ZM81.6855 12.9896C83.0205 12.4523 83.7387 11.5228 84.0137 10.4352H72.1385L72.1461 0.0178881L69.4841 0.0250433V12.9896H81.6855V12.9896ZM49.6884 2.57446H59.0908C60.5082 2.18342 61.6985 1.15808 61.9886 0.0214657H47.0528V7.68294H59.2773V10.3715L49.6884 10.3787C48.1858 10.7765 46.9115 11.7346 46.2759 13L47.0528 12.9864H61.9039V5.13567H49.6884V2.57446V2.57446ZM26.4772 2.59914H36.6546C38.0706 2.33118 39.1229 1.14734 39.418 0H23.7138C24.007 1.14734 25.0748 2.33118 26.4772 2.59914V2.59914ZM26.4772 7.72301H36.6546C38.0706 7.45791 39.1229 6.273 39.418 5.12494H23.7138C24.007 6.27336 25.0748 7.45791 26.4772 7.72301ZM26.4772 12.9882H36.6546C38.0706 12.7209 39.1229 11.5364 39.418 10.3898H23.7138C24.007 11.5368 25.0748 12.7209 26.4772 12.9882ZM0 0.0314831C0.305951 1.16452 1.3391 2.32259 2.75657 2.61274H7.04064L7.25918 2.69466V12.9592H9.93437V2.69466L10.1774 2.61274H14.4652C15.8985 2.26213 16.9094 1.16452 17.2101 0.0314831V0.00643972H0V0.0314831" fill="#9A9A9A"/>
</svg>
