<svg width="76" height="28" viewBox="0 0 76 28" fill="none" xmlns="http://www.w3.org/2000/svg">
<path d="M8.79715 27.7448V18.8479L15.3312 0H12.5578L7.45483 15.0539L3.02853 2.60697H0L6.01268 18.748V27.7448H8.79715Z" fill="#9A9A9A"/>
<path d="M20.8226 24.2725C20.3234 25.038 19.3805 25.6703 18.4264 25.6703C17.0175 25.6703 16.3519 24.3391 16.3519 22.2979C16.3519 20.0126 17.0952 18.5039 20.5009 18.5039H20.8226V24.2725ZM23.5294 23.74V15.4088C23.5294 11.1156 21.7988 9.78443 18.6705 9.78443C16.8844 9.78443 15.2648 10.5166 14.4549 11.1822L14.9763 13.6117C15.8971 12.8019 17.0952 12.0697 18.493 12.0697C20.0461 12.0697 20.8226 13.0459 20.8226 15.3756V16.4294H20.4343C15.4755 16.4294 13.5342 18.8145 13.5342 22.6196C13.5342 26.103 15.2648 28 17.7941 28C19.3472 28 20.3234 27.3233 21.0999 26.347H21.2774C21.3107 26.8019 21.4217 27.3676 21.5215 27.7448H23.84C23.7069 26.9017 23.5294 25.4263 23.5294 23.74ZM29.6863 14C30.3186 13.1236 31.2949 12.2472 32.4597 12.2472C33.5136 12.2472 34.1126 12.702 34.1126 14.0332V27.7448H36.886V13.7892C36.886 11.0824 35.6546 9.78443 33.3361 9.78443C31.6831 9.78443 30.3519 10.8716 29.8527 11.5372H29.6863V9.9952H26.9351V27.7448H29.6863V14ZM44.9732 28C46.4153 28 47.4026 27.3233 48.1792 26.347H48.3567L48.5674 27.7448H50.6087V2.60693H47.8575V10.45C47.3361 10.0618 46.4597 9.78443 45.6166 9.78443C42.0556 9.78443 39.5928 12.9794 39.5928 19.5578C39.5928 25.038 41.5009 28 44.9732 28V28ZM47.8575 24.3058C47.4026 25.0047 46.6705 25.6703 45.2949 25.6703C43.2869 25.6703 42.5215 23.141 42.5215 18.992C42.5215 15.3756 43.5754 12.0364 45.783 12.0364C46.7037 12.0364 47.3028 12.3137 47.8575 12.8795V24.3058ZM63.5104 26.5578L62.8781 24.45C62.1792 24.9381 61.0476 25.637 59.5056 25.637C57.3202 25.637 56.1998 23.5293 56.1998 19.5245H63.577V18.0047C63.577 11.992 61.6467 9.78443 58.6958 9.78443C54.9351 9.78443 53.3487 13.9334 53.3487 19.6244C53.3487 25.0824 55.6007 28 59.2505 28C61.0144 28 62.39 27.4342 63.5104 26.5578ZM58.6958 12.0364C60.2711 12.0364 60.7703 14.244 60.7703 17.2725H56.2331C56.4106 14.1109 57.0096 12.0364 58.6958 12.0364ZM72.8289 10.0285L70.3995 16.4627L68.1142 10.0285H65.2743L68.6134 18.5705L64.9193 27.7448H67.6261L70.2996 20.4342L73.0397 27.7448H75.8907L72.1966 18.3264L75.5025 10.0285H72.8289Z" fill="#9A9A9A"/>
</svg>
