<svg width="118" height="119" viewBox="0 0 118 119" fill="none" xmlns="http://www.w3.org/2000/svg">
<path d="M2.8243 88.0812C3.31282 89.2133 3.23527 90.5897 3.92272 91.5844C4.30447 92.3493 5.31373 92.5337 5.94123 91.953C6.40053 91.3416 6.21771 90.4391 6.17238 89.7355C6.09633 89.2002 5.79063 88.9705 5.28601 88.8784C5.04175 88.3123 4.79749 87.7463 4.3543 87.3177C3.80434 86.522 2.30506 87.1172 2.8243 88.0812Z" fill="black"/>
<path d="M11.5199 96.6218C12.1766 97.7847 13.0015 98.9782 13.8572 100.004C14.7128 101.029 15.8742 102.284 17.0517 102.499C17.7245 102.622 18.2145 101.842 17.7713 101.414C17.0839 100.419 15.7689 100.005 14.8826 99.1479C13.828 98.2601 13.1405 97.2654 12.3156 96.0718C11.8724 95.6433 11.2449 96.2239 11.5199 96.6218Z" fill="black"/>
<path d="M25.9217 103.424C24.5146 103.514 22.97 103.406 21.4561 103.13C20.9515 103.037 20.7979 103.878 21.3025 103.971C23.321 104.339 27.1737 106.086 28.888 104.313C29.2859 104.038 28.8734 103.441 28.537 103.38C27.6959 103.226 26.7935 103.409 25.9217 103.424Z" fill="black"/>
<path d="M34.0339 95.171C33.8788 97.9238 33.9534 100.371 32.1469 102.648C31.9173 102.954 32.223 103.184 32.4526 102.878C34.7637 100.693 36.127 97.9867 35.1354 94.8507C34.9218 94.1164 33.9579 94.6356 34.0339 95.171Z" fill="black"/>
<path d="M27.4987 81.4628C27.7576 82.9007 28.5825 84.0942 29.2085 85.4253C29.972 86.9553 30.7662 88.3171 31.7286 89.7096C32.0036 90.1074 32.7686 89.7257 32.5244 89.1596C31.6994 87.9661 31.2416 86.6657 30.6156 85.3346C29.9896 84.0036 29.5932 82.3668 28.7683 81.1732C28.3558 80.5764 27.2851 80.7285 27.4987 81.4628Z" fill="black"/>
<path d="M17.4459 67.9805C18.0704 71.2233 20.4077 74.6051 22.3633 77.2219C22.8065 77.6505 23.4033 77.238 23.159 76.6719C22.2273 75.1112 21.3263 73.3823 20.5935 71.6841C19.9675 70.353 19.5404 68.8845 18.7155 67.6909C18.1348 67.0634 17.3698 67.4451 17.4459 67.9805Z" fill="black"/>
<path d="M13.9563 51.8737C13.2352 54.8708 13.8597 58.1136 14.3774 60.9893C14.4535 61.5246 15.157 61.4793 15.2492 60.9747C14.9304 57.9615 15.1162 55.0405 15.4702 52.1502C15.4556 51.2784 14.1099 51.0327 13.9563 51.8737Z" fill="black"/>
<path d="M21.5655 41.6173C20.4027 42.274 19.1784 43.2672 18.153 44.1228C17.3266 44.841 18.1515 46.0346 19.1154 45.5153C20.1101 44.8276 21.2729 44.1712 22.4358 43.5144C23.5987 42.8574 25.2661 42.2931 26.3222 41.2693C26.7508 40.8261 26.369 40.0611 25.6655 40.1064C24.3198 39.8607 22.7591 40.7924 21.5655 41.6173Z" fill="black"/>
<path d="M31.2323 40.0803C30.5595 39.9574 30.3445 41.1346 31.0174 41.2575C32.6687 41.7329 34.1212 42.3458 35.7418 42.9897C37.1942 43.6026 38.5545 44.7201 40.2366 45.0273C41.0777 45.1809 41.6291 44.0649 40.8496 43.5746C38.2665 41.5384 34.2908 40.465 31.2323 40.0803Z" fill="black"/>
<path d="M46.9003 50.4161C47.9241 51.4725 48.948 52.5283 49.9719 53.5847C51.0265 54.4723 51.9889 55.8648 53.3038 56.279C53.9767 56.4019 54.2678 55.7598 54.1917 55.2244C53.9021 53.9548 52.4804 53.1737 51.5633 52.4847C50.3712 51.3979 48.9802 50.4486 47.7881 49.3618C47.0086 48.8715 46.3196 49.7886 46.9003 50.4161Z" fill="black"/>
<path d="M57.6438 61.0689C58.713 62.8286 59.8437 64.2518 61.1732 65.5375C62.5028 66.8233 64.4438 68.5683 66.3555 68.5698C67.2273 68.5552 67.5491 67.7449 66.9684 67.1174C65.9445 66.0613 64.2932 65.5859 63.0396 64.8355C61.144 63.794 59.5087 62.2786 58.0724 60.6257C57.9656 60.2586 57.3688 60.6711 57.6438 61.0689Z" fill="black"/>
<path d="M72.3775 73.6675C73.4467 75.4271 74.7456 76.8811 76.4116 78.2283C78.0776 79.5754 80.2177 81.183 82.2977 81.2153C83.0012 81.1699 83.1856 80.1607 82.7117 79.9003C81.3818 78.6145 79.3633 78.2459 77.8041 77.2658C76.0769 76.2551 74.4414 74.7397 73.0051 73.0868C72.7301 72.689 71.9651 73.0707 72.3775 73.6675Z" fill="black"/>
<path d="M98.082 78.5359C97.1944 79.5905 96.5055 80.5076 95.3426 81.1643C93.8434 81.7596 91.7634 81.7274 90.2495 81.4509C89.7446 81.3587 89.591 82.1997 90.0959 82.292C93.2305 83.212 98.904 83.5529 99.5348 79.1488C99.4894 78.4452 98.5416 77.9245 98.082 78.5359Z" fill="black"/>
<path d="M107.227 61.7805C106.721 63.5999 106.719 65.5118 106.381 67.3619C105.783 69.6864 104.71 71.7502 103.027 73.3547C102.797 73.6605 103.271 73.9209 103.47 73.7833C106.806 70.7424 110.052 66.2942 109.001 61.5828C108.65 60.6499 107.38 60.9395 107.227 61.7805Z" fill="black"/>
<path d="M98.3994 45.394C98.8572 46.6944 99.6821 47.888 100.277 49.3872C100.735 50.6876 100.826 52.095 100.748 53.4711C100.763 54.3431 101.94 54.5582 102.094 53.7168C102.815 50.7198 102.512 46.6667 99.9601 44.4623C99.242 43.6356 98.2163 44.4915 98.3994 45.394Z" fill="black"/>
<path d="M89.5659 36.6543C91.3532 39.2404 93.2781 42.0251 95.693 44.0308C96.4421 44.6891 97.1615 43.6037 96.5808 42.9762C94.5638 40.6958 93.4347 37.3609 90.8209 35.4927C90.0108 35.1712 89.0162 35.8587 89.5659 36.6543Z" fill="black"/>
<path d="M92.0382 24.069C90.9368 24.3893 90.0182 25.6121 89.3293 26.5292C88.6096 27.6145 88.1959 28.9295 87.9502 30.2752C87.7966 31.1163 88.9737 31.3313 89.1273 30.4902C89.3424 29.3127 89.8634 28.365 90.5523 27.4479C91.2106 26.6987 92.1746 26.1795 92.8325 25.4308C93.4597 24.8501 92.7725 23.8558 92.0382 24.069Z" fill="black"/>
<path d="M100.442 15.1746C96.1431 16.823 91.4932 17.5382 87.0875 18.8194C85.0529 19.4907 86.2435 22.4893 88.2474 21.9862C91.8878 21.0866 95.6662 20.3861 99.2308 18.9513C99.1225 20.4959 99.0143 22.0405 98.8753 23.7533C98.9206 24.4569 98.7056 25.6343 99.2865 26.2619L99.4238 26.4605C99.4238 26.4605 99.3931 26.6287 99.5613 26.6594C99.8363 27.0573 100.571 26.8437 100.632 26.5073C100.831 26.3698 100.862 26.2013 100.923 25.8652C101.245 25.0545 101.23 24.1831 101.415 23.1738C101.646 20.9564 101.846 18.9071 102.414 16.7512C102.766 15.7729 101.543 14.8543 100.442 15.1746Z" fill="black"/>
</svg>
